G04*
G04 #@! TF.GenerationSoftware,Altium Limited,Altium Designer,22.7.1 (60)*
G04*
G04 Layer_Physical_Order=1*
G04 Layer_Color=16776960*
%FSLAX43Y43*%
%MOMM*%
G71*
G04*
G04 #@! TF.SameCoordinates,D6A07BB3-E300-4989-B7AD-CA0A744D7D9A*
G04*
G04*
G04 #@! TF.FilePolarity,Positive*
G04*
G01*
G75*
%ADD11C,0.300*%
%ADD14C,0.200*%
%ADD31C,0.500*%
%ADD32C,0.400*%
%ADD33C,0.300*%
%ADD34C,0.200*%
%ADD35C,0.500*%
%ADD36R,1.050X1.400*%
%ADD37R,1.000X1.400*%
%ADD38R,1.200X0.400*%
%ADD39R,1.400X1.050*%
%ADD40R,1.400X1.000*%
%ADD41R,1.900X0.600*%
%ADD42R,0.600X1.946*%
G04:AMPARAMS|DCode=43|XSize=1mm|YSize=1.4mm|CornerRadius=0mm|HoleSize=0mm|Usage=FLASHONLY|Rotation=45.000|XOffset=0mm|YOffset=0mm|HoleType=Round|Shape=Rectangle|*
%AMROTATEDRECTD43*
4,1,4,0.141,-0.849,-0.849,0.141,-0.141,0.849,0.849,-0.141,0.141,-0.849,0.0*
%
%ADD43ROTATEDRECTD43*%

G04:AMPARAMS|DCode=44|XSize=1mm|YSize=1.4mm|CornerRadius=0mm|HoleSize=0mm|Usage=FLASHONLY|Rotation=315.000|XOffset=0mm|YOffset=0mm|HoleType=Round|Shape=Rectangle|*
%AMROTATEDRECTD44*
4,1,4,-0.849,-0.141,0.141,0.849,0.849,0.141,-0.141,-0.849,-0.849,-0.141,0.0*
%
%ADD44ROTATEDRECTD44*%

%ADD45R,1.100X1.000*%
%ADD46C,1.200*%
%ADD47R,1.200X1.200*%
%ADD48R,1.200X1.200*%
%ADD49C,0.700*%
G36*
X8456Y46352D02*
X8452Y46375D01*
X8440Y46396D01*
X8419Y46415D01*
X8390Y46431D01*
X8353Y46444D01*
X8307Y46455D01*
X8254Y46464D01*
X8192Y46470D01*
X8043Y46475D01*
Y46775D01*
X8122Y46776D01*
X8254Y46786D01*
X8307Y46795D01*
X8353Y46806D01*
X8390Y46819D01*
X8419Y46835D01*
X8440Y46854D01*
X8452Y46875D01*
X8456Y46898D01*
Y46352D01*
D02*
G37*
G36*
X11351Y46896D02*
X11365Y46871D01*
X11387Y46848D01*
X11419Y46829D01*
X11459Y46812D01*
X11509Y46799D01*
X11567Y46789D01*
X11635Y46781D01*
X11797Y46775D01*
Y46475D01*
X11711Y46473D01*
X11567Y46461D01*
X11509Y46451D01*
X11459Y46438D01*
X11419Y46421D01*
X11387Y46402D01*
X11365Y46379D01*
X11351Y46354D01*
X11347Y46325D01*
Y46925D01*
X11351Y46896D01*
D02*
G37*
G36*
X16350Y46055D02*
X16328Y46073D01*
X16298Y46089D01*
X16261Y46103D01*
X16216Y46116D01*
X16164Y46126D01*
X16105Y46135D01*
X15964Y46146D01*
X15794Y46150D01*
Y46450D01*
X15883Y46451D01*
X16105Y46465D01*
X16164Y46474D01*
X16216Y46484D01*
X16261Y46497D01*
X16298Y46511D01*
X16328Y46527D01*
X16350Y46545D01*
Y46055D01*
D02*
G37*
G36*
X19027Y45928D02*
X19011Y45898D01*
X18997Y45861D01*
X18984Y45816D01*
X18974Y45764D01*
X18965Y45705D01*
X18954Y45564D01*
X18950Y45394D01*
X18650D01*
X18649Y45483D01*
X18635Y45705D01*
X18626Y45764D01*
X18616Y45816D01*
X18603Y45861D01*
X18589Y45898D01*
X18573Y45928D01*
X18555Y45950D01*
X19045D01*
X19027Y45928D01*
D02*
G37*
G36*
X19951Y44899D02*
X19964Y44725D01*
X19971Y44697D01*
X19978Y44675D01*
X19987Y44659D01*
X19997Y44650D01*
X20008Y44647D01*
X19592D01*
X19603Y44650D01*
X19613Y44659D01*
X19622Y44675D01*
X19629Y44697D01*
X19636Y44725D01*
X19641Y44759D01*
X19648Y44846D01*
X19650Y44959D01*
X19950D01*
X19951Y44899D01*
D02*
G37*
G36*
X13751Y44994D02*
X13762Y44857D01*
X13772Y44801D01*
X13784Y44754D01*
X13799Y44716D01*
X13817Y44686D01*
X13837Y44664D01*
X13860Y44651D01*
X13886Y44647D01*
X13314D01*
X13340Y44651D01*
X13363Y44664D01*
X13383Y44686D01*
X13401Y44716D01*
X13416Y44754D01*
X13428Y44801D01*
X13438Y44857D01*
X13445Y44921D01*
X13450Y45076D01*
X13750D01*
X13751Y44994D01*
D02*
G37*
G36*
X7401Y44639D02*
X7319Y44625D01*
X7246Y44609D01*
X7181Y44589D01*
X7123Y44566D01*
X7074Y44539D01*
X7033Y44510D01*
X6999Y44477D01*
X6974Y44441D01*
X6957Y44401D01*
X6948Y44359D01*
X6674Y44742D01*
X7203Y44906D01*
X7401Y44639D01*
D02*
G37*
G36*
X14201Y43988D02*
X14215Y43980D01*
X14237Y43973D01*
X14269Y43967D01*
X14309Y43962D01*
X14417Y43954D01*
X14647Y43950D01*
Y43650D01*
X14561Y43650D01*
X14237Y43627D01*
X14215Y43620D01*
X14201Y43612D01*
X14197Y43603D01*
Y43997D01*
X14201Y43988D01*
D02*
G37*
G36*
X8456Y43400D02*
X8452Y43429D01*
X8438Y43454D01*
X8415Y43477D01*
X8384Y43496D01*
X8343Y43513D01*
X8293Y43526D01*
X8234Y43536D01*
X8166Y43544D01*
X8003Y43550D01*
Y43850D01*
X8089Y43852D01*
X8234Y43863D01*
X8293Y43874D01*
X8343Y43888D01*
X8384Y43904D01*
X8415Y43924D01*
X8438Y43946D01*
X8452Y43972D01*
X8456Y44000D01*
Y43400D01*
D02*
G37*
G36*
X11351Y43615D02*
X11364Y43583D01*
X11385Y43552D01*
X11414Y43521D01*
X11452Y43490D01*
X11498Y43460D01*
X11553Y43430D01*
X11616Y43401D01*
X11768Y43343D01*
X11776Y43035D01*
X11695Y43061D01*
X11557Y43094D01*
X11502Y43101D01*
X11454Y43102D01*
X11416Y43097D01*
X11386Y43086D01*
X11364Y43069D01*
X11351Y43046D01*
X11347Y43016D01*
Y43647D01*
X11351Y43615D01*
D02*
G37*
G36*
X14201Y43338D02*
X14215Y43330D01*
X14237Y43323D01*
X14269Y43317D01*
X14309Y43312D01*
X14417Y43304D01*
X14647Y43300D01*
Y43000D01*
X14561Y43000D01*
X14237Y42977D01*
X14215Y42970D01*
X14201Y42962D01*
X14197Y42953D01*
Y43347D01*
X14201Y43338D01*
D02*
G37*
G36*
X13003Y42953D02*
X12999Y42962D01*
X12985Y42970D01*
X12963Y42977D01*
X12931Y42983D01*
X12891Y42988D01*
X12783Y42996D01*
X12553Y43000D01*
Y43300D01*
X12639Y43300D01*
X12963Y43323D01*
X12985Y43330D01*
X12999Y43338D01*
X13003Y43347D01*
Y42953D01*
D02*
G37*
G36*
X33441Y42519D02*
X33191Y42318D01*
X33166Y42397D01*
X33140Y42468D01*
X33112Y42531D01*
X33083Y42586D01*
X33051Y42634D01*
X33018Y42673D01*
X32983Y42704D01*
X32946Y42728D01*
X32908Y42744D01*
X32868Y42751D01*
X33246Y43047D01*
X33441Y42519D01*
D02*
G37*
G36*
X12110Y41578D02*
X11974Y41528D01*
X11745Y41428D01*
X11652Y41378D01*
X11573Y41329D01*
X11508Y41280D01*
X11458Y41231D01*
X11423Y41182D01*
X11401Y41134D01*
X11394Y41086D01*
Y42138D01*
X11401Y42097D01*
X11421Y42065D01*
X11456Y42043D01*
X11504Y42030D01*
X11566Y42027D01*
X11641Y42033D01*
X11730Y42049D01*
X11833Y42074D01*
X12081Y42152D01*
X12110Y41578D01*
D02*
G37*
G36*
X6052Y42677D02*
X6061Y42654D01*
X6074Y42623D01*
X6119Y42538D01*
X6275Y42277D01*
X6328Y42194D01*
X6109Y41978D01*
X6065Y42049D01*
X5978Y42168D01*
X5936Y42216D01*
X5895Y42257D01*
X5855Y42290D01*
X5815Y42316D01*
X5776Y42335D01*
X5738Y42346D01*
X5700Y42350D01*
X6050Y42693D01*
X6052Y42677D01*
D02*
G37*
G36*
X29051Y42304D02*
X29071Y42020D01*
X29081Y41975D01*
X29092Y41939D01*
X29105Y41914D01*
X29119Y41899D01*
X29135Y41894D01*
X28465D01*
X28481Y41899D01*
X28495Y41914D01*
X28508Y41939D01*
X28519Y41975D01*
X28529Y42020D01*
X28536Y42076D01*
X28547Y42218D01*
X28550Y42400D01*
X29050D01*
X29051Y42304D01*
D02*
G37*
G36*
X18236Y42063D02*
X18268Y42050D01*
X18306Y42038D01*
X18352Y42028D01*
X18405Y42020D01*
X18532Y42007D01*
X18688Y42001D01*
X18768Y42000D01*
X18839Y42000D01*
X19163Y42023D01*
X19185Y42030D01*
X19199Y42038D01*
X19203Y42047D01*
Y41653D01*
X19199Y41662D01*
X19185Y41670D01*
X19163Y41677D01*
X19131Y41683D01*
X19091Y41688D01*
X18983Y41696D01*
X18782Y41699D01*
X18736Y41699D01*
X18515Y41683D01*
X18457Y41673D01*
X18407Y41662D01*
X18364Y41648D01*
X18329Y41632D01*
X18302Y41614D01*
X18282Y41593D01*
X18212Y42078D01*
X18236Y42063D01*
D02*
G37*
G36*
X8097Y42530D02*
X8757Y42294D01*
X8876Y42268D01*
X8975Y42255D01*
X9055Y42255D01*
X9117Y42268D01*
X9160Y42294D01*
X8406Y41556D01*
X8434Y41596D01*
X8440Y41640D01*
X8424Y41689D01*
X8387Y41742D01*
X8327Y41798D01*
X8246Y41859D01*
X8143Y41924D01*
X8018Y41994D01*
X7702Y42145D01*
X7884Y42622D01*
X8097Y42530D01*
D02*
G37*
G36*
X31069Y41494D02*
X30531D01*
X30535Y41498D01*
X30538Y41510D01*
X30541Y41530D01*
X30545Y41595D01*
X30550Y41900D01*
X31050D01*
X31069Y41494D01*
D02*
G37*
G36*
X19400Y41039D02*
X19319Y41025D01*
X19246Y41009D01*
X19180Y40989D01*
X19123Y40966D01*
X19074Y40939D01*
X19033Y40910D01*
X18999Y40877D01*
X18974Y40841D01*
X18957Y40801D01*
X18947Y40758D01*
X18674Y41142D01*
X19202Y41306D01*
X19400Y41039D01*
D02*
G37*
G36*
X3411Y41299D02*
X3313Y41197D01*
X3149Y41002D01*
X3082Y40909D01*
X3026Y40818D01*
X2980Y40730D01*
X2944Y40645D01*
X2919Y40563D01*
X2904Y40483D01*
X2900Y40406D01*
X2306Y41000D01*
X2383Y41004D01*
X2463Y41019D01*
X2545Y41044D01*
X2630Y41080D01*
X2718Y41126D01*
X2809Y41182D01*
X2902Y41249D01*
X2998Y41326D01*
X3199Y41511D01*
X3411Y41299D01*
D02*
G37*
G36*
X11151Y40903D02*
X11397D01*
X11350Y40896D01*
X11308Y40873D01*
X11271Y40836D01*
X11239Y40783D01*
X11212Y40716D01*
X11190Y40633D01*
X11175Y40550D01*
X11190Y40467D01*
X11212Y40384D01*
X11239Y40317D01*
X11271Y40264D01*
X11308Y40227D01*
X11350Y40204D01*
X11397Y40197D01*
X11152D01*
X11150Y40153D01*
X10650D01*
X10649Y40197D01*
X10403D01*
X10450Y40204D01*
X10492Y40227D01*
X10529Y40264D01*
X10561Y40317D01*
X10588Y40384D01*
X10610Y40467D01*
X10625Y40550D01*
X10610Y40633D01*
X10588Y40716D01*
X10561Y40783D01*
X10529Y40836D01*
X10492Y40873D01*
X10450Y40896D01*
X10403Y40903D01*
X10648D01*
X10650Y40947D01*
X11150D01*
X11151Y40903D01*
D02*
G37*
G36*
X9151D02*
X9397D01*
X9350Y40896D01*
X9308Y40873D01*
X9271Y40836D01*
X9239Y40783D01*
X9212Y40716D01*
X9190Y40633D01*
X9175Y40550D01*
X9190Y40467D01*
X9212Y40384D01*
X9239Y40317D01*
X9271Y40264D01*
X9308Y40227D01*
X9350Y40204D01*
X9397Y40197D01*
X9152D01*
X9150Y40153D01*
X8650D01*
X8649Y40197D01*
X8403D01*
X8450Y40204D01*
X8492Y40227D01*
X8529Y40264D01*
X8561Y40317D01*
X8588Y40384D01*
X8610Y40467D01*
X8625Y40550D01*
X8610Y40633D01*
X8588Y40716D01*
X8561Y40783D01*
X8529Y40836D01*
X8492Y40873D01*
X8450Y40896D01*
X8403Y40903D01*
X8648D01*
X8650Y40947D01*
X9150D01*
X9151Y40903D01*
D02*
G37*
G36*
X47106Y40071D02*
X47105Y40075D01*
X47102Y40078D01*
X47097Y40079D01*
X47090Y40077D01*
X47081Y40073D01*
X47070Y40068D01*
X47057Y40060D01*
X47025Y40038D01*
X47006Y40024D01*
X46794Y40236D01*
X47106Y40496D01*
Y40071D01*
D02*
G37*
G36*
X30253Y38903D02*
X30246Y38950D01*
X30223Y38992D01*
X30186Y39029D01*
X30133Y39061D01*
X30066Y39088D01*
X29983Y39110D01*
X29886Y39128D01*
X29877Y39129D01*
X29864Y39128D01*
X29767Y39110D01*
X29684Y39088D01*
X29617Y39061D01*
X29564Y39029D01*
X29527Y38992D01*
X29504Y38950D01*
X29497Y38903D01*
Y39897D01*
X29504Y39850D01*
X29527Y39808D01*
X29564Y39771D01*
X29617Y39739D01*
X29684Y39712D01*
X29767Y39690D01*
X29864Y39672D01*
X29873Y39671D01*
X29886Y39672D01*
X29983Y39690D01*
X30066Y39712D01*
X30133Y39739D01*
X30186Y39771D01*
X30223Y39808D01*
X30246Y39850D01*
X30253Y39897D01*
Y38903D01*
D02*
G37*
G36*
X26851Y39666D02*
X26864Y39521D01*
X26874Y39462D01*
X26888Y39412D01*
X26904Y39371D01*
X26924Y39340D01*
X26946Y39317D01*
X26972Y39303D01*
X27000Y39299D01*
X26400D01*
X26428Y39303D01*
X26454Y39317D01*
X26476Y39340D01*
X26496Y39371D01*
X26513Y39412D01*
X26526Y39462D01*
X26537Y39521D01*
X26544Y39589D01*
X26550Y39752D01*
X26850D01*
X26851Y39666D01*
D02*
G37*
G36*
X9273Y38800D02*
X9247Y38782D01*
X9224Y38752D01*
X9205Y38709D01*
X9188Y38655D01*
X9174Y38588D01*
X9164Y38509D01*
X9152Y38315D01*
X9150Y38200D01*
X9085D01*
X9098Y38170D01*
X9046Y38200D01*
X8650D01*
X8648Y38315D01*
X8626Y38588D01*
X8612Y38655D01*
X8595Y38709D01*
X8576Y38752D01*
X8553Y38782D01*
X8527Y38800D01*
X8498Y38806D01*
X9302D01*
X9273Y38800D01*
D02*
G37*
G36*
X29051Y38906D02*
X29300D01*
X29253Y38899D01*
X29210Y38876D01*
X29173Y38838D01*
X29140Y38786D01*
X29112Y38718D01*
X29090Y38635D01*
X29075Y38550D01*
X29090Y38465D01*
X29112Y38382D01*
X29140Y38314D01*
X29173Y38262D01*
X29210Y38224D01*
X29253Y38201D01*
X29300Y38194D01*
X29052D01*
X29050Y38153D01*
X28550D01*
X28549Y38194D01*
X28300D01*
X28347Y38201D01*
X28390Y38224D01*
X28427Y38262D01*
X28460Y38314D01*
X28487Y38382D01*
X28510Y38465D01*
X28525Y38550D01*
X28510Y38635D01*
X28487Y38718D01*
X28460Y38786D01*
X28427Y38838D01*
X28390Y38876D01*
X28347Y38899D01*
X28300Y38906D01*
X28549D01*
X28550Y38947D01*
X29050D01*
X29051Y38906D01*
D02*
G37*
G36*
X9135Y38150D02*
X9138Y38149D01*
X9140Y38148D01*
X9141Y38146D01*
X9142Y38142D01*
X9142Y38138D01*
X9141Y38132D01*
X9139Y38126D01*
X9136Y38118D01*
X9129Y38100D01*
X9098Y38170D01*
X9135Y38150D01*
D02*
G37*
G36*
X28103Y37956D02*
X28397Y37950D01*
Y37450D01*
X28103Y37445D01*
Y37203D01*
X28096Y37250D01*
X28073Y37292D01*
X28036Y37329D01*
X27983Y37361D01*
X27916Y37388D01*
X27833Y37410D01*
X27736Y37428D01*
X27623Y37440D01*
X27353Y37450D01*
Y37950D01*
X27496Y37952D01*
X27647Y37965D01*
Y38032D01*
X27654Y38016D01*
X27677Y38002D01*
X27714Y37990D01*
X27767Y37979D01*
X27772Y37979D01*
X27833Y37990D01*
X27916Y38012D01*
X27983Y38039D01*
X28036Y38071D01*
X28073Y38108D01*
X28096Y38150D01*
X28103Y38197D01*
Y37956D01*
D02*
G37*
G36*
X20953Y37888D02*
X20998Y37886D01*
X21087Y37885D01*
X21121Y37585D01*
X21032Y37584D01*
X20953Y37578D01*
Y37438D01*
X20949Y37466D01*
X20935Y37491D01*
X20913Y37513D01*
X20881Y37532D01*
X20841Y37548D01*
X20791Y37561D01*
X20780Y37564D01*
X20752Y37559D01*
X20701Y37548D01*
X20657Y37534D01*
X20622Y37519D01*
X20594Y37501D01*
X20573Y37481D01*
X20563Y37583D01*
X20503Y37585D01*
Y37885D01*
X20533Y37886D01*
X20524Y37969D01*
X20548Y37953D01*
X20579Y37939D01*
X20617Y37926D01*
X20662Y37915D01*
X20715Y37906D01*
X20753Y37902D01*
X20791Y37909D01*
X20841Y37922D01*
X20881Y37938D01*
X20913Y37957D01*
X20935Y37979D01*
X20949Y38004D01*
X20953Y38032D01*
Y37888D01*
D02*
G37*
G36*
X6911Y38289D02*
X6952Y38215D01*
X7032Y38090D01*
X7071Y38039D01*
X7110Y37996D01*
X7148Y37961D01*
X7185Y37934D01*
X7222Y37915D01*
X7258Y37903D01*
X7293Y37899D01*
X6616D01*
X6648Y37903D01*
X6672Y37915D01*
X6689Y37936D01*
X6697Y37964D01*
X6697Y38001D01*
X6690Y38046D01*
X6675Y38099D01*
X6651Y38160D01*
X6620Y38229D01*
X6581Y38307D01*
X6911Y38289D01*
D02*
G37*
G36*
X12951Y37874D02*
X12965Y37849D01*
X12987Y37827D01*
X13019Y37808D01*
X13059Y37792D01*
X13109Y37779D01*
X13167Y37768D01*
X13235Y37761D01*
X13397Y37755D01*
Y37455D01*
X13311Y37454D01*
X13167Y37442D01*
X13109Y37431D01*
X13059Y37418D01*
X13019Y37402D01*
X12987Y37383D01*
X12965Y37361D01*
X12951Y37336D01*
X12947Y37308D01*
Y37902D01*
X12951Y37874D01*
D02*
G37*
G36*
X19247Y37843D02*
X19230Y37804D01*
X19221Y37762D01*
X19219Y37715D01*
X19223Y37663D01*
X19235Y37608D01*
X19253Y37548D01*
X19278Y37484D01*
X19310Y37415D01*
X19349Y37342D01*
X19030Y37307D01*
X18794Y37817D01*
X19270Y37877D01*
X19247Y37843D01*
D02*
G37*
G36*
X17951Y38003D02*
X18197D01*
X18150Y37996D01*
X18108Y37973D01*
X18071Y37936D01*
X18039Y37883D01*
X18012Y37816D01*
X17990Y37733D01*
X17975Y37650D01*
X17990Y37567D01*
X18012Y37484D01*
X18039Y37417D01*
X18071Y37364D01*
X18108Y37327D01*
X18150Y37304D01*
X18197Y37297D01*
X17952D01*
X17950Y37253D01*
X17450D01*
X17449Y37297D01*
X17203D01*
X17250Y37304D01*
X17292Y37327D01*
X17329Y37364D01*
X17361Y37417D01*
X17388Y37484D01*
X17410Y37567D01*
X17425Y37650D01*
X17410Y37733D01*
X17388Y37816D01*
X17361Y37883D01*
X17329Y37936D01*
X17292Y37973D01*
X17250Y37996D01*
X17203Y38003D01*
X17448D01*
X17450Y38047D01*
X17950D01*
X17951Y38003D01*
D02*
G37*
G36*
X14550Y37159D02*
X14250Y37159D01*
X14109Y37194D01*
X14615Y37276D01*
X14550Y37159D01*
D02*
G37*
G36*
X30572Y37427D02*
X30602Y37411D01*
X30639Y37397D01*
X30684Y37384D01*
X30736Y37374D01*
X30795Y37365D01*
X30936Y37354D01*
X31106Y37350D01*
Y37050D01*
X31017Y37049D01*
X30795Y37035D01*
X30736Y37026D01*
X30684Y37016D01*
X30639Y37003D01*
X30602Y36989D01*
X30572Y36973D01*
X30550Y36955D01*
Y37445D01*
X30572Y37427D01*
D02*
G37*
G36*
X31690Y36937D02*
X31674Y36958D01*
X31650Y36977D01*
X31618Y36994D01*
X31577Y37009D01*
X31529Y37022D01*
X31472Y37032D01*
X31407Y37040D01*
X31253Y37049D01*
X31164Y37050D01*
X31265Y37350D01*
X31356Y37350D01*
X31767Y37378D01*
X31793Y37386D01*
X31811Y37394D01*
X31690Y36937D01*
D02*
G37*
G36*
X23841Y37152D02*
X23799Y37143D01*
X23759Y37126D01*
X23723Y37101D01*
X23690Y37067D01*
X23661Y37026D01*
X23634Y36977D01*
X23611Y36919D01*
X23591Y36854D01*
X23575Y36781D01*
X23561Y36699D01*
X23294Y36897D01*
X23458Y37426D01*
X23841Y37152D01*
D02*
G37*
G36*
X20956Y36201D02*
X20952Y36223D01*
X20940Y36242D01*
X20920Y36259D01*
X20892Y36274D01*
X20856Y36287D01*
X20813Y36297D01*
X20761Y36305D01*
X20701Y36310D01*
X20557Y36315D01*
Y36615D01*
X20633Y36616D01*
X20761Y36625D01*
X20813Y36633D01*
X20856Y36643D01*
X20892Y36656D01*
X20920Y36671D01*
X20940Y36688D01*
X20952Y36707D01*
X20956Y36729D01*
Y36201D01*
D02*
G37*
G36*
X14627Y36728D02*
X14611Y36698D01*
X14597Y36661D01*
X14584Y36616D01*
X14574Y36564D01*
X14565Y36505D01*
X14554Y36364D01*
X14550Y36194D01*
X14250D01*
X14249Y36283D01*
X14235Y36505D01*
X14226Y36564D01*
X14216Y36616D01*
X14203Y36661D01*
X14189Y36698D01*
X14173Y36728D01*
X14155Y36750D01*
X14645D01*
X14627Y36728D01*
D02*
G37*
G36*
X25753Y36168D02*
X25746Y36177D01*
X25723Y36185D01*
X25686Y36192D01*
X25633Y36198D01*
X25483Y36207D01*
X25003Y36215D01*
Y36715D01*
X25146Y36715D01*
X25746Y36753D01*
X25753Y36762D01*
Y36168D01*
D02*
G37*
G36*
X11053Y36038D02*
X11046Y36047D01*
X11023Y36055D01*
X10986Y36062D01*
X10933Y36068D01*
X10783Y36077D01*
X10303Y36085D01*
Y36585D01*
X10446Y36585D01*
X11046Y36623D01*
X11053Y36632D01*
Y36038D01*
D02*
G37*
G36*
X8154Y36623D02*
X8174Y36615D01*
X8207Y36608D01*
X8254Y36602D01*
X8388Y36593D01*
X8816Y36585D01*
Y36085D01*
X8688Y36085D01*
X8174Y36055D01*
X8154Y36047D01*
X8147Y36038D01*
Y36632D01*
X8154Y36623D01*
D02*
G37*
G36*
X1127Y36528D02*
X1111Y36498D01*
X1097Y36461D01*
X1084Y36416D01*
X1074Y36364D01*
X1065Y36305D01*
X1054Y36164D01*
X1050Y35994D01*
X750D01*
X749Y36083D01*
X735Y36305D01*
X726Y36364D01*
X716Y36416D01*
X703Y36461D01*
X689Y36498D01*
X673Y36528D01*
X655Y36550D01*
X1145D01*
X1127Y36528D01*
D02*
G37*
G36*
X18150Y35896D02*
X18108Y35873D01*
X18071Y35836D01*
X18039Y35783D01*
X18012Y35716D01*
X17990Y35633D01*
X17972Y35536D01*
X17960Y35423D01*
X17950Y35153D01*
X17450D01*
X17448Y35296D01*
X17428Y35536D01*
X17410Y35633D01*
X17388Y35716D01*
X17361Y35783D01*
X17329Y35836D01*
X17292Y35873D01*
X17250Y35896D01*
X17203Y35903D01*
X18197D01*
X18150Y35896D01*
D02*
G37*
G36*
X20953Y34898D02*
X20948Y34908D01*
X20931Y34917D01*
X20903Y34925D01*
X20865Y34931D01*
X20815Y34937D01*
X20599Y34948D01*
X20400Y34950D01*
Y35450D01*
X20505Y35450D01*
X20931Y35477D01*
X20948Y35484D01*
X20953Y35492D01*
Y34898D01*
D02*
G37*
G36*
X28884Y35203D02*
X28839Y35193D01*
X28791Y35177D01*
X28742Y35154D01*
X28690Y35125D01*
X28636Y35090D01*
X28579Y35048D01*
X28460Y34946D01*
X28397Y34885D01*
X27973D01*
X27997Y34911D01*
X28020Y34939D01*
X28039Y34968D01*
X28056Y34998D01*
X28070Y35030D01*
X28082Y35062D01*
X28091Y35096D01*
X28098Y35130D01*
X28102Y35166D01*
X28103Y35203D01*
X28927Y35206D01*
X28884Y35203D01*
D02*
G37*
G36*
X25755Y35140D02*
X25921Y34958D01*
X25877Y34943D01*
X25838Y34928D01*
X25803Y34911D01*
X25772Y34894D01*
X25746Y34875D01*
X25725Y34856D01*
X25708Y34836D01*
X25696Y34815D01*
X25688Y34794D01*
X25685Y34771D01*
X25655Y34804D01*
X25591Y34759D01*
X25309Y35041D01*
X25390Y35098D01*
X25356Y35135D01*
X25575Y35244D01*
X25738Y35373D01*
X25752Y35392D01*
X25756Y35405D01*
X25755Y35140D01*
D02*
G37*
G36*
X12951Y35334D02*
X12965Y35309D01*
X12987Y35287D01*
X13019Y35268D01*
X13059Y35252D01*
X13109Y35239D01*
X13167Y35228D01*
X13235Y35221D01*
X13397Y35215D01*
Y34915D01*
X13311Y34914D01*
X13167Y34902D01*
X13109Y34891D01*
X13059Y34878D01*
X13019Y34862D01*
X12987Y34843D01*
X12965Y34821D01*
X12951Y34796D01*
X12947Y34768D01*
Y35362D01*
X12951Y35334D01*
D02*
G37*
G36*
X6253Y34768D02*
X6249Y34796D01*
X6235Y34821D01*
X6213Y34843D01*
X6181Y34862D01*
X6141Y34878D01*
X6091Y34891D01*
X6033Y34902D01*
X5965Y34909D01*
X5803Y34915D01*
Y35215D01*
X5889Y35216D01*
X6033Y35228D01*
X6091Y35238D01*
X6141Y35252D01*
X6181Y35268D01*
X6213Y35287D01*
X6235Y35309D01*
X6249Y35334D01*
X6253Y35362D01*
Y34768D01*
D02*
G37*
G36*
X49427Y34828D02*
X49411Y34798D01*
X49397Y34761D01*
X49384Y34716D01*
X49374Y34664D01*
X49365Y34605D01*
X49354Y34464D01*
X49350Y34294D01*
X49050D01*
X49049Y34383D01*
X49035Y34605D01*
X49026Y34664D01*
X49016Y34716D01*
X49003Y34761D01*
X48989Y34798D01*
X48973Y34828D01*
X48955Y34850D01*
X49445D01*
X49427Y34828D01*
D02*
G37*
G36*
X2453Y35080D02*
X2474Y34826D01*
X2493Y34713D01*
X2517Y34609D01*
X2547Y34514D01*
X2582Y34429D01*
X2623Y34353D01*
X2669Y34286D01*
X2720Y34228D01*
X1880D01*
X1931Y34286D01*
X1977Y34353D01*
X2018Y34429D01*
X2053Y34514D01*
X2082Y34609D01*
X2107Y34713D01*
X2126Y34826D01*
X2139Y34948D01*
X2150Y35221D01*
X2450D01*
X2453Y35080D01*
D02*
G37*
G36*
X33553Y34868D02*
X33563Y34836D01*
X33579Y34799D01*
X33602Y34759D01*
X33631Y34715D01*
X33667Y34667D01*
X33758Y34559D01*
X33876Y34436D01*
X33664Y34224D01*
X33600Y34286D01*
X33433Y34433D01*
X33385Y34469D01*
X33341Y34498D01*
X33301Y34521D01*
X33264Y34537D01*
X33232Y34547D01*
X33203Y34550D01*
X33550Y34896D01*
X33553Y34868D01*
D02*
G37*
G36*
X24327Y34704D02*
X24347Y34463D01*
X24365Y34365D01*
X24388Y34282D01*
X24415Y34214D01*
X24448Y34162D01*
X24485Y34124D01*
X24528Y34101D01*
X24575Y34094D01*
X23575D01*
X23622Y34101D01*
X23665Y34124D01*
X23702Y34162D01*
X23735Y34214D01*
X23763Y34282D01*
X23785Y34365D01*
X23802Y34463D01*
X23815Y34576D01*
X23825Y34847D01*
X24325D01*
X24327Y34704D01*
D02*
G37*
G36*
X47025Y34093D02*
X47081Y34060D01*
X47090Y34056D01*
X47097Y34054D01*
X47102Y34054D01*
X47105Y34056D01*
X47106Y34060D01*
Y33660D01*
X47103Y33666D01*
X47094Y33675D01*
X47078Y33689D01*
X47028Y33728D01*
X46794Y33894D01*
X47006Y34106D01*
X47025Y34093D01*
D02*
G37*
G36*
X28153Y33100D02*
X28149Y33129D01*
X28135Y33154D01*
X28113Y33176D01*
X28081Y33196D01*
X28041Y33213D01*
X27991Y33226D01*
X27933Y33236D01*
X27865Y33244D01*
X27703Y33250D01*
Y33550D01*
X27789Y33551D01*
X27933Y33563D01*
X27991Y33574D01*
X28041Y33588D01*
X28081Y33604D01*
X28113Y33624D01*
X28135Y33646D01*
X28149Y33672D01*
X28153Y33700D01*
Y33100D01*
D02*
G37*
G36*
X26448Y33672D02*
X26462Y33646D01*
X26485Y33624D01*
X26516Y33604D01*
X26557Y33588D01*
X26607Y33574D01*
X26666Y33563D01*
X26734Y33556D01*
X26897Y33550D01*
Y33250D01*
X26811Y33249D01*
X26666Y33236D01*
X26607Y33226D01*
X26557Y33213D01*
X26516Y33196D01*
X26485Y33176D01*
X26462Y33154D01*
X26448Y33129D01*
X26444Y33100D01*
Y33700D01*
X26448Y33672D01*
D02*
G37*
G36*
X28947Y32702D02*
X28921Y32688D01*
X28899Y32665D01*
X28879Y32634D01*
X28862Y32593D01*
X28849Y32543D01*
X28838Y32484D01*
X28831Y32416D01*
X28828Y32341D01*
X28838Y32217D01*
X28849Y32159D01*
X28862Y32109D01*
X28879Y32069D01*
X28899Y32037D01*
X28921Y32015D01*
X28947Y32001D01*
X28975Y31997D01*
X28375D01*
X28403Y32001D01*
X28429Y32015D01*
X28451Y32037D01*
X28471Y32069D01*
X28487Y32109D01*
X28501Y32159D01*
X28511Y32217D01*
X28519Y32285D01*
X28522Y32360D01*
X28511Y32484D01*
X28501Y32543D01*
X28487Y32593D01*
X28471Y32634D01*
X28451Y32665D01*
X28429Y32688D01*
X28403Y32702D01*
X28375Y32706D01*
X28975D01*
X28947Y32702D01*
D02*
G37*
G36*
X30776Y32706D02*
X31025D01*
X30978Y32699D01*
X30935Y32676D01*
X30897Y32638D01*
X30865Y32586D01*
X30837Y32518D01*
X30815Y32435D01*
X30800Y32351D01*
X30815Y32267D01*
X30837Y32184D01*
X30865Y32117D01*
X30897Y32064D01*
X30935Y32027D01*
X30978Y32004D01*
X31025Y31997D01*
X30777D01*
X30775Y31953D01*
X30275D01*
X30274Y31997D01*
X30103D01*
X30136Y32004D01*
X30165Y32027D01*
X30191Y32064D01*
X30213Y32117D01*
X30232Y32184D01*
X30247Y32267D01*
X30254Y32319D01*
X30253Y32337D01*
X30235Y32435D01*
X30212Y32518D01*
X30185Y32586D01*
X30153Y32638D01*
X30115Y32676D01*
X30073Y32699D01*
X30025Y32706D01*
X30275D01*
X30275Y32747D01*
X30775D01*
X30776Y32706D01*
D02*
G37*
G36*
X43541Y31959D02*
X43524Y31927D01*
X43488Y31853D01*
X43482Y31835D01*
X43479Y31820D01*
X43478Y31809D01*
X43481Y31800D01*
X43486Y31796D01*
X43494Y31794D01*
X42954D01*
X42965Y31798D01*
X42981Y31812D01*
X43000Y31834D01*
X43024Y31866D01*
X43085Y31955D01*
X43259Y32241D01*
X43541Y31959D01*
D02*
G37*
G36*
X42506Y30900D02*
X42500Y30938D01*
X42482Y30972D01*
X42452Y31002D01*
X42410Y31028D01*
X42355Y31050D01*
X42289Y31068D01*
X42211Y31082D01*
X42120Y31092D01*
X42114Y31092D01*
X41991Y31082D01*
X41913Y31068D01*
X41847Y31050D01*
X41793Y31028D01*
X41751Y31002D01*
X41721Y30972D01*
X41703Y30938D01*
X41697Y30900D01*
Y31700D01*
X41703Y31662D01*
X41721Y31628D01*
X41751Y31598D01*
X41793Y31572D01*
X41847Y31550D01*
X41913Y31532D01*
X41991Y31518D01*
X42081Y31508D01*
X42087Y31508D01*
X42211Y31518D01*
X42289Y31532D01*
X42355Y31550D01*
X42410Y31572D01*
X42452Y31598D01*
X42482Y31628D01*
X42500Y31662D01*
X42506Y31700D01*
Y30900D01*
D02*
G37*
G36*
X29958Y31807D02*
X30040Y31758D01*
X30060Y31749D01*
X30077Y31744D01*
X30090Y31742D01*
X30099Y31744D01*
X30104Y31749D01*
X30106Y31758D01*
Y31056D01*
X30101Y31069D01*
X30085Y31089D01*
X30058Y31115D01*
X30020Y31147D01*
X29843Y31283D01*
X29570Y31476D01*
X29923Y31830D01*
X29958Y31807D01*
D02*
G37*
G36*
X16803Y30553D02*
X16799Y30562D01*
X16785Y30570D01*
X16763Y30577D01*
X16731Y30583D01*
X16691Y30588D01*
X16583Y30596D01*
X16353Y30600D01*
Y30900D01*
X16439Y30900D01*
X16763Y30923D01*
X16785Y30930D01*
X16799Y30938D01*
X16803Y30947D01*
Y30553D01*
D02*
G37*
G36*
X10603Y30553D02*
X10599Y30562D01*
X10585Y30570D01*
X10563Y30577D01*
X10531Y30583D01*
X10491Y30588D01*
X10383Y30596D01*
X10153Y30600D01*
Y30900D01*
X10239Y30900D01*
X10563Y30923D01*
X10585Y30930D01*
X10599Y30938D01*
X10603Y30947D01*
Y30553D01*
D02*
G37*
G36*
X31851Y31017D02*
X31865Y30795D01*
X31874Y30736D01*
X31884Y30684D01*
X31897Y30639D01*
X31911Y30602D01*
X31927Y30572D01*
X31945Y30550D01*
X31455D01*
X31473Y30572D01*
X31489Y30602D01*
X31503Y30639D01*
X31516Y30684D01*
X31526Y30736D01*
X31535Y30795D01*
X31546Y30936D01*
X31550Y31106D01*
X31850D01*
X31851Y31017D01*
D02*
G37*
G36*
X28751Y30917D02*
X28765Y30695D01*
X28774Y30636D01*
X28780Y30606D01*
X28869D01*
X28846Y30602D01*
X28826Y30590D01*
X28808Y30570D01*
X28795Y30545D01*
X28797Y30539D01*
X28811Y30502D01*
X28827Y30472D01*
X28845Y30450D01*
X28767D01*
X28761Y30407D01*
X28755Y30346D01*
X28750Y30200D01*
X28450D01*
X28449Y30277D01*
X28439Y30407D01*
X28433Y30450D01*
X28355D01*
X28373Y30472D01*
X28389Y30502D01*
X28403Y30539D01*
X28405Y30545D01*
X28392Y30570D01*
X28374Y30590D01*
X28354Y30602D01*
X28331Y30606D01*
X28420D01*
X28426Y30636D01*
X28435Y30695D01*
X28446Y30836D01*
X28450Y31006D01*
X28750D01*
X28751Y30917D01*
D02*
G37*
G36*
X32503Y29903D02*
X32500Y29912D01*
X32490Y29920D01*
X32474Y29927D01*
X32452Y29933D01*
X32423Y29938D01*
X32388Y29942D01*
X32298Y29948D01*
X32183Y29950D01*
Y30250D01*
X32244Y30250D01*
X32423Y30262D01*
X32452Y30267D01*
X32474Y30273D01*
X32490Y30280D01*
X32500Y30288D01*
X32503Y30297D01*
Y29903D01*
D02*
G37*
G36*
X34351Y30317D02*
X34365Y30095D01*
X34374Y30036D01*
X34384Y29984D01*
X34397Y29939D01*
X34411Y29902D01*
X34427Y29872D01*
X34445Y29850D01*
X33955D01*
X33973Y29872D01*
X33989Y29902D01*
X34003Y29939D01*
X34016Y29984D01*
X34026Y30036D01*
X34035Y30095D01*
X34046Y30236D01*
X34050Y30406D01*
X34350D01*
X34351Y30317D01*
D02*
G37*
G36*
X3151Y30117D02*
X3165Y29895D01*
X3174Y29836D01*
X3184Y29784D01*
X3197Y29739D01*
X3211Y29702D01*
X3227Y29672D01*
X3245Y29650D01*
X2755D01*
X2773Y29672D01*
X2789Y29702D01*
X2803Y29739D01*
X2816Y29784D01*
X2826Y29836D01*
X2835Y29895D01*
X2846Y30036D01*
X2850Y30206D01*
X3150D01*
X3151Y30117D01*
D02*
G37*
G36*
X42506Y29512D02*
X42561Y29507D01*
X42785Y29500D01*
X42877Y29500D01*
Y29100D01*
X42785Y29100D01*
X42506Y29083D01*
Y28965D01*
X42501Y28990D01*
X42486Y29013D01*
X42461Y29034D01*
X42425Y29051D01*
X42380Y29066D01*
X42374Y29067D01*
X42363Y29064D01*
X42350Y29055D01*
Y29073D01*
X42324Y29078D01*
X42258Y29088D01*
X42182Y29095D01*
X42000Y29100D01*
Y29500D01*
X42096Y29501D01*
X42258Y29512D01*
X42324Y29522D01*
X42350Y29527D01*
Y29545D01*
X42363Y29536D01*
X42374Y29533D01*
X42380Y29534D01*
X42425Y29549D01*
X42461Y29566D01*
X42486Y29587D01*
X42501Y29610D01*
X42506Y29635D01*
Y29512D01*
D02*
G37*
G36*
X24257Y30126D02*
X24534Y29880D01*
X24560Y29863D01*
X24581Y29853D01*
X24597Y29850D01*
X24250Y29503D01*
X24247Y29519D01*
X24237Y29540D01*
X24220Y29566D01*
X24196Y29598D01*
X24128Y29679D01*
X23974Y29843D01*
X23909Y29908D01*
X24192Y30191D01*
X24257Y30126D01*
D02*
G37*
G36*
X23177Y29323D02*
X23112Y29257D01*
X22932Y29053D01*
X22906Y29016D01*
X22889Y28986D01*
X22879Y28961D01*
X22878Y28942D01*
X22884Y28929D01*
X22429Y29384D01*
X22442Y29378D01*
X22461Y29379D01*
X22486Y29389D01*
X22516Y29406D01*
X22553Y29432D01*
X22595Y29465D01*
X22697Y29555D01*
X22823Y29677D01*
X23177Y29323D01*
D02*
G37*
G36*
X45527Y30028D02*
X45511Y29998D01*
X45497Y29961D01*
X45484Y29916D01*
X45474Y29864D01*
X45465Y29805D01*
X45454Y29664D01*
X45452Y29600D01*
X45464Y29466D01*
X45474Y29407D01*
X45487Y29357D01*
X45504Y29316D01*
X45523Y29285D01*
X45546Y29262D01*
X45571Y29248D01*
X45600Y29244D01*
X45000D01*
X45028Y29248D01*
X45054Y29262D01*
X45076Y29285D01*
X45096Y29316D01*
X45112Y29357D01*
X45126Y29407D01*
X45137Y29466D01*
X45144Y29534D01*
X45147Y29615D01*
X45135Y29805D01*
X45126Y29864D01*
X45116Y29916D01*
X45103Y29961D01*
X45089Y29998D01*
X45073Y30028D01*
X45055Y30050D01*
X45545D01*
X45527Y30028D01*
D02*
G37*
G36*
X47727Y29728D02*
X47711Y29698D01*
X47697Y29661D01*
X47684Y29616D01*
X47674Y29564D01*
X47665Y29505D01*
X47663Y29475D01*
X47664Y29466D01*
X47674Y29407D01*
X47688Y29357D01*
X47704Y29316D01*
X47723Y29285D01*
X47746Y29262D01*
X47771Y29248D01*
X47800Y29244D01*
X47651D01*
X47650Y29194D01*
X47350D01*
X47349Y29244D01*
X47200D01*
X47229Y29248D01*
X47254Y29262D01*
X47277Y29285D01*
X47296Y29316D01*
X47312Y29357D01*
X47326Y29407D01*
X47336Y29466D01*
X47337Y29471D01*
X47335Y29505D01*
X47326Y29564D01*
X47316Y29616D01*
X47303Y29661D01*
X47289Y29698D01*
X47273Y29728D01*
X47255Y29750D01*
X47745D01*
X47727Y29728D01*
D02*
G37*
G36*
X41850Y29501D02*
X42000Y29500D01*
Y29100D01*
X41850Y29099D01*
Y29055D01*
X41837Y29064D01*
X41815Y29071D01*
X41784Y29078D01*
X41745Y29084D01*
X41639Y29093D01*
X41415Y29100D01*
X41323Y29100D01*
X41323Y29500D01*
X41415Y29500D01*
X41784Y29522D01*
X41815Y29529D01*
X41837Y29536D01*
X41850Y29545D01*
Y29501D01*
D02*
G37*
G36*
X40306Y29050D02*
X40300Y29088D01*
X40282Y29122D01*
X40251Y29152D01*
X40209Y29178D01*
X40155Y29200D01*
X40089Y29218D01*
X40010Y29232D01*
X39920Y29242D01*
X39703Y29250D01*
Y29650D01*
X39817Y29651D01*
X40087Y29674D01*
X40153Y29687D01*
X40207Y29703D01*
X40249Y29722D01*
X40279Y29744D01*
X40297Y29769D01*
X40303Y29797D01*
X40306Y29050D01*
D02*
G37*
G36*
X18395Y28879D02*
X18320Y28834D01*
X18013Y28627D01*
X18001Y28613D01*
X17997Y28603D01*
X17729Y28994D01*
X17747Y28976D01*
X17773Y28966D01*
X17807Y28963D01*
X17847Y28968D01*
X17896Y28980D01*
X17951Y28999D01*
X18015Y29026D01*
X18163Y29102D01*
X18249Y29151D01*
X18395Y28879D01*
D02*
G37*
G36*
X9307Y28894D02*
X8706Y28693D01*
X8710Y28698D01*
X8706Y28710D01*
X8696Y28728D01*
X8678Y28751D01*
X8653Y28781D01*
X8536Y28908D01*
X8423Y29023D01*
X8777Y29377D01*
X9307Y28894D01*
D02*
G37*
G36*
X32503Y28997D02*
Y28603D01*
X32499Y28611D01*
X32486Y28621D01*
X32465Y28633D01*
X32435Y28648D01*
X32349Y28685D01*
X32075Y28786D01*
X32093Y29130D01*
X32503Y28997D01*
D02*
G37*
G36*
X3151Y29150D02*
X3245D01*
X3227Y29128D01*
X3211Y29098D01*
X3197Y29061D01*
X3184Y29016D01*
X3174Y28964D01*
X3169Y28934D01*
X3174Y28909D01*
X3188Y28859D01*
X3204Y28819D01*
X3224Y28787D01*
X3246Y28765D01*
X3272Y28751D01*
X3300Y28747D01*
X3153D01*
X3150Y28594D01*
X2850D01*
X2849Y28683D01*
X2845Y28747D01*
X2700D01*
X2728Y28751D01*
X2754Y28765D01*
X2776Y28787D01*
X2796Y28819D01*
X2812Y28859D01*
X2826Y28909D01*
X2831Y28934D01*
X2826Y28964D01*
X2816Y29016D01*
X2803Y29061D01*
X2789Y29098D01*
X2773Y29128D01*
X2755Y29150D01*
X2848D01*
X2850Y29197D01*
X3150D01*
X3151Y29150D01*
D02*
G37*
G36*
X5351Y29080D02*
X5361Y28949D01*
X5368Y28909D01*
X5445D01*
X5427Y28886D01*
X5411Y28857D01*
X5397Y28819D01*
X5395Y28813D01*
X5395Y28813D01*
X5411Y28784D01*
X5430Y28763D01*
X5451Y28751D01*
X5474Y28747D01*
X5379D01*
X5374Y28723D01*
X5365Y28664D01*
X5354Y28523D01*
X5350Y28352D01*
X5050D01*
X5049Y28441D01*
X5035Y28664D01*
X5026Y28723D01*
X5021Y28747D01*
X4926D01*
X4949Y28751D01*
X4970Y28763D01*
X4989Y28784D01*
X5005Y28813D01*
X5005Y28813D01*
X5003Y28819D01*
X4989Y28857D01*
X4973Y28886D01*
X4955Y28909D01*
X5032D01*
X5039Y28949D01*
X5045Y29010D01*
X5050Y29159D01*
X5350D01*
X5351Y29080D01*
D02*
G37*
G36*
X20162Y28758D02*
X20179Y28772D01*
X20343Y28926D01*
X20408Y28991D01*
X20691Y28708D01*
X20626Y28643D01*
X20380Y28366D01*
X20363Y28340D01*
X20353Y28319D01*
X20353Y28317D01*
X20454Y28230D01*
X20507Y28193D01*
X20555Y28167D01*
X20596Y28151D01*
X20630Y28144D01*
X20659Y28148D01*
X20681Y28162D01*
X20138Y27619D01*
X20152Y27641D01*
X20156Y27670D01*
X20149Y27704D01*
X20133Y27745D01*
X20107Y27793D01*
X20070Y27846D01*
X20023Y27906D01*
X19985Y27949D01*
X19968Y27947D01*
X19935Y27937D01*
X19899Y27921D01*
X19859Y27898D01*
X19815Y27869D01*
X19767Y27833D01*
X19659Y27742D01*
X19536Y27624D01*
X19324Y27836D01*
X19386Y27900D01*
X19533Y28067D01*
X19569Y28115D01*
X19598Y28159D01*
X19621Y28199D01*
X19637Y28236D01*
X19647Y28268D01*
X19650Y28297D01*
X19823Y28123D01*
X20122Y28422D01*
X19842D01*
X19843Y28426D01*
X19845Y28432D01*
X19846Y28441D01*
X19848Y28463D01*
X19810D01*
X19818Y28472D01*
X19825Y28482D01*
X19831Y28492D01*
X19836Y28503D01*
X19840Y28514D01*
X19844Y28526D01*
X19846Y28538D01*
X19848Y28550D01*
X19753Y28548D01*
X19781Y28581D01*
X19802Y28616D01*
X19817Y28654D01*
X19825Y28696D01*
X19827Y28740D01*
X19822Y28788D01*
X19810Y28838D01*
X19792Y28891D01*
X19768Y28948D01*
X19736Y29007D01*
X20064Y29016D01*
X20162Y28758D01*
D02*
G37*
G36*
X39901Y28338D02*
X39915Y28330D01*
X39937Y28323D01*
X39969Y28317D01*
X40009Y28312D01*
X40117Y28304D01*
X40347Y28300D01*
Y28000D01*
X40261Y28000D01*
X39937Y27977D01*
X39915Y27970D01*
X39901Y27962D01*
X39897Y27953D01*
Y28347D01*
X39901Y28338D01*
D02*
G37*
G36*
X18001Y28338D02*
X18015Y28330D01*
X18037Y28323D01*
X18069Y28317D01*
X18109Y28312D01*
X18217Y28304D01*
X18447Y28300D01*
Y28000D01*
X18361Y28000D01*
X18037Y27977D01*
X18015Y27970D01*
X18001Y27962D01*
X17997Y27953D01*
Y28347D01*
X18001Y28338D01*
D02*
G37*
G36*
X31246Y28657D02*
X31244Y28631D01*
X31251Y28599D01*
X31267Y28560D01*
X31293Y28516D01*
X31329Y28465D01*
X31374Y28409D01*
X31493Y28276D01*
X31567Y28201D01*
X31213Y27847D01*
X31138Y27921D01*
X30949Y28085D01*
X30898Y28121D01*
X30854Y28147D01*
X30816Y28164D01*
X30783Y28171D01*
X30757Y28168D01*
X30738Y28156D01*
X31258Y28676D01*
X31246Y28657D01*
D02*
G37*
G36*
X7903Y27902D02*
X7900Y27890D01*
X7900Y27870D01*
X7901Y27841D01*
X7910Y27760D01*
X7950Y27500D01*
X7450D01*
X7436Y27577D01*
X7360Y27902D01*
X7354Y27906D01*
X7907D01*
X7903Y27902D01*
D02*
G37*
G36*
X16672Y27727D02*
X16702Y27711D01*
X16739Y27697D01*
X16784Y27684D01*
X16791Y27683D01*
X16799Y27688D01*
X16803Y27697D01*
Y27680D01*
X16836Y27674D01*
X16895Y27665D01*
X17036Y27654D01*
X17206Y27650D01*
Y27350D01*
X17117Y27349D01*
X16895Y27335D01*
X16836Y27326D01*
X16803Y27320D01*
Y27303D01*
X16799Y27312D01*
X16791Y27317D01*
X16784Y27316D01*
X16739Y27303D01*
X16702Y27289D01*
X16672Y27273D01*
X16650Y27255D01*
Y27342D01*
X16606Y27346D01*
X16400Y27350D01*
Y27650D01*
X16477Y27650D01*
X16650Y27661D01*
Y27745D01*
X16672Y27727D01*
D02*
G37*
G36*
X29779Y27191D02*
X29770Y27163D01*
X29770Y27131D01*
X29779Y27095D01*
X29796Y27055D01*
X29822Y27010D01*
X29848Y26973D01*
X29891Y26941D01*
X29935Y26912D01*
X29975Y26889D01*
X30011Y26873D01*
X30044Y26863D01*
X30072Y26860D01*
X30005Y26793D01*
X30010Y26788D01*
X29798Y26576D01*
X29793Y26581D01*
X29726Y26514D01*
X29723Y26542D01*
X29713Y26575D01*
X29697Y26611D01*
X29674Y26651D01*
X29645Y26695D01*
X29613Y26738D01*
X29576Y26764D01*
X29531Y26790D01*
X29491Y26807D01*
X29454Y26815D01*
X29422Y26815D01*
X29395Y26807D01*
X29371Y26790D01*
X29476Y26894D01*
X29400Y26974D01*
X29612Y27186D01*
X29675Y27124D01*
X29691Y27110D01*
X29796Y27214D01*
X29779Y27191D01*
D02*
G37*
G36*
X44606Y27025D02*
X44606Y27025D01*
X44606Y26725D01*
X44606Y26725D01*
Y26575D01*
X44602Y26604D01*
X44588Y26629D01*
X44565Y26652D01*
X44534Y26671D01*
X44493Y26688D01*
X44443Y26701D01*
X44384Y26712D01*
X44361Y26714D01*
X44295Y26710D01*
X44236Y26701D01*
X44184Y26691D01*
X44139Y26678D01*
X44102Y26664D01*
X44072Y26648D01*
X44050Y26630D01*
X44050Y27120D01*
X44072Y27102D01*
X44102Y27086D01*
X44139Y27072D01*
X44184Y27059D01*
X44236Y27049D01*
X44295Y27040D01*
X44350Y27036D01*
X44384Y27038D01*
X44443Y27049D01*
X44493Y27062D01*
X44534Y27079D01*
X44565Y27098D01*
X44588Y27121D01*
X44602Y27146D01*
X44606Y27175D01*
Y27025D01*
D02*
G37*
G36*
X32503Y26653D02*
X32499Y26662D01*
X32485Y26670D01*
X32463Y26677D01*
X32431Y26683D01*
X32391Y26688D01*
X32283Y26696D01*
X32053Y26700D01*
Y27000D01*
X32139Y27000D01*
X32463Y27023D01*
X32485Y27030D01*
X32499Y27038D01*
X32503Y27047D01*
Y26653D01*
D02*
G37*
G36*
X18430Y26867D02*
X18348Y26842D01*
X18105Y26750D01*
X18066Y26729D01*
X18036Y26708D01*
X18014Y26689D01*
X18001Y26671D01*
X17997Y26653D01*
Y27047D01*
X17994Y27048D01*
X18001Y27052D01*
X18017Y27059D01*
X18124Y27094D01*
X18399Y27177D01*
X18430Y26867D01*
D02*
G37*
G36*
X23901Y26819D02*
X23882Y26819D01*
X23865Y26813D01*
X23850Y26802D01*
X23836Y26785D01*
X23825Y26762D01*
X23816Y26734D01*
X23809Y26700D01*
X23804Y26661D01*
X23801Y26616D01*
X23800Y26565D01*
X23604Y26655D01*
X23651Y26982D01*
X23901Y26819D01*
D02*
G37*
G36*
X8703Y25903D02*
X8697Y25940D01*
X8679Y25974D01*
X8649Y26003D01*
X8607Y26029D01*
X8553Y26051D01*
X8487Y26068D01*
X8409Y26082D01*
X8358Y26088D01*
X8291Y26082D01*
X8213Y26068D01*
X8147Y26051D01*
X8093Y26029D01*
X8051Y26003D01*
X8021Y25974D01*
X8003Y25940D01*
X7997Y25903D01*
X7994Y26700D01*
X8000Y26662D01*
X8018Y26628D01*
X8049Y26598D01*
X8091Y26572D01*
X8145Y26550D01*
X8211Y26532D01*
X8290Y26518D01*
X8341Y26512D01*
X8409Y26518D01*
X8487Y26532D01*
X8553Y26550D01*
X8607Y26572D01*
X8649Y26598D01*
X8679Y26628D01*
X8697Y26662D01*
X8703Y26700D01*
Y25903D01*
D02*
G37*
G36*
X6652Y27232D02*
X6723Y27170D01*
X6750Y27197D01*
X6753Y27181D01*
X6763Y27160D01*
X6780Y27134D01*
X6804Y27102D01*
X6813Y27091D01*
X6984Y26941D01*
X7027Y26914D01*
X7062Y26897D01*
X7088Y26890D01*
X7107Y26894D01*
X7034Y26850D01*
X7091Y26792D01*
X6808Y26509D01*
X6743Y26574D01*
X6675Y26634D01*
X6606Y26593D01*
X6616Y26606D01*
X6616Y26626D01*
X6606Y26653D01*
X6586Y26689D01*
X6556Y26731D01*
X6534Y26759D01*
X6466Y26820D01*
X6440Y26837D01*
X6419Y26847D01*
X6404Y26850D01*
X6431Y26878D01*
X6407Y26905D01*
X6259Y27059D01*
X6562Y27321D01*
X6652Y27232D01*
D02*
G37*
G36*
X10681Y26649D02*
X10570Y26627D01*
X10382Y26576D01*
X10306Y26547D01*
X10241Y26517D01*
X10188Y26484D01*
X10147Y26450D01*
X10118Y26414D01*
X10100Y26376D01*
X10094Y26336D01*
X10097Y26897D01*
X10101Y26910D01*
X10114Y26923D01*
X10136Y26937D01*
X10166Y26951D01*
X10204Y26965D01*
X10251Y26979D01*
X10371Y27009D01*
X10526Y27040D01*
X10681Y26649D01*
D02*
G37*
G36*
X41815Y26510D02*
X41884Y26478D01*
X41948Y26453D01*
X42008Y26435D01*
X42063Y26423D01*
X42115Y26419D01*
X42162Y26421D01*
X42204Y26430D01*
X42243Y26447D01*
X42277Y26470D01*
X42217Y25994D01*
X41707Y26230D01*
X41742Y26549D01*
X41815Y26510D01*
D02*
G37*
G36*
X47650Y26548D02*
X47651Y26459D01*
X47658Y26353D01*
X47800D01*
X47771Y26349D01*
X47746Y26335D01*
X47723Y26313D01*
X47704Y26281D01*
X47688Y26241D01*
X47674Y26191D01*
X47673Y26184D01*
X47674Y26177D01*
X47684Y26125D01*
X47697Y26081D01*
X47711Y26043D01*
X47727Y26014D01*
X47745Y25991D01*
X47653Y25991D01*
X47650Y25903D01*
X47350D01*
X47348Y25989D01*
X47348Y25991D01*
X47255Y25991D01*
X47273Y26014D01*
X47289Y26043D01*
X47303Y26081D01*
X47316Y26125D01*
X47326Y26177D01*
X47327Y26184D01*
X47326Y26191D01*
X47312Y26241D01*
X47296Y26281D01*
X47277Y26313D01*
X47254Y26335D01*
X47229Y26349D01*
X47200Y26353D01*
X47344D01*
X47346Y26377D01*
X47350Y26548D01*
X47650Y26548D01*
D02*
G37*
G36*
X21566Y26077D02*
X21183Y25968D01*
X20995Y26250D01*
X21063Y26253D01*
X21179Y26265D01*
X21225Y26275D01*
X21265Y26287D01*
X21296Y26302D01*
X21321Y26318D01*
X21338Y26337D01*
X21348Y26359D01*
X21350Y26383D01*
X21566Y26077D01*
D02*
G37*
G36*
X28566Y25975D02*
X28561Y25953D01*
X28566Y25931D01*
X28581Y25908D01*
X28607Y25884D01*
X28643Y25859D01*
X28689Y25834D01*
X28693Y25832D01*
X28706Y25835D01*
X28746Y25851D01*
X28782Y25874D01*
X28770Y25799D01*
X28890Y25755D01*
X28735Y25581D01*
X28708Y25407D01*
X28429Y25551D01*
X28422Y25553D01*
X28358Y25564D01*
X28301Y25570D01*
X28249Y25571D01*
X28205Y25567D01*
X28167Y25558D01*
X28135Y25544D01*
X28110Y25524D01*
X28236Y25650D01*
X28214Y25662D01*
X28261Y25989D01*
X28329Y25942D01*
X28393Y25904D01*
X28454Y25873D01*
X28457Y25872D01*
X28582Y25997D01*
X28566Y25975D01*
D02*
G37*
G36*
X18807Y26286D02*
X18833Y26278D01*
X18867Y26272D01*
X18910Y26266D01*
X19019Y26257D01*
X19335Y26250D01*
X19436Y25950D01*
X19347Y25949D01*
X19128Y25932D01*
X19071Y25922D01*
X19023Y25909D01*
X18982Y25894D01*
X18950Y25877D01*
X18926Y25858D01*
X18910Y25837D01*
X18789Y26294D01*
X18807Y26286D01*
D02*
G37*
G36*
X5471Y25852D02*
X5446Y25838D01*
X5424Y25815D01*
X5404Y25784D01*
X5387Y25743D01*
X5374Y25693D01*
X5364Y25634D01*
X5356Y25566D01*
X5350Y25403D01*
X5050D01*
X5049Y25489D01*
X5036Y25634D01*
X5026Y25693D01*
X5012Y25743D01*
X4996Y25784D01*
X4977Y25815D01*
X4954Y25838D01*
X4929Y25852D01*
X4900Y25856D01*
X5500D01*
X5471Y25852D01*
D02*
G37*
G36*
X3272Y25852D02*
X3246Y25838D01*
X3224Y25815D01*
X3204Y25784D01*
X3188Y25743D01*
X3174Y25693D01*
X3164Y25634D01*
X3159Y25593D01*
X3165Y25495D01*
X3174Y25436D01*
X3184Y25384D01*
X3197Y25339D01*
X3211Y25302D01*
X3227Y25272D01*
X3245Y25250D01*
X2755D01*
X2773Y25272D01*
X2789Y25302D01*
X2803Y25339D01*
X2816Y25384D01*
X2826Y25436D01*
X2835Y25495D01*
X2841Y25576D01*
X2836Y25634D01*
X2826Y25693D01*
X2812Y25743D01*
X2796Y25784D01*
X2776Y25815D01*
X2754Y25838D01*
X2728Y25852D01*
X2700Y25856D01*
X3300D01*
X3272Y25852D01*
D02*
G37*
G36*
X7011Y25399D02*
X6929Y25394D01*
X6854Y25385D01*
X6788Y25371D01*
X6729Y25353D01*
X6679Y25331D01*
X6636Y25304D01*
X6602Y25272D01*
X6576Y25237D01*
X6557Y25197D01*
X6547Y25152D01*
X6289Y25539D01*
X6816Y25680D01*
X7011Y25399D01*
D02*
G37*
G36*
X19731Y25351D02*
X19943Y25226D01*
X20000Y25200D01*
X20049Y25181D01*
X20090Y25171D01*
X20125Y25167D01*
X20152Y25172D01*
X20171Y25184D01*
X19657Y24669D01*
X19667Y24688D01*
X19668Y24711D01*
X19658Y24738D01*
X19637Y24770D01*
X19606Y24806D01*
X19564Y24847D01*
X19512Y24892D01*
X19376Y24996D01*
X19292Y25055D01*
X19645Y25408D01*
X19731Y25351D01*
D02*
G37*
G36*
X26438Y24249D02*
X26411Y24267D01*
X26378Y24274D01*
X26338Y24269D01*
X26292Y24254D01*
X26239Y24227D01*
X26180Y24188D01*
X26114Y24139D01*
X26041Y24078D01*
X25877Y23923D01*
X25523Y24277D01*
X25606Y24362D01*
X25788Y24580D01*
X25827Y24639D01*
X25854Y24692D01*
X25869Y24738D01*
X25874Y24778D01*
X25867Y24811D01*
X25849Y24838D01*
X26438Y24249D01*
D02*
G37*
G36*
X8406Y23592D02*
X8401Y23603D01*
X8388Y23613D01*
X8364Y23622D01*
X8332Y23629D01*
X8290Y23636D01*
X8178Y23645D01*
X7941Y23650D01*
Y24150D01*
X8030Y24151D01*
X8332Y24171D01*
X8364Y24178D01*
X8388Y24187D01*
X8401Y24197D01*
X8406Y24208D01*
Y23592D01*
D02*
G37*
G36*
X21680Y22953D02*
X21618Y22890D01*
X21529Y22786D01*
X21626Y22688D01*
X21603Y22705D01*
X21576Y22713D01*
X21544D01*
X21508Y22705D01*
X21467Y22688D01*
X21427Y22665D01*
X21404Y22631D01*
X21381Y22591D01*
X21364Y22554D01*
X21354Y22522D01*
X21350Y22493D01*
X21290Y22557D01*
X21202Y22476D01*
X20990Y22688D01*
X21049Y22749D01*
X21077Y22782D01*
X21014Y22850D01*
X21042Y22852D01*
X21075Y22861D01*
X21111Y22877D01*
X21151Y22899D01*
X21183Y22920D01*
X21202Y22953D01*
X21219Y22993D01*
X21228Y23029D01*
Y23061D01*
X21219Y23089D01*
X21202Y23112D01*
X21302Y23013D01*
X21351Y23055D01*
X21474Y23172D01*
X21680Y22953D01*
D02*
G37*
G36*
X16223Y23444D02*
X16241Y23194D01*
X16252Y23133D01*
X16265Y23083D01*
X16280Y23044D01*
X16298Y23016D01*
X16318Y22999D01*
X16341Y22994D01*
X15604D01*
X15626Y22999D01*
X15646Y23016D01*
X15664Y23044D01*
X15679Y23083D01*
X15693Y23133D01*
X15703Y23194D01*
X15712Y23266D01*
X15721Y23444D01*
X15722Y23550D01*
X16222D01*
X16223Y23444D01*
D02*
G37*
G36*
X17403Y22752D02*
X17447Y22750D01*
Y22250D01*
X17403Y22249D01*
Y22003D01*
X17396Y22050D01*
X17373Y22092D01*
X17336Y22129D01*
X17283Y22161D01*
X17216Y22188D01*
X17133Y22210D01*
X17050Y22225D01*
X16967Y22210D01*
X16884Y22188D01*
X16817Y22161D01*
X16764Y22129D01*
X16727Y22092D01*
X16704Y22050D01*
X16697Y22003D01*
Y22248D01*
X16653Y22250D01*
Y22750D01*
X16697Y22751D01*
Y22997D01*
X16704Y22950D01*
X16727Y22908D01*
X16764Y22871D01*
X16817Y22839D01*
X16884Y22812D01*
X16967Y22790D01*
X17050Y22775D01*
X17133Y22790D01*
X17216Y22812D01*
X17283Y22839D01*
X17336Y22871D01*
X17373Y22908D01*
X17396Y22950D01*
X17403Y22997D01*
Y22752D01*
D02*
G37*
G36*
X11151Y23203D02*
X11397D01*
X11350Y23196D01*
X11308Y23173D01*
X11271Y23136D01*
X11239Y23083D01*
X11212Y23016D01*
X11190Y22933D01*
X11175Y22850D01*
X11190Y22767D01*
X11212Y22684D01*
X11239Y22617D01*
X11271Y22564D01*
X11308Y22527D01*
X11350Y22504D01*
X11397Y22497D01*
X11152D01*
X11150Y22453D01*
X10650D01*
X10649Y22497D01*
X10403D01*
X10450Y22504D01*
X10492Y22527D01*
X10529Y22564D01*
X10561Y22617D01*
X10588Y22684D01*
X10610Y22767D01*
X10625Y22850D01*
X10610Y22933D01*
X10588Y23016D01*
X10561Y23083D01*
X10529Y23136D01*
X10492Y23173D01*
X10450Y23196D01*
X10403Y23203D01*
X10648D01*
X10650Y23247D01*
X11150D01*
X11151Y23203D01*
D02*
G37*
G36*
X9151D02*
X9397D01*
X9350Y23196D01*
X9308Y23173D01*
X9271Y23136D01*
X9239Y23083D01*
X9212Y23016D01*
X9190Y22933D01*
X9175Y22850D01*
X9190Y22767D01*
X9212Y22684D01*
X9239Y22617D01*
X9271Y22564D01*
X9308Y22527D01*
X9350Y22504D01*
X9397Y22497D01*
X9152D01*
X9150Y22453D01*
X8650D01*
X8649Y22497D01*
X8403D01*
X8450Y22504D01*
X8492Y22527D01*
X8529Y22564D01*
X8561Y22617D01*
X8588Y22684D01*
X8610Y22767D01*
X8625Y22850D01*
X8610Y22933D01*
X8588Y23016D01*
X8561Y23083D01*
X8529Y23136D01*
X8492Y23173D01*
X8450Y23196D01*
X8403Y23203D01*
X8648D01*
X8650Y23247D01*
X9150D01*
X9151Y23203D01*
D02*
G37*
G36*
X18371Y21229D02*
X18348Y21185D01*
X18316Y21109D01*
X18307Y21079D01*
X18303Y21053D01*
X18303Y21032D01*
X18308Y21015D01*
X18317Y21003D01*
X18330Y20996D01*
X18348Y20994D01*
X17900D01*
X17920Y20997D01*
X17941Y21005D01*
X17963Y21019D01*
X17986Y21038D01*
X18010Y21063D01*
X18035Y21093D01*
X18060Y21129D01*
X18115Y21217D01*
X18143Y21269D01*
X18371Y21229D01*
D02*
G37*
G36*
X17403Y20752D02*
X17447Y20750D01*
Y20250D01*
X17403Y20249D01*
Y20003D01*
X17396Y20050D01*
X17373Y20092D01*
X17336Y20129D01*
X17283Y20161D01*
X17216Y20188D01*
X17133Y20210D01*
X17050Y20225D01*
X16967Y20210D01*
X16884Y20188D01*
X16817Y20161D01*
X16764Y20129D01*
X16727Y20092D01*
X16704Y20050D01*
X16697Y20003D01*
Y20248D01*
X16653Y20250D01*
Y20750D01*
X16697Y20751D01*
Y20997D01*
X16704Y20950D01*
X16727Y20908D01*
X16764Y20871D01*
X16817Y20839D01*
X16884Y20812D01*
X16967Y20790D01*
X17050Y20775D01*
X17133Y20790D01*
X17216Y20812D01*
X17283Y20839D01*
X17336Y20871D01*
X17373Y20908D01*
X17396Y20950D01*
X17403Y20997D01*
Y20752D01*
D02*
G37*
G36*
X19596Y20000D02*
X19589Y20048D01*
X19566Y20090D01*
X19528Y20128D01*
X19476Y20160D01*
X19408Y20188D01*
X19325Y20210D01*
X19227Y20228D01*
X19199Y20231D01*
X19164Y20228D01*
X19067Y20210D01*
X18984Y20188D01*
X18917Y20161D01*
X18864Y20129D01*
X18827Y20092D01*
X18804Y20050D01*
X18797Y20003D01*
Y20997D01*
X18804Y20950D01*
X18827Y20908D01*
X18864Y20871D01*
X18917Y20839D01*
X18984Y20812D01*
X19067Y20790D01*
X19164Y20772D01*
X19190Y20769D01*
X19227Y20772D01*
X19325Y20790D01*
X19408Y20812D01*
X19476Y20840D01*
X19528Y20872D01*
X19566Y20910D01*
X19589Y20952D01*
X19596Y21000D01*
Y20000D01*
D02*
G37*
G36*
X18201Y20808D02*
X18204Y20797D01*
X18209Y20785D01*
X18215Y20771D01*
X18224Y20756D01*
X18247Y20721D01*
X18277Y20679D01*
X18296Y20656D01*
X17904D01*
X17923Y20679D01*
X17976Y20756D01*
X17985Y20771D01*
X17991Y20785D01*
X17996Y20797D01*
X17999Y20808D01*
X18000Y20817D01*
X18200D01*
X18201Y20808D01*
D02*
G37*
G36*
X9350Y21096D02*
X9308Y21073D01*
X9271Y21036D01*
X9239Y20983D01*
X9212Y20916D01*
X9190Y20833D01*
X9172Y20736D01*
X9160Y20623D01*
X9150Y20353D01*
X8650D01*
X8648Y20496D01*
X8628Y20736D01*
X8610Y20833D01*
X8588Y20916D01*
X8561Y20983D01*
X8529Y21036D01*
X8492Y21073D01*
X8450Y21096D01*
X8403Y21103D01*
X9397D01*
X9350Y21096D01*
D02*
G37*
G36*
X7352Y20566D02*
X7364Y20421D01*
X7374Y20362D01*
X7387Y20312D01*
X7404Y20271D01*
X7424Y20240D01*
X7446Y20217D01*
X7471Y20203D01*
X7500Y20199D01*
X6900D01*
X6929Y20203D01*
X6954Y20217D01*
X6977Y20240D01*
X6996Y20271D01*
X7012Y20312D01*
X7026Y20362D01*
X7036Y20421D01*
X7044Y20489D01*
X7050Y20652D01*
X7350D01*
X7352Y20566D01*
D02*
G37*
G36*
X12930Y20048D02*
X12929Y20022D01*
X12939Y19993D01*
X12962Y19961D01*
X12997Y19927D01*
X13045Y19889D01*
X13104Y19849D01*
X13176Y19807D01*
X13356Y19713D01*
X13273Y19414D01*
X13151Y19472D01*
X12847Y19595D01*
X12767Y19619D01*
X12698Y19634D01*
X12640Y19641D01*
X12593Y19640D01*
X12556Y19630D01*
X12530Y19611D01*
X12944Y20072D01*
X12930Y20048D01*
D02*
G37*
G36*
X1051Y19817D02*
X1065Y19595D01*
X1074Y19536D01*
X1084Y19484D01*
X1097Y19439D01*
X1111Y19402D01*
X1127Y19372D01*
X1145Y19350D01*
X655D01*
X673Y19372D01*
X689Y19402D01*
X703Y19439D01*
X716Y19484D01*
X726Y19536D01*
X735Y19595D01*
X746Y19736D01*
X750Y19906D01*
X1050D01*
X1051Y19817D01*
D02*
G37*
G36*
X10182Y19193D02*
X9672Y19134D01*
X9668Y19139D01*
X9664Y19146D01*
X9661Y19156D01*
X9658Y19167D01*
X9656Y19181D01*
X9650Y19258D01*
X9650Y19283D01*
X10150D01*
X10182Y19193D01*
D02*
G37*
G36*
X17372Y18827D02*
X17402Y18811D01*
X17439Y18797D01*
X17484Y18784D01*
X17536Y18774D01*
X17595Y18765D01*
X17736Y18754D01*
X17906Y18750D01*
Y18450D01*
X17817Y18449D01*
X17595Y18435D01*
X17536Y18426D01*
X17484Y18416D01*
X17439Y18403D01*
X17402Y18389D01*
X17372Y18373D01*
X17350Y18355D01*
Y18845D01*
X17372Y18827D01*
D02*
G37*
G36*
X16850Y18355D02*
X16828Y18373D01*
X16798Y18389D01*
X16761Y18403D01*
X16716Y18416D01*
X16664Y18426D01*
X16605Y18435D01*
X16464Y18446D01*
X16294Y18450D01*
Y18750D01*
X16383Y18751D01*
X16605Y18765D01*
X16664Y18774D01*
X16716Y18784D01*
X16761Y18797D01*
X16798Y18811D01*
X16828Y18827D01*
X16850Y18845D01*
Y18355D01*
D02*
G37*
G36*
X11053Y18338D02*
X11048Y18347D01*
X11031Y18355D01*
X11003Y18362D01*
X10964Y18368D01*
X10914Y18373D01*
X10698Y18383D01*
X10498Y18385D01*
Y18885D01*
X10604Y18885D01*
X11031Y18915D01*
X11048Y18923D01*
X11053Y18932D01*
Y18338D01*
D02*
G37*
G36*
X8153Y18923D02*
X8171Y18915D01*
X8201Y18908D01*
X8242Y18902D01*
X8362Y18893D01*
X8743Y18885D01*
Y18385D01*
X8630Y18385D01*
X8171Y18355D01*
X8153Y18347D01*
X8147Y18338D01*
Y18932D01*
X8153Y18923D01*
D02*
G37*
G36*
X1127Y18828D02*
X1111Y18798D01*
X1097Y18761D01*
X1084Y18716D01*
X1074Y18664D01*
X1065Y18605D01*
X1054Y18464D01*
X1050Y18294D01*
X750D01*
X749Y18383D01*
X735Y18605D01*
X726Y18664D01*
X716Y18716D01*
X703Y18761D01*
X689Y18798D01*
X673Y18828D01*
X655Y18850D01*
X1145D01*
X1127Y18828D01*
D02*
G37*
G36*
X13356Y17487D02*
X13278Y17448D01*
X13146Y17371D01*
X13093Y17334D01*
X13047Y17298D01*
X13010Y17262D01*
X12981Y17227D01*
X12961Y17194D01*
X12948Y17160D01*
X12944Y17128D01*
X12947Y17662D01*
X12951Y17659D01*
X12963Y17661D01*
X12983Y17667D01*
X13011Y17677D01*
X13142Y17734D01*
X13345Y17831D01*
X13356Y17487D01*
D02*
G37*
G36*
X6253Y17068D02*
X6249Y17096D01*
X6235Y17121D01*
X6213Y17143D01*
X6181Y17162D01*
X6141Y17178D01*
X6091Y17191D01*
X6033Y17202D01*
X5965Y17209D01*
X5803Y17215D01*
Y17515D01*
X5889Y17516D01*
X6033Y17528D01*
X6091Y17539D01*
X6141Y17552D01*
X6181Y17568D01*
X6213Y17587D01*
X6235Y17609D01*
X6249Y17634D01*
X6253Y17662D01*
Y17068D01*
D02*
G37*
G36*
X8818Y16168D02*
X8147Y15798D01*
X7786Y16389D01*
X7810Y16364D01*
X7845Y16349D01*
X7891Y16343D01*
X7948Y16347D01*
X8016Y16361D01*
X8095Y16385D01*
X8186Y16418D01*
X8400Y16514D01*
X8523Y16577D01*
X8818Y16168D01*
D02*
G37*
G36*
X25071Y16313D02*
X25079Y16217D01*
X25086Y16178D01*
X25095Y16145D01*
X25106Y16118D01*
X25119Y16097D01*
X25134Y16082D01*
X25151Y16073D01*
X25170Y16070D01*
X24770D01*
X24789Y16073D01*
X24806Y16082D01*
X24821Y16097D01*
X24834Y16118D01*
X24845Y16145D01*
X24854Y16178D01*
X24861Y16217D01*
X24866Y16262D01*
X24870Y16370D01*
X25070D01*
X25071Y16313D01*
D02*
G37*
G36*
X21261D02*
X21269Y16217D01*
X21276Y16178D01*
X21285Y16145D01*
X21296Y16118D01*
X21309Y16097D01*
X21324Y16082D01*
X21341Y16073D01*
X21360Y16070D01*
X20960D01*
X20979Y16073D01*
X20996Y16082D01*
X21011Y16097D01*
X21024Y16118D01*
X21035Y16145D01*
X21044Y16178D01*
X21051Y16217D01*
X21056Y16262D01*
X21060Y16370D01*
X21260D01*
X21261Y16313D01*
D02*
G37*
G36*
X20041Y16434D02*
X20053Y16290D01*
X20064Y16232D01*
X20077Y16182D01*
X20093Y16142D01*
X20112Y16110D01*
X20134Y16088D01*
X20159Y16074D01*
X20187Y16070D01*
X19593D01*
X19621Y16074D01*
X19646Y16088D01*
X19668Y16110D01*
X19687Y16142D01*
X19703Y16182D01*
X19716Y16232D01*
X19727Y16290D01*
X19734Y16358D01*
X19740Y16520D01*
X20040D01*
X20041Y16434D01*
D02*
G37*
G36*
X21260Y15768D02*
X21292Y15300D01*
X21309Y15115D01*
X21011D01*
X21060Y15812D01*
X21260D01*
X21260Y15768D01*
D02*
G37*
G36*
X23900Y14385D02*
X23915Y14133D01*
X23987D01*
X23970Y14129D01*
X23955Y14116D01*
X23942Y14094D01*
X23931Y14064D01*
X23922Y14025D01*
X23922Y14024D01*
X23922Y14016D01*
X23929Y13985D01*
X23936Y13963D01*
X23945Y13950D01*
X23911D01*
X23908Y13921D01*
X23901Y13782D01*
X23900Y13700D01*
X23500D01*
X23499Y13782D01*
X23488Y13950D01*
X23455D01*
X23464Y13963D01*
X23471Y13985D01*
X23478Y14016D01*
X23479Y14022D01*
X23478Y14025D01*
X23469Y14064D01*
X23458Y14094D01*
X23445Y14116D01*
X23430Y14129D01*
X23413Y14133D01*
X23490D01*
X23493Y14161D01*
X23500Y14385D01*
X23500Y14477D01*
X23900D01*
X23900Y14385D01*
D02*
G37*
G36*
X21429Y14126D02*
X21404Y14112D01*
X21382Y14090D01*
X21363Y14058D01*
X21347Y14018D01*
X21334Y13968D01*
X21323Y13910D01*
X21316Y13842D01*
X21310Y13680D01*
X21010D01*
X21009Y13766D01*
X20997Y13910D01*
X20986Y13968D01*
X20973Y14018D01*
X20957Y14058D01*
X20938Y14090D01*
X20916Y14112D01*
X20891Y14126D01*
X20863Y14130D01*
X21457D01*
X21429Y14126D01*
D02*
G37*
%LPC*%
G36*
X20163Y28463D02*
X20156D01*
X20156Y28457D01*
X20163Y28463D01*
D02*
G37*
%LPD*%
D11*
X19000Y38100D02*
G03*
X19495Y36905I1690J0D01*
G01*
D02*
G03*
X20557Y36465I1062J1062D01*
G01*
X3100Y30600D02*
G03*
X3000Y30359I241J-241D01*
G01*
X3462Y30750D02*
G03*
X3100Y30600I0J-512D01*
G01*
X7045Y25550D02*
G03*
X6200Y25200I0J-1195D01*
G01*
X5400Y30000D02*
G03*
X5200Y29517I483J-483D01*
G01*
X5883Y30200D02*
G03*
X5400Y30000I0J-683D01*
G01*
X9700Y29800D02*
G03*
X8734Y30200I-966J-966D01*
G01*
X9700Y29800D02*
G03*
X10545Y29450I845J845D01*
G01*
X29542Y29842D02*
G03*
X29541Y29841I638J-638D01*
G01*
X26076Y29224D02*
G03*
X27100Y28800I1024J1024D01*
G01*
X29144Y28644D02*
G03*
X28767Y28800I-377J-377D01*
G01*
X30296Y27491D02*
G03*
X31845Y26850I1549J1549D01*
G01*
X31900Y29100D02*
G03*
X32624Y28800I724J724D01*
G01*
X20000Y28576D02*
G03*
X19700Y29300I-1024J0D01*
G01*
X27358Y34200D02*
G03*
X27600Y34300I0J342D01*
G01*
X28659Y35359D02*
G03*
X28800Y35700I-341J341D01*
G01*
X32059Y35959D02*
G03*
X31700Y35093I866J-866D01*
G01*
X32400Y36300D02*
G03*
X32700Y37024I-724J724D01*
G01*
X31700Y30300D02*
G03*
X32183Y30100I483J483D01*
G01*
X22700Y32900D02*
G03*
X22912Y32388I724J0D01*
G01*
X22900Y34200D02*
G03*
X22700Y33717I483J-483D01*
G01*
X22900Y34200D02*
G03*
X23400Y35407I-1207J1207D01*
G01*
X23800Y37500D02*
G03*
X23400Y36534I966J-966D01*
G01*
X21400Y39854D02*
G03*
X21721Y39079I1095J0D01*
G01*
X19100Y29500D02*
G03*
X18605Y29295I0J-700D01*
G01*
X19600Y29400D02*
G03*
X19359Y29500I-241J-241D01*
G01*
X17764Y28800D02*
G03*
X18355Y29045I0J836D01*
G01*
X17498Y26850D02*
G03*
X19294Y27594I0J2540D01*
G01*
X26700Y44617D02*
G03*
X26500Y45100I-683J0D01*
G01*
D02*
G03*
X25534Y45500I-966J-966D01*
G01*
X20500D02*
G03*
X19988Y45288I0J-724D01*
G01*
X19900Y45200D02*
G03*
X19800Y44959I241J-241D01*
G01*
X34925Y32291D02*
G03*
X34300Y33800I-2134J0D01*
G01*
X34876Y18900D02*
G03*
X35600Y19200I0J1024D01*
G01*
D02*
G03*
X36200Y20649I-1449J1449D01*
G01*
X20924Y18900D02*
G03*
X20200Y18600I0J-1024D01*
G01*
D02*
G03*
X19890Y17852I748J-748D01*
G01*
Y17358D02*
G03*
X19500Y18300I-1332J0D01*
G01*
X18500Y44300D02*
G03*
X18800Y45024I-724J724D01*
G01*
X16414Y43150D02*
G03*
X18012Y43812I0J2261D01*
G01*
X2300Y36076D02*
G03*
X2000Y36800I-1024J0D01*
G01*
X700Y38500D02*
G03*
X983Y37817I966J0D01*
G01*
X6652Y43700D02*
G03*
X4856Y42956I0J-2540D01*
G01*
X10825Y43700D02*
G03*
X12153Y43150I1328J1328D01*
G01*
X41305Y26695D02*
G03*
X42500Y26200I1195J1195D01*
G01*
X40700Y27300D02*
G03*
X40217Y27500I-483J-483D01*
G01*
X46917Y25300D02*
G03*
X47400Y25500I0J683D01*
G01*
X42047Y34495D02*
G03*
X40251Y33751I0J-2540D01*
G01*
X41481Y27619D02*
G03*
X43277Y26875I1796J1796D01*
G01*
X41200Y27900D02*
G03*
X40596Y28150I-604J-604D01*
G01*
X39700Y25600D02*
G03*
X40424Y25300I724J724D01*
G01*
X39300Y26566D02*
G03*
X39700Y25600I1366J0D01*
G01*
X47400Y25500D02*
G03*
X47500Y25741I-241J241D01*
G01*
X12700Y29176D02*
G03*
X12400Y29900I-1024J0D01*
G01*
D02*
G03*
X11917Y30100I-483J-483D01*
G01*
X4456Y23256D02*
G03*
X5200Y25052I-1796J1796D01*
G01*
X3114Y22700D02*
G03*
X4456Y23256I0J1898D01*
G01*
X16162Y30750D02*
G03*
X15800Y30600I0J-512D01*
G01*
X48456Y9856D02*
G03*
X49200Y11652I-1796J1796D01*
G01*
X45748Y8200D02*
G03*
X47544Y8944I0J2540D01*
G01*
X21956D02*
G03*
X23752Y8200I1796J1796D01*
G01*
X21160Y10452D02*
G03*
X21663Y9237I1719J0D01*
G01*
X900Y11252D02*
G03*
X1644Y9456I2540J0D01*
G01*
X2056Y9044D02*
G03*
X3852Y8300I1796J1796D01*
G01*
X18748D02*
G03*
X20544Y9044I0J2540D01*
G01*
X20600Y9100D02*
G03*
X21160Y10452I-1352J1352D01*
G01*
X21000Y22500D02*
G03*
X21024Y22510I0J34D01*
G01*
X30076Y26510D02*
G03*
X30100Y26500I24J24D01*
G01*
X28000Y26014D02*
G03*
X29000Y25600I1000J1000D01*
G01*
X21743Y36400D02*
G03*
X21900Y36465I0J222D01*
G01*
X20385Y37735D02*
G03*
X20300Y37700I0J-120D01*
G01*
X3500Y14300D02*
G03*
X4100Y15749I-1449J1449D01*
G01*
X3017Y14100D02*
G03*
X3500Y14300I0J683D01*
G01*
X4454Y17054D02*
G03*
X4100Y16200I854J-854D01*
G01*
X5140Y17365D02*
G03*
X4500Y17100I0J-905D01*
G01*
X4500Y17630D02*
G03*
X5140Y17365I640J640D01*
G01*
X4100Y18530D02*
G03*
X4454Y17676I1207J0D01*
G01*
X3500Y20430D02*
G03*
X3017Y20630I-483J-483D01*
G01*
X4100Y18981D02*
G03*
X3500Y20430I-2049J0D01*
G01*
X31443Y10910D02*
G03*
X31600Y10975I0J222D01*
G01*
X19500Y18300D02*
G03*
X18776Y18600I-724J-724D01*
G01*
X4100Y36681D02*
G03*
X3500Y38130I-2049J0D01*
G01*
D02*
G03*
X3017Y38330I-483J-483D01*
G01*
Y31800D02*
G03*
X3500Y32000I0J683D01*
G01*
D02*
G03*
X4100Y33449I-1449J1449D01*
G01*
X4622Y35160D02*
G03*
X4100Y33900I1260J-1260D01*
G01*
Y36230D02*
G03*
X4454Y35376I1207J0D01*
G01*
X4500Y35330D02*
G03*
X4663Y35201I640J640D01*
G01*
D02*
G03*
X5140Y35065I477J769D01*
G01*
X13839Y19161D02*
G03*
X12043Y19905I-1796J-1796D01*
G01*
Y17295D02*
G03*
X13839Y18039I0J2540D01*
G01*
X14400Y19083D02*
G03*
X14600Y18600I683J0D01*
G01*
X14259Y18741D02*
G03*
X14599Y18600I341J341D01*
G01*
X14600D02*
G03*
X14599Y18600I0J-483D01*
G01*
D02*
G03*
X14259Y18459I1J-483D01*
G01*
X14300Y37400D02*
G03*
X13805Y37605I-495J-495D01*
G01*
X14316Y35065D02*
G03*
X14400Y35100I0J119D01*
G01*
Y37159D02*
G03*
X14300Y37400I-341J0D01*
G01*
X46300Y35900D02*
G03*
X45946Y36754I-1207J0D01*
G01*
X45900Y36800D02*
G03*
X45260Y37065I-640J-640D01*
G01*
X45260D02*
G03*
X45900Y37330I0J905D01*
G01*
X45946Y37376D02*
G03*
X46300Y38230I-854J854D01*
G01*
X46900Y34000D02*
G03*
X47383Y33800I483J483D01*
G01*
X46300Y35449D02*
G03*
X46900Y34000I2049J0D01*
G01*
X47552Y40400D02*
G03*
X46900Y40130I0J-922D01*
G01*
D02*
G03*
X46300Y38681I1449J-1449D01*
G01*
X36500Y36700D02*
G03*
X36200Y35976I724J-724D01*
G01*
X37309Y37035D02*
G03*
X36500Y36700I0J-1144D01*
G01*
X36183Y34717D02*
G03*
X35500Y35000I-683J-683D01*
G01*
X15900Y29800D02*
G03*
X15675Y29257I543J-543D01*
G01*
X16624Y30100D02*
G03*
X15900Y29800I0J-1024D01*
G01*
X18841Y26100D02*
G03*
X18600Y26000I0J-341D01*
G01*
X20976Y26100D02*
G03*
X21700Y26400I0J1024D01*
G01*
X18779Y28150D02*
G03*
X18900Y28200I0J171D01*
G01*
X32000Y37100D02*
G03*
X31759Y37200I-241J-241D01*
G01*
X32783Y35883D02*
G03*
X32500Y35200I683J-683D01*
G01*
Y34666D02*
G03*
X32900Y33700I1366J0D01*
G01*
X33100Y36200D02*
G03*
X33400Y36924I-724J724D01*
G01*
X34200Y31348D02*
G03*
X33456Y33144I-2540J0D01*
G01*
X33838Y29450D02*
G03*
X34200Y29600I0J512D01*
G01*
X32700Y41717D02*
G03*
X32500Y42200I-683J0D01*
G01*
X33400Y41893D02*
G03*
X32900Y43100I-1707J0D01*
G01*
X13600Y45776D02*
G03*
X13300Y46500I-1024J0D01*
G01*
D02*
G03*
X12998Y46625I-302J-302D01*
G01*
X13900Y45800D02*
G03*
X13600Y45076I724J-724D01*
G01*
X15107Y46300D02*
G03*
X13900Y45800I0J-1707D01*
G01*
X12244Y44356D02*
G03*
X11172Y44800I-1072J-1072D01*
G01*
X12500Y44100D02*
G03*
X13224Y43800I724J724D01*
G01*
X6600Y39054D02*
G03*
X7200Y37605I2049J0D01*
G01*
X6600Y40748D02*
G03*
X5856Y42544I-2540J0D01*
G01*
X7566Y44800D02*
G03*
X6600Y44400I0J-1366D01*
G01*
X6200Y24652D02*
G03*
X6944Y22856I2540J0D01*
G01*
X7200Y22317D02*
G03*
X7000Y22800I-683J0D01*
G01*
X12179Y25550D02*
G03*
X12530Y25695I0J497D01*
G01*
X12635Y25800D02*
G03*
X12700Y25957I-157J157D01*
G01*
X9141Y38300D02*
G03*
X8900Y38200I0J-341D01*
G01*
X22430Y13993D02*
G03*
X22800Y13100I1263J0D01*
G01*
X22834Y13066D02*
G03*
X24200Y12500I1366J1366D01*
G01*
X30815D02*
G03*
X31600Y12825I0J1110D01*
G01*
X8043Y46625D02*
G03*
X7500Y46400I0J-768D01*
G01*
X1000Y40700D02*
G03*
X700Y39976I724J-724D01*
G01*
X18900Y28200D02*
G03*
X19000Y28441I-241J241D01*
G01*
X18121Y41850D02*
G03*
X18000Y41800I0J-171D01*
G01*
X19566Y41200D02*
G03*
X18600Y40800I0J-1366D01*
G01*
X9400Y28400D02*
G03*
X10004Y28150I604J604D01*
G01*
X14659Y43800D02*
G03*
X14900Y43900I0J341D01*
G01*
X38400Y30321D02*
G03*
X38450Y30200I171J0D01*
G01*
D02*
G03*
X38691Y30100I241J241D01*
G01*
X38621Y30750D02*
G03*
X38500Y30700I0J-171D01*
G01*
D02*
G03*
X38400Y30459I241J-241D01*
G01*
X37830Y27900D02*
G03*
X38796Y27500I966J966D01*
G01*
X37500Y28697D02*
G03*
X37830Y27900I1127J0D01*
G01*
X37924Y31424D02*
G03*
X37500Y30400I1025J-1024D01*
G01*
X14500Y41300D02*
G03*
X14600Y41541I-241J241D01*
G01*
D02*
G03*
X14523Y41727I-262J0D01*
G01*
X14259Y41200D02*
G03*
X14500Y41300I0J341D01*
G01*
X14651Y41200D02*
G03*
X16100Y41800I0J2049D01*
G01*
X14523Y41727D02*
G03*
X14226Y41850I-297J-297D01*
G01*
X17790Y42500D02*
G03*
X16100Y41800I0J-2390D01*
G01*
X21100Y43500D02*
G03*
X20376Y43800I-724J-724D01*
G01*
X21400Y42776D02*
G03*
X21100Y43500I-1024J0D01*
G01*
X19700Y40100D02*
G03*
X19800Y40341I-241J241D01*
G01*
X16000Y39800D02*
G03*
X15700Y39076I724J-724D01*
G01*
X14734Y38300D02*
G03*
X15700Y38700I0J1366D01*
G01*
X16362Y39950D02*
G03*
X16000Y39800I0J-512D01*
G01*
X19338Y39950D02*
G03*
X19700Y40100I0J512D01*
G01*
X33976Y27500D02*
G03*
X34700Y27800I0J1024D01*
G01*
D02*
G03*
X34925Y28343I-543J543D01*
G01*
X33100Y30750D02*
G03*
X32711Y31689I-1328J0D01*
G01*
X31244Y29756D02*
G03*
X30400Y30106I-844J-844D01*
G01*
X27834Y29666D02*
G03*
X28476Y29400I641J641D01*
G01*
D02*
G03*
X29541Y29841I0J1507D01*
G01*
X30179Y30106D02*
G03*
X29542Y29842I0J-902D01*
G01*
X15675Y26777D02*
G03*
X16419Y24981I2540J0D01*
G01*
X12000Y28100D02*
G03*
X11879Y28150I-121J-121D01*
G01*
X12100Y27900D02*
G03*
X12029Y28071I-241J0D01*
G01*
X12050Y27500D02*
G03*
X12100Y27621I-121J121D01*
G01*
X20557Y36465D02*
X21900D01*
X3000Y29400D02*
Y30359D01*
Y28225D02*
Y29400D01*
X3462Y30750D02*
X11200D01*
X6200Y24652D02*
Y25200D01*
X7045Y25550D02*
X12179D01*
X5200Y29159D02*
Y29517D01*
X5883Y30200D02*
X8734D01*
X10545Y29450D02*
X11200D01*
X27700Y29800D02*
X27834Y29666D01*
X27100Y28800D02*
X28767D01*
X29144Y28644D02*
X30296Y27491D01*
X31845Y26850D02*
X33100D01*
X22912Y32388D02*
X26076Y29224D01*
X28600Y31300D02*
X28600Y31300D01*
Y30200D02*
Y31300D01*
X32624Y28800D02*
X33100D01*
X31700Y30300D02*
Y35093D01*
X19700Y29300D02*
X19700Y29300D01*
X19600Y29400D02*
X19700Y29300D01*
X20000Y28300D02*
Y28576D01*
X19294Y27594D02*
X20000Y28300D01*
X27100Y34200D02*
X27358D01*
X27600Y34300D02*
X28659Y35359D01*
X32059Y35959D02*
X32400Y36300D01*
X22700Y32900D02*
Y33717D01*
X23400Y35407D02*
Y36534D01*
X19100Y29500D02*
X19359D01*
X18355Y29045D02*
X18605Y29295D01*
X17400Y28800D02*
X17764D01*
X17400Y26850D02*
X17498D01*
X26700Y39005D02*
Y44617D01*
X20500Y45500D02*
X25534D01*
X19900Y45200D02*
X19988Y45288D01*
X19800Y44450D02*
Y44959D01*
X20924Y18900D02*
X34876D01*
X19890Y15100D02*
Y17358D01*
Y17852D01*
X21160Y10452D02*
Y15100D01*
X15107Y46300D02*
X16600D01*
X18012Y43812D02*
X18500Y44300D01*
X18012Y43812D02*
Y43812D01*
X13600Y43150D02*
X16414D01*
X18800Y45024D02*
Y46200D01*
X8043Y46625D02*
X8975D01*
X12153Y43150D02*
X13600D01*
X2300Y33800D02*
Y36076D01*
X700Y38500D02*
Y39976D01*
X983Y37817D02*
X2000Y36800D01*
X2300Y40400D02*
X4856Y42956D01*
X6652Y43700D02*
X8975D01*
X40700Y27300D02*
X41305Y26695D01*
X43277Y26875D02*
X45300D01*
X42047Y34495D02*
X42800D01*
X41200Y27900D02*
X41481Y27619D01*
X39300Y28150D02*
X40596D01*
X40424Y25300D02*
X46917D01*
X39300Y26566D02*
Y26850D01*
X47500Y25741D02*
Y26875D01*
X45300Y28725D02*
Y30300D01*
X47500Y28725D02*
Y30000D01*
X5200Y28225D02*
Y29159D01*
X3000Y25000D02*
Y26375D01*
X11200Y30100D02*
X11917D01*
X2300Y22700D02*
X3114D01*
X5200Y25052D02*
Y26375D01*
X900Y11252D02*
Y19100D01*
X16162Y30750D02*
X17400D01*
X16624Y30100D02*
X17400D01*
X47544Y8944D02*
X48456Y9856D01*
X23752Y8200D02*
X45748D01*
X49200Y11652D02*
Y35100D01*
X21663Y9237D02*
X21956Y8944D01*
X5140Y17365D02*
X7200D01*
X5140D02*
X7200D01*
X900Y19100D02*
Y37000D01*
X1644Y9456D02*
X2056Y9044D01*
X3852Y8300D02*
X18748D01*
X20544Y9044D02*
X20600Y9100D01*
X28675Y31481D02*
Y33400D01*
X25925D02*
X28675D01*
X21024Y22510D02*
X21907Y23393D01*
X29093Y27493D02*
X30076Y26510D01*
X30076Y26510D01*
X27807Y26207D02*
X28000Y26014D01*
X20385Y37735D02*
X21900D01*
X2300Y14100D02*
X3017D01*
X4100Y15749D02*
Y16200D01*
X4454Y17054D02*
X4500Y17100D01*
X4100Y18530D02*
Y18981D01*
X2300Y20630D02*
X3017D01*
X27510Y10910D02*
X31600D01*
X22430Y13993D02*
Y15100D01*
X17100Y18600D02*
X18776D01*
X2300Y38330D02*
X3017D01*
X4100Y36230D02*
Y36681D01*
X2300Y31800D02*
X3017D01*
X5140Y35065D02*
X7200D01*
X4100Y33449D02*
Y33900D01*
X4622Y35160D02*
X4663Y35201D01*
X12000Y19905D02*
X12043D01*
X13839Y18039D02*
X14259Y18459D01*
X13839Y19161D02*
X14259Y18741D01*
X14600Y18600D02*
X17100D01*
X12000Y37605D02*
X13805D01*
X12000Y35065D02*
X14316D01*
X14400Y19083D02*
Y35100D01*
Y37000D01*
Y37159D01*
X46300Y35449D02*
Y35900D01*
X42800Y37065D02*
X45260D01*
X45900Y37330D02*
X45946Y37376D01*
X46300Y38230D02*
Y38681D01*
X47383Y33800D02*
X47700D01*
X47552Y40400D02*
X47700D01*
X37309Y37035D02*
X38000D01*
X36205Y34495D02*
X38000D01*
X36200Y34500D02*
X36205Y34495D01*
X36183Y34717D02*
X36200Y34700D01*
Y34500D02*
Y34700D01*
Y35976D01*
X34900Y35000D02*
X35500D01*
X32183Y30100D02*
X33100D01*
Y29450D02*
X33838D01*
X16400Y27500D02*
X17400D01*
X19000Y28441D02*
Y28700D01*
X17400Y28150D02*
X18779D01*
X13224Y43800D02*
X13600D01*
X33200Y34900D02*
X34300Y33800D01*
X30300Y37200D02*
X31759D01*
X32500Y34666D02*
Y35200D01*
X32783Y35883D02*
X33100Y36200D01*
X32900Y33700D02*
X33456Y33144D01*
X34200Y29600D02*
Y31348D01*
X33400Y36924D02*
Y41893D01*
X32700Y37024D02*
Y41717D01*
X13600Y44450D02*
Y45076D01*
Y45776D01*
X10825Y46625D02*
X12998D01*
X12244Y44356D02*
X12500Y44100D01*
X7566Y44800D02*
X11172D01*
X6600Y39054D02*
Y40748D01*
X5700Y42700D02*
X5856Y42544D01*
X6944Y22856D02*
X7000Y22800D01*
X7200Y19905D02*
Y22317D01*
X12530Y25695D02*
X12635Y25800D01*
X12635Y25800D01*
X12700Y25957D02*
Y29176D01*
X9141Y38300D02*
X14734D01*
X22800Y13100D02*
X22834Y13066D01*
X24200Y12500D02*
X30815D01*
X18841Y26100D02*
X20976D01*
X1000Y40700D02*
X1000Y40700D01*
X7500Y46400D01*
X7500Y46400D01*
X18121Y41850D02*
X19800D01*
X19566Y41200D02*
X19800D01*
X10728Y26850D02*
X11200D01*
X13600Y43800D02*
X14659D01*
X36200Y20649D02*
Y34500D01*
X38691Y30100D02*
X39300D01*
X38400Y30321D02*
Y30459D01*
X38621Y30750D02*
X39300D01*
X37924Y31424D02*
X37924Y31424D01*
X40251Y33751D01*
X38796Y27500D02*
X39300D01*
X40217D01*
X37500Y28697D02*
Y30400D01*
X13600Y41850D02*
X14226D01*
X14259Y41200D02*
X14651D01*
X17790Y42500D02*
X19800D01*
Y43800D02*
X20376D01*
X21400Y39854D02*
Y42776D01*
X19800Y40341D02*
Y40550D01*
X15700Y38700D02*
Y39076D01*
X16362Y39950D02*
X19338D01*
X34925Y28343D02*
Y32291D01*
X33100Y27500D02*
X33976D01*
X32500Y31900D02*
X32711Y31689D01*
X30179Y30106D02*
X30400D01*
X31244Y29756D02*
X31900Y29100D01*
X15675Y26777D02*
Y29257D01*
X16419Y24981D02*
X17800Y23600D01*
X11200Y28150D02*
X11879D01*
X12000Y28100D02*
X12029Y28071D01*
X12100Y27621D02*
Y27900D01*
X11200Y27500D02*
X12050D01*
D14*
X23949Y27166D02*
G03*
X23700Y26565I600J-600D01*
G01*
X18300Y21300D02*
G03*
X18100Y20817I483J-483D01*
G01*
X19507Y21800D02*
G03*
X18300Y21300I0J-1707D01*
G01*
X23400Y22500D02*
G03*
X23700Y23224I-724J724D01*
G01*
X22100Y21800D02*
G03*
X23124Y22224I0J1449D01*
G01*
X24730Y17100D02*
G03*
X24247Y17300I-483J-483D01*
G01*
X24970Y16562D02*
G03*
X24759Y17071I-719J0D01*
G01*
X21883Y17300D02*
G03*
X21400Y17100I0J-683D01*
G01*
X21371Y17071D02*
G03*
X21160Y16562I509J-509D01*
G01*
X23700Y23224D02*
Y26565D01*
X18100Y20500D02*
Y20817D01*
X19507Y21800D02*
X22100D01*
X23124Y22224D02*
X23400Y22500D01*
X21883Y17300D02*
X24247D01*
X24970Y15100D02*
Y16562D01*
X21371Y17071D02*
X21400Y17100D01*
X21160Y15100D02*
Y16562D01*
D31*
X39905Y38100D02*
G03*
X39410Y38305I-495J-495D01*
G01*
X40200Y37388D02*
G03*
X39905Y38100I-1007J0D01*
G01*
X7591Y24809D02*
G03*
X7538Y24810I-54J-1091D01*
G01*
X7700Y24000D02*
G03*
X7941Y23900I241J241D01*
G01*
X7500Y24383D02*
G03*
X7629Y24071I442J0D01*
G01*
X10100Y18800D02*
G03*
X10498Y18635I398J398D01*
G01*
X9900Y19283D02*
G03*
X10100Y18800I683J0D01*
G01*
X16000Y20500D02*
G03*
X15700Y19776I724J-724D01*
G01*
X17139Y34600D02*
G03*
X17580Y34783I0J624D01*
G01*
X10185Y36335D02*
G03*
X10100Y36300I0J-120D01*
G01*
X17580Y34783D02*
G03*
X17700Y35073I-290J290D01*
G01*
X30525Y31481D02*
G03*
X30600Y31300I256J0D01*
G01*
X29747Y31653D02*
G03*
X30600Y31300I853J854D01*
G01*
X29746Y31654D02*
G03*
X29747Y31653I854J854D01*
G01*
X20893Y27393D02*
G03*
X20883Y27417I-34J0D01*
G01*
X31400Y28000D02*
G03*
X31390Y28024I-34J0D01*
G01*
X26700Y37735D02*
G03*
X26784Y37700I84J84D01*
G01*
X24798Y36465D02*
G03*
X24400Y36300I0J-563D01*
G01*
D02*
G03*
X24075Y35515I785J-785D01*
G01*
X8700Y16400D02*
G03*
X8900Y16883I-483J483D01*
G01*
X7964Y16095D02*
G03*
X8700Y16400I0J1041D01*
G01*
X8743Y18635D02*
G03*
X8900Y18700I0J222D01*
G01*
X8700Y34000D02*
G03*
X8900Y34483I-483J483D01*
G01*
X8205Y33795D02*
G03*
X8700Y34000I0J700D01*
G01*
X8900Y36300D02*
G03*
X8816Y36335I-85J-85D01*
G01*
X7000Y42600D02*
G03*
X7483Y42400I483J483D01*
G01*
X8454Y42046D02*
G03*
X7600Y42400I-854J-854D01*
G01*
X19469Y25231D02*
G03*
X20493Y24807I1024J1024D01*
G01*
X10300Y15900D02*
G03*
X10043Y15280I620J-620D01*
G01*
X10771Y16095D02*
G03*
X10300Y15900I0J-666D01*
G01*
X7700Y27500D02*
G03*
X7347Y28353I-1207J0D01*
G01*
D02*
G03*
X7346Y28354I-854J-853D01*
G01*
X10100Y34697D02*
G03*
X10410Y33949I1058J0D01*
G01*
D02*
G03*
X10781Y33795I372J372D01*
G01*
X40100Y43900D02*
G03*
X39588Y43688I0J-724D01*
G01*
X39571Y43671D02*
G03*
X39500Y43500I171J-171D01*
G01*
X39674Y35765D02*
G03*
X40000Y35900I0J461D01*
G01*
D02*
G03*
X40200Y36383I-483J483D01*
G01*
X10000Y24241D02*
G03*
X10100Y24000I341J0D01*
G01*
D02*
G03*
X10341Y23900I241J241D01*
G01*
X11193Y41600D02*
G03*
X12400Y42100I0J1707D01*
G01*
X38400Y38305D02*
X39410D01*
Y40390D01*
X39500Y42500D02*
Y43500D01*
X39400Y40400D02*
X39410Y40390D01*
X39400Y40400D02*
Y42500D01*
X7941Y23900D02*
X8900D01*
X7500Y24810D02*
X7538D01*
X7500Y24383D02*
Y24810D01*
X7629Y24071D02*
X7700Y24000D01*
X10498Y18635D02*
X12000D01*
X9900Y19283D02*
Y19400D01*
X16000Y20500D02*
X18100D01*
X15700Y19500D02*
Y19776D01*
X20000Y28300D02*
X20883Y27417D01*
X16700Y34600D02*
X17139D01*
X10185Y36335D02*
X12000D01*
X10100Y36300D02*
Y37100D01*
Y34697D02*
Y36300D01*
X17700Y35073D02*
Y36600D01*
X28800Y41400D02*
Y42400D01*
X30525Y31481D02*
Y33400D01*
X29746Y31654D02*
X29747Y31653D01*
X29700Y31700D02*
X29746Y31654D01*
X19890Y20500D02*
X19890Y20500D01*
X18100Y20500D02*
X19890D01*
X28800Y37700D02*
Y39400D01*
X30800D01*
X22307Y28807D02*
X23000Y29500D01*
Y29500D01*
X20883Y27417D02*
X20883Y27417D01*
X30507Y28907D02*
X31390Y28024D01*
X25700Y24100D02*
X26493Y24893D01*
X26784Y37700D02*
X28800D01*
X24798Y36465D02*
X26700D01*
X24075Y33400D02*
Y35515D01*
X7200Y16095D02*
X7964D01*
X8900Y21800D02*
Y23900D01*
X7200Y18635D02*
X8743D01*
X8900Y16883D02*
Y18700D01*
Y21800D01*
X7200Y33795D02*
X8205D01*
X7200Y36335D02*
X8816D01*
X8900Y34483D02*
Y36300D01*
X30800Y41000D02*
Y41900D01*
X8454Y42046D02*
X8900Y41600D01*
Y39500D02*
Y41600D01*
X7483Y42400D02*
X7600D01*
X8900Y38200D02*
Y39500D01*
Y36300D02*
Y38200D01*
X19400Y25300D02*
X19469Y25231D01*
X9900Y19400D02*
X9921Y19379D01*
X10771Y16095D02*
X12000D01*
X10043Y14488D02*
Y15280D01*
X10900Y21800D02*
Y23900D01*
X7300Y28400D02*
X7346Y28354D01*
X7347Y28353D01*
X10781Y33795D02*
X12000D01*
X39500Y43500D02*
X39500Y43500D01*
X39571Y43671D02*
X39588Y43688D01*
X38400Y35765D02*
X39674D01*
X40200Y36383D02*
Y37388D01*
X8600Y29200D02*
X9400Y28400D01*
X8600Y29200D02*
Y29300D01*
X15972Y22528D02*
X16000Y22500D01*
X15972Y22528D02*
Y23550D01*
X10000Y24241D02*
Y24600D01*
X10341Y23900D02*
X10900D01*
X16000Y22500D02*
X18100D01*
X20400Y35200D02*
X21895D01*
X21900Y35195D01*
X17700Y36600D02*
Y38700D01*
X10900Y39500D02*
Y41600D01*
X11193D01*
X41400Y42500D02*
X42600D01*
X42800Y35765D02*
X43200D01*
D32*
X23853Y30247D02*
G03*
X23000Y30600I-853J-854D01*
G01*
X23854Y30246D02*
G03*
X23853Y30247I-854J-854D01*
G01*
X23000Y30600D02*
G03*
X21805Y30105I0J-1690D01*
G01*
X40800Y29300D02*
G03*
X40438Y29450I-362J-362D01*
G01*
X15400Y40400D02*
G03*
X15038Y40550I-362J-362D01*
G01*
X39772Y30750D02*
G03*
X41100Y31300I0J1878D01*
G01*
X26162Y35195D02*
G03*
X25450Y34900I0J-1007D01*
G01*
X43400Y32100D02*
G03*
X43200Y31617I483J-483D01*
G01*
X10728Y26850D02*
G03*
X9400Y26300I0J-1878D01*
G01*
X12400Y42100D02*
G03*
X13004Y41850I604J604D01*
G01*
X41400Y36383D02*
G03*
X41600Y35900I683J0D01*
G01*
D02*
G03*
X41926Y35765I326J326D01*
G01*
X15700Y39676D02*
G03*
X15400Y40400I-1024J0D01*
G01*
X26240Y14086D02*
G03*
X26400Y13700I546J0D01*
G01*
X26553Y13575D02*
G03*
X26975Y13400I422J422D01*
G01*
X27359Y13559D02*
G03*
X27510Y13923I-364J364D01*
G01*
X26975Y13400D02*
G03*
X27359Y13559I0J543D01*
G01*
X23854Y30246D02*
X24600Y29500D01*
X23853Y30247D02*
X23854Y30246D01*
X20000Y28300D02*
X21805Y30105D01*
X17700Y38700D02*
Y39117D01*
X39300Y29450D02*
X40438D01*
X40800Y29300D02*
X42000D01*
X43200Y29300D02*
X43200Y29300D01*
X42000Y29300D02*
X43200D01*
X42000Y29300D02*
X42000Y29300D01*
X26240Y14086D02*
Y15100D01*
X26400Y13700D02*
X26497Y13603D01*
X26525D01*
X23700Y13700D02*
Y15100D01*
X26162Y35195D02*
X26700D01*
X25335Y34785D02*
X25450Y34900D01*
X43200Y31300D02*
Y31617D01*
X41100Y31300D02*
X43200D01*
X43400Y32100D02*
X43600Y32300D01*
X13600Y40550D02*
X15038D01*
X6400Y27200D02*
X7300Y26300D01*
X6400Y27200D02*
Y27200D01*
X7300Y26300D02*
X9400D01*
X41400Y40400D02*
Y42500D01*
X41926Y35765D02*
X42800D01*
X41405Y38305D02*
X42800D01*
X41400Y38300D02*
X41405Y38305D01*
X41400Y36383D02*
Y38300D01*
Y40400D01*
X39300Y30750D02*
X39772D01*
X13004Y41850D02*
X13600D01*
X15700Y39076D02*
Y39676D01*
Y36600D02*
Y38700D01*
X10004Y28150D02*
X11200D01*
X27510Y13923D02*
Y15100D01*
X26525Y13603D02*
X26553Y13575D01*
D33*
X19700Y29300D02*
D03*
X30076Y26510D02*
D03*
X21700Y26400D02*
D03*
X12635Y25800D02*
D03*
X37924Y31424D02*
D03*
D34*
X23124Y22224D02*
D03*
D35*
X20883Y27417D02*
D03*
D36*
X8975Y43700D02*
D03*
X10825D02*
D03*
X8975Y46925D02*
D03*
X10825D02*
D03*
X25925Y33400D02*
D03*
X24075D02*
D03*
X30525D02*
D03*
X28675D02*
D03*
D37*
X15700Y38700D02*
D03*
X17700D02*
D03*
X15700Y36600D02*
D03*
X17700D02*
D03*
X8900Y41600D02*
D03*
X10900D02*
D03*
X8900Y39500D02*
D03*
X10900D02*
D03*
X41400Y40400D02*
D03*
X39400D02*
D03*
X41400Y42500D02*
D03*
X39400D02*
D03*
X28600Y31300D02*
D03*
X30600D02*
D03*
X8900Y21800D02*
D03*
X10900D02*
D03*
X8900Y23900D02*
D03*
X10900D02*
D03*
D38*
X13600Y44450D02*
D03*
X19800Y44450D02*
D03*
Y43800D02*
D03*
Y40550D02*
D03*
Y41200D02*
D03*
Y41850D02*
D03*
X13600Y43800D02*
D03*
Y40550D02*
D03*
Y41200D02*
D03*
Y41850D02*
D03*
X19800Y42500D02*
D03*
Y43150D02*
D03*
X13600Y42500D02*
D03*
Y43150D02*
D03*
X39300Y26850D02*
D03*
X33100Y26850D02*
D03*
Y27500D02*
D03*
Y30750D02*
D03*
Y30100D02*
D03*
Y29450D02*
D03*
X39300Y27500D02*
D03*
Y30750D02*
D03*
Y30100D02*
D03*
Y29450D02*
D03*
X33100Y28800D02*
D03*
Y28150D02*
D03*
X39300Y28800D02*
D03*
Y28150D02*
D03*
X11200Y30750D02*
D03*
X17400Y30750D02*
D03*
Y30100D02*
D03*
Y26850D02*
D03*
Y27500D02*
D03*
Y28150D02*
D03*
X11200Y30100D02*
D03*
Y26850D02*
D03*
Y27500D02*
D03*
Y28150D02*
D03*
X17400Y28800D02*
D03*
Y29450D02*
D03*
X11200Y28800D02*
D03*
Y29450D02*
D03*
D39*
X45300Y28725D02*
D03*
Y26875D02*
D03*
X47500Y28725D02*
D03*
Y26875D02*
D03*
X3000Y26375D02*
D03*
Y28225D02*
D03*
X5200Y26375D02*
D03*
Y28225D02*
D03*
X31600Y12825D02*
D03*
Y10975D02*
D03*
D40*
X43200Y31300D02*
D03*
Y29300D02*
D03*
X41000Y31300D02*
D03*
Y29300D02*
D03*
X7300Y26400D02*
D03*
Y28400D02*
D03*
X9400Y26400D02*
D03*
Y28400D02*
D03*
X16000Y20500D02*
D03*
Y22500D02*
D03*
X18100Y20500D02*
D03*
Y22500D02*
D03*
X28800Y37700D02*
D03*
Y35700D02*
D03*
Y39400D02*
D03*
Y41400D02*
D03*
D41*
X7200Y37605D02*
D03*
Y36335D02*
D03*
Y35065D02*
D03*
Y33795D02*
D03*
X12000Y37605D02*
D03*
Y36335D02*
D03*
Y35065D02*
D03*
Y33795D02*
D03*
X42800Y34495D02*
D03*
Y35765D02*
D03*
Y37035D02*
D03*
Y38305D02*
D03*
X38000Y34495D02*
D03*
Y35765D02*
D03*
Y37035D02*
D03*
Y38305D02*
D03*
X26700Y35195D02*
D03*
Y36465D02*
D03*
Y37735D02*
D03*
Y39005D02*
D03*
X21900Y35195D02*
D03*
Y36465D02*
D03*
Y37735D02*
D03*
Y39005D02*
D03*
X7200Y19905D02*
D03*
Y18635D02*
D03*
Y17365D02*
D03*
Y16095D02*
D03*
X12000Y19905D02*
D03*
Y18635D02*
D03*
Y17365D02*
D03*
Y16095D02*
D03*
D42*
X19890Y15100D02*
D03*
X21160D02*
D03*
X22430D02*
D03*
X23700D02*
D03*
X24970D02*
D03*
X26240D02*
D03*
X27510D02*
D03*
X19890Y20500D02*
D03*
X21160D02*
D03*
X22430D02*
D03*
X23700D02*
D03*
X24970D02*
D03*
X26240D02*
D03*
X27510D02*
D03*
D43*
X22307Y28807D02*
D03*
X20893Y27393D02*
D03*
X27907Y26307D02*
D03*
X26493Y24893D02*
D03*
X29093Y27493D02*
D03*
X30507Y28907D02*
D03*
D44*
X21907Y23393D02*
D03*
X20493Y24807D02*
D03*
D45*
X30800Y41000D02*
D03*
Y39400D02*
D03*
D46*
X2300Y33800D02*
D03*
X47700Y38400D02*
D03*
X2300Y40400D02*
D03*
X47700Y31800D02*
D03*
X2300Y16100D02*
D03*
X12200Y2250D02*
D03*
X2300Y22700D02*
D03*
X33700Y2250D02*
D03*
X35700Y2250D02*
D03*
X37700D02*
D03*
X39700D02*
D03*
X27510Y3290D02*
D03*
X19890D02*
D03*
Y10910D02*
D03*
X27510D02*
D03*
D47*
X2300Y31800D02*
D03*
X47700Y40400D02*
D03*
X2300Y38400D02*
D03*
X47700Y33800D02*
D03*
X2300Y14100D02*
D03*
Y20700D02*
D03*
D48*
X14200Y2250D02*
D03*
X41700Y2250D02*
D03*
D49*
X15000Y45500D02*
D03*
X11700Y31600D02*
D03*
X27700Y29800D02*
D03*
X28600Y30200D02*
D03*
X15700Y19500D02*
D03*
X31700Y30300D02*
D03*
X24600Y29500D02*
D03*
X23949Y27166D02*
D03*
X19700Y22800D02*
D03*
X27100Y34200D02*
D03*
X23800Y37500D02*
D03*
X16700Y34600D02*
D03*
X22200Y39900D02*
D03*
X27000Y32200D02*
D03*
X28800Y42400D02*
D03*
X29700Y31700D02*
D03*
X42100Y29300D02*
D03*
X26525Y13603D02*
D03*
X23700Y13700D02*
D03*
X22600Y18000D02*
D03*
X23496Y16623D02*
D03*
X7500Y24810D02*
D03*
X6200Y25200D02*
D03*
X18000Y9500D02*
D03*
X17200D02*
D03*
X30300Y37200D02*
D03*
X18800Y46200D02*
D03*
X16600Y46300D02*
D03*
X42500Y26200D02*
D03*
X43800Y26875D02*
D03*
X47500Y25741D02*
D03*
X45300Y30300D02*
D03*
X47500Y30000D02*
D03*
X5200Y29159D02*
D03*
X3000Y29400D02*
D03*
Y25000D02*
D03*
X24500Y18100D02*
D03*
X15800Y30600D02*
D03*
X17800Y23600D02*
D03*
X45400Y37900D02*
D03*
X44700Y38900D02*
D03*
X49200Y35100D02*
D03*
X4900Y34326D02*
D03*
X4824Y33426D02*
D03*
X5800Y33000D02*
D03*
X4900Y39900D02*
D03*
X4900Y39000D02*
D03*
X900Y36800D02*
D03*
X6000Y22200D02*
D03*
X900Y19100D02*
D03*
X5200Y21300D02*
D03*
X19000Y38100D02*
D03*
X22700Y31400D02*
D03*
X23800Y44100D02*
D03*
X20000Y28300D02*
D03*
X23000Y29500D02*
D03*
X21000Y22500D02*
D03*
X31400Y28000D02*
D03*
X30076Y26510D02*
D03*
X25700Y24100D02*
D03*
X29000Y25600D02*
D03*
X27000Y23000D02*
D03*
X37400Y39200D02*
D03*
X44500Y31800D02*
D03*
X33200Y20800D02*
D03*
X20300Y37700D02*
D03*
X5500Y23200D02*
D03*
X26900Y16600D02*
D03*
X28600Y15700D02*
D03*
X31200Y15800D02*
D03*
X25335Y34785D02*
D03*
X8500Y13500D02*
D03*
X9300D02*
D03*
X8500Y12700D02*
D03*
X9300D02*
D03*
X12300Y13500D02*
D03*
X13200D02*
D03*
X12300Y12700D02*
D03*
X13196D02*
D03*
X18000Y13000D02*
D03*
X17200D02*
D03*
X18000Y12096D02*
D03*
Y11200D02*
D03*
X17200Y12100D02*
D03*
Y11200D02*
D03*
X16404Y13004D02*
D03*
X15504D02*
D03*
X17200Y10300D02*
D03*
X18000D02*
D03*
X17100Y18600D02*
D03*
X5200Y40800D02*
D03*
X14400Y37000D02*
D03*
X45500Y36000D02*
D03*
Y34000D02*
D03*
X38500Y39200D02*
D03*
X34900Y35000D02*
D03*
X11400Y15200D02*
D03*
X12600D02*
D03*
X5248Y16651D02*
D03*
X34200Y29600D02*
D03*
X21700Y26400D02*
D03*
X22100Y25200D02*
D03*
X16400Y27500D02*
D03*
X18600Y26000D02*
D03*
X19000Y28700D02*
D03*
X15000Y44000D02*
D03*
X18000Y41800D02*
D03*
X32000Y37100D02*
D03*
X33200Y34900D02*
D03*
X32500Y42200D02*
D03*
X32900Y43100D02*
D03*
X7700Y12700D02*
D03*
Y13500D02*
D03*
X29900Y15600D02*
D03*
X33100Y17100D02*
D03*
X32500Y15800D02*
D03*
X37100Y25100D02*
D03*
X38800D02*
D03*
X13500Y29000D02*
D03*
Y30100D02*
D03*
X12700Y45700D02*
D03*
X9200Y45600D02*
D03*
X7200Y15100D02*
D03*
X4900Y15700D02*
D03*
X45200Y33000D02*
D03*
X43600Y32300D02*
D03*
X42600Y42500D02*
D03*
X30800Y41900D02*
D03*
X6600Y44400D02*
D03*
X5700Y42700D02*
D03*
X7000Y42600D02*
D03*
X6400Y27200D02*
D03*
X19400Y25300D02*
D03*
X42900Y12300D02*
D03*
X36300Y11100D02*
D03*
X33300Y4900D02*
D03*
X18300Y2900D02*
D03*
Y3800D02*
D03*
Y4700D02*
D03*
X17400D02*
D03*
Y3800D02*
D03*
Y2900D02*
D03*
X21300Y1000D02*
D03*
X22100D02*
D03*
X22900D02*
D03*
X21300Y1900D02*
D03*
X22100D02*
D03*
X22900D02*
D03*
X21300Y2800D02*
D03*
X22100D02*
D03*
X22900D02*
D03*
X23000Y6800D02*
D03*
X22200D02*
D03*
X21400D02*
D03*
X23000Y6000D02*
D03*
X22200D02*
D03*
X21400D02*
D03*
Y5200D02*
D03*
X22200D02*
D03*
X23000D02*
D03*
X18600Y40800D02*
D03*
X9900Y19400D02*
D03*
X10043Y14488D02*
D03*
X10000Y24600D02*
D03*
X7700Y27500D02*
D03*
X10100Y37100D02*
D03*
X40100Y43900D02*
D03*
X11200Y32700D02*
D03*
X12100D02*
D03*
X15000Y42400D02*
D03*
X13900Y47000D02*
D03*
X18800Y32600D02*
D03*
X35100Y14600D02*
D03*
X18800Y14500D02*
D03*
X37300Y24000D02*
D03*
X38500D02*
D03*
X28600Y7300D02*
D03*
X28630Y5200D02*
D03*
X12700Y31350D02*
D03*
X8600Y29300D02*
D03*
X15972Y23550D02*
D03*
X20400Y35200D02*
D03*
X12400Y42100D02*
D03*
X32500Y31900D02*
D03*
M02*
