G04*
G04 #@! TF.GenerationSoftware,Altium Limited,Altium Designer,22.7.1 (60)*
G04*
G04 Layer_Physical_Order=2*
G04 Layer_Color=1930808*
%FSLAX43Y43*%
%MOMM*%
G71*
G04*
G04 #@! TF.SameCoordinates,D6A07BB3-E300-4989-B7AD-CA0A744D7D9A*
G04*
G04*
G04 #@! TF.FilePolarity,Positive*
G04*
G01*
G75*
%ADD11C,0.300*%
%ADD46C,1.200*%
%ADD48R,1.200X1.200*%
%ADD49C,0.700*%
G36*
X44400Y48171D02*
X44281Y47883D01*
X44176Y47447D01*
X44141Y47000D01*
X44176Y46553D01*
X44281Y46117D01*
X44400Y45830D01*
X44400Y39533D01*
X44347Y39511D01*
X44201Y39399D01*
X44089Y39253D01*
X44018Y39083D01*
X43994Y38900D01*
X44018Y38717D01*
X44089Y38547D01*
X44201Y38401D01*
X44347Y38289D01*
X44400Y38267D01*
X44400Y32493D01*
X44317Y32482D01*
X44147Y32411D01*
X44001Y32299D01*
X43889Y32153D01*
X43818Y31983D01*
X43794Y31800D01*
X43818Y31617D01*
X43889Y31447D01*
X44001Y31301D01*
X44147Y31189D01*
X44317Y31118D01*
X44400Y31107D01*
X44400Y27434D01*
X44273Y27394D01*
X44153Y27486D01*
X43983Y27557D01*
X43800Y27581D01*
X43617Y27557D01*
X43447Y27486D01*
X43301Y27374D01*
X43189Y27228D01*
X43118Y27058D01*
X43094Y26875D01*
X43108Y26766D01*
X43031Y26719D01*
X42988Y26708D01*
X42853Y26811D01*
X42683Y26882D01*
X42500Y26906D01*
X42317Y26882D01*
X42147Y26811D01*
X42001Y26699D01*
X41889Y26553D01*
X41818Y26383D01*
X41794Y26200D01*
X41818Y26017D01*
X41889Y25847D01*
X42001Y25701D01*
X42147Y25589D01*
X42317Y25518D01*
X42500Y25494D01*
X42683Y25518D01*
X42853Y25589D01*
X42999Y25701D01*
X43111Y25847D01*
X43182Y26017D01*
X43206Y26200D01*
X43192Y26309D01*
X43269Y26356D01*
X43312Y26367D01*
X43447Y26264D01*
X43617Y26193D01*
X43800Y26169D01*
X43983Y26193D01*
X44153Y26264D01*
X44273Y26356D01*
X44400Y26316D01*
X44400Y4170D01*
X44281Y3883D01*
X44176Y3447D01*
X44141Y3000D01*
X44176Y2553D01*
X44281Y2117D01*
X44400Y1830D01*
X44400Y433D01*
X23508D01*
X23445Y560D01*
X23511Y647D01*
X23582Y817D01*
X23606Y1000D01*
X23582Y1183D01*
X23511Y1353D01*
X23437Y1450D01*
X23511Y1547D01*
X23582Y1717D01*
X23606Y1900D01*
X23582Y2083D01*
X23511Y2253D01*
X23437Y2350D01*
X23511Y2447D01*
X23582Y2617D01*
X23606Y2800D01*
X23582Y2983D01*
X23511Y3153D01*
X23399Y3299D01*
X23253Y3411D01*
X23083Y3482D01*
X22900Y3506D01*
X22717Y3482D01*
X22547Y3411D01*
X22500Y3375D01*
X22453Y3411D01*
X22283Y3482D01*
X22100Y3506D01*
X21917Y3482D01*
X21747Y3411D01*
X21700Y3375D01*
X21653Y3411D01*
X21483Y3482D01*
X21300Y3506D01*
X21117Y3482D01*
X20960Y3417D01*
X20912Y3422D01*
X20826Y3457D01*
X20816Y3538D01*
X20720Y3769D01*
X20568Y3968D01*
X20369Y4120D01*
X20138Y4216D01*
X19890Y4248D01*
X19642Y4216D01*
X19411Y4120D01*
X19212Y3968D01*
X19127Y3856D01*
X18994Y3891D01*
X18982Y3983D01*
X18911Y4153D01*
X18837Y4250D01*
X18911Y4347D01*
X18982Y4517D01*
X19006Y4700D01*
X18982Y4883D01*
X18911Y5053D01*
X18799Y5199D01*
X18653Y5311D01*
X18483Y5382D01*
X18300Y5406D01*
X18117Y5382D01*
X17947Y5311D01*
X17850Y5237D01*
X17753Y5311D01*
X17583Y5382D01*
X17400Y5406D01*
X17217Y5382D01*
X17047Y5311D01*
X16901Y5199D01*
X16789Y5053D01*
X16718Y4883D01*
X16694Y4700D01*
X16718Y4517D01*
X16789Y4347D01*
X16863Y4250D01*
X16789Y4153D01*
X16718Y3983D01*
X16694Y3800D01*
X16718Y3617D01*
X16789Y3447D01*
X16863Y3350D01*
X16789Y3253D01*
X16718Y3083D01*
X16694Y2900D01*
X16718Y2717D01*
X16789Y2547D01*
X16901Y2401D01*
X17047Y2289D01*
X17217Y2218D01*
X17400Y2194D01*
X17583Y2218D01*
X17753Y2289D01*
X17850Y2363D01*
X17947Y2289D01*
X18117Y2218D01*
X18300Y2194D01*
X18483Y2218D01*
X18653Y2289D01*
X18799Y2401D01*
X18911Y2547D01*
X18978Y2709D01*
X19012Y2723D01*
X19113Y2742D01*
X19212Y2612D01*
X19411Y2460D01*
X19642Y2364D01*
X19890Y2332D01*
X20138Y2364D01*
X20369Y2460D01*
X20503Y2563D01*
X20654Y2529D01*
X20655Y2528D01*
X20689Y2447D01*
X20763Y2350D01*
X20689Y2253D01*
X20618Y2083D01*
X20594Y1900D01*
X20618Y1717D01*
X20689Y1547D01*
X20763Y1450D01*
X20689Y1353D01*
X20618Y1183D01*
X20594Y1000D01*
X20618Y817D01*
X20689Y647D01*
X20755Y560D01*
X20692Y433D01*
X5100D01*
Y1070D01*
X5313Y1320D01*
X5547Y1702D01*
X5719Y2117D01*
X5824Y2553D01*
X5859Y3000D01*
X5824Y3447D01*
X5719Y3883D01*
X5547Y4298D01*
X5313Y4680D01*
X5100Y4930D01*
X5100Y15025D01*
X5253Y15089D01*
X5399Y15201D01*
X5511Y15347D01*
X5582Y15517D01*
X5606Y15700D01*
X5582Y15883D01*
X5529Y16010D01*
X5601Y16040D01*
X5748Y16152D01*
X5860Y16298D01*
X5930Y16469D01*
X5954Y16651D01*
X5930Y16834D01*
X5860Y17004D01*
X5748Y17151D01*
X5601Y17263D01*
X5431Y17333D01*
X5248Y17357D01*
X5195Y17350D01*
X5100Y17434D01*
X5100Y20511D01*
X5195Y20595D01*
X5200Y20594D01*
X5383Y20618D01*
X5553Y20689D01*
X5699Y20801D01*
X5811Y20947D01*
X5882Y21117D01*
X5906Y21300D01*
X5896Y21380D01*
X6000Y21494D01*
X6183Y21518D01*
X6353Y21589D01*
X6499Y21701D01*
X6611Y21847D01*
X6682Y22017D01*
X6706Y22200D01*
X6682Y22383D01*
X6611Y22553D01*
X6499Y22699D01*
X6353Y22811D01*
X6252Y22853D01*
X6175Y22999D01*
X6182Y23017D01*
X6206Y23200D01*
X6182Y23383D01*
X6111Y23553D01*
X5999Y23699D01*
X5853Y23812D01*
X5683Y23882D01*
X5500Y23906D01*
X5317Y23882D01*
X5227Y23845D01*
X5100Y23930D01*
X5100Y28369D01*
X5195Y28453D01*
X5200Y28453D01*
X5383Y28477D01*
X5553Y28547D01*
X5699Y28659D01*
X5811Y28806D01*
X5882Y28976D01*
X5906Y29159D01*
X5882Y29341D01*
X5811Y29512D01*
X5699Y29658D01*
X5553Y29770D01*
X5383Y29841D01*
X5200Y29865D01*
X5195Y29864D01*
X5100Y29948D01*
X5100Y32554D01*
X5227Y32597D01*
X5301Y32501D01*
X5447Y32388D01*
X5617Y32318D01*
X5800Y32294D01*
X5983Y32318D01*
X6153Y32388D01*
X6299Y32501D01*
X6411Y32647D01*
X6482Y32817D01*
X6506Y33000D01*
X6482Y33183D01*
X6411Y33353D01*
X6299Y33499D01*
X6153Y33611D01*
X5983Y33682D01*
X5800Y33706D01*
X5617Y33682D01*
X5496Y33632D01*
X5435Y33779D01*
X5399Y33826D01*
X5399Y33826D01*
X5511Y33973D01*
X5582Y34143D01*
X5606Y34326D01*
X5582Y34508D01*
X5511Y34679D01*
X5399Y34825D01*
X5253Y34937D01*
X5100Y35001D01*
Y38325D01*
X5253Y38389D01*
X5399Y38501D01*
X5511Y38647D01*
X5582Y38817D01*
X5606Y39000D01*
X5582Y39183D01*
X5511Y39353D01*
X5437Y39450D01*
X5511Y39547D01*
X5582Y39717D01*
X5606Y39900D01*
X5582Y40083D01*
X5540Y40183D01*
X5553Y40189D01*
X5699Y40301D01*
X5811Y40447D01*
X5882Y40617D01*
X5906Y40800D01*
X5882Y40983D01*
X5811Y41153D01*
X5699Y41299D01*
X5553Y41412D01*
X5383Y41482D01*
X5200Y41506D01*
X5195Y41506D01*
X5100Y41589D01*
Y42140D01*
X5227Y42180D01*
X5347Y42088D01*
X5517Y42018D01*
X5700Y41994D01*
X5883Y42018D01*
X6053Y42088D01*
X6199Y42201D01*
X6311Y42347D01*
X6382Y42517D01*
X6406Y42700D01*
X6382Y42883D01*
X6311Y43053D01*
X6199Y43199D01*
X6053Y43311D01*
X5883Y43382D01*
X5700Y43406D01*
X5517Y43382D01*
X5347Y43311D01*
X5227Y43219D01*
X5100Y43259D01*
Y44933D01*
X5388Y45270D01*
X5622Y45652D01*
X5794Y46067D01*
X5899Y46503D01*
X5934Y46950D01*
X5899Y47397D01*
X5794Y47833D01*
X5622Y48248D01*
X5388Y48630D01*
X5100Y48967D01*
Y49567D01*
X44400D01*
X44400Y48171D01*
D02*
G37*
G36*
X4621Y39688D02*
X4611Y39697D01*
X4596Y39701D01*
X4578Y39699D01*
X4556Y39691D01*
X4531Y39679D01*
X4501Y39660D01*
X4468Y39637D01*
X4391Y39574D01*
X4347Y39534D01*
X4280Y39862D01*
X4564Y39999D01*
X4621Y39688D01*
D02*
G37*
G36*
X1172Y37027D02*
X1202Y37011D01*
X1239Y36997D01*
X1284Y36984D01*
X1336Y36974D01*
X1395Y36965D01*
X1536Y36954D01*
X1706Y36950D01*
Y36650D01*
X1617Y36649D01*
X1395Y36635D01*
X1336Y36626D01*
X1284Y36616D01*
X1239Y36603D01*
X1202Y36589D01*
X1172Y36573D01*
X1150Y36555D01*
Y37045D01*
X1172Y37027D01*
D02*
G37*
G36*
X48950Y34855D02*
X48928Y34873D01*
X48898Y34889D01*
X48861Y34903D01*
X48816Y34916D01*
X48764Y34926D01*
X48705Y34935D01*
X48564Y34946D01*
X48394Y34950D01*
Y35250D01*
X48483Y35251D01*
X48705Y35265D01*
X48764Y35274D01*
X48816Y35284D01*
X48861Y35297D01*
X48898Y35311D01*
X48928Y35327D01*
X48950Y35345D01*
Y34855D01*
D02*
G37*
G36*
X4572Y33182D02*
X4490Y33276D01*
X4490Y33577D01*
X4489Y33578D01*
X4491Y33581D01*
X4494Y33586D01*
X4499Y33592D01*
X4528Y33624D01*
X4575Y33672D01*
X4572Y33182D01*
D02*
G37*
G36*
X45496Y33194D02*
X45516Y33185D01*
X45543Y33176D01*
X45579Y33169D01*
X45622Y33163D01*
X45733Y33155D01*
X45958Y33150D01*
Y32850D01*
X45875Y32849D01*
X45579Y32830D01*
X45543Y32823D01*
X45516Y32815D01*
X45496Y32806D01*
X45484Y32796D01*
Y33204D01*
X45496Y33194D01*
D02*
G37*
G36*
X5707Y22008D02*
X5698Y22016D01*
X5681Y22023D01*
X5656Y22029D01*
X5623Y22035D01*
X5535Y22043D01*
X5416Y22048D01*
X5266Y22050D01*
Y22350D01*
X5345Y22350D01*
X5656Y22371D01*
X5681Y22377D01*
X5698Y22384D01*
X5707Y22392D01*
Y22008D01*
D02*
G37*
G36*
X1172Y19327D02*
X1202Y19311D01*
X1239Y19297D01*
X1284Y19284D01*
X1336Y19274D01*
X1395Y19265D01*
X1536Y19254D01*
X1706Y19250D01*
Y18950D01*
X1617Y18949D01*
X1395Y18935D01*
X1336Y18926D01*
X1284Y18916D01*
X1239Y18903D01*
X1202Y18889D01*
X1172Y18873D01*
X1150Y18855D01*
Y19345D01*
X1172Y19327D01*
D02*
G37*
%LPC*%
G36*
X6600Y45106D02*
X6417Y45082D01*
X6247Y45011D01*
X6101Y44899D01*
X5989Y44753D01*
X5918Y44583D01*
X5894Y44400D01*
X5918Y44217D01*
X5989Y44047D01*
X6101Y43901D01*
X6247Y43789D01*
X6417Y43718D01*
X6600Y43694D01*
X6783Y43718D01*
X6953Y43789D01*
X7099Y43901D01*
X7211Y44047D01*
X7282Y44217D01*
X7306Y44400D01*
X7282Y44583D01*
X7211Y44753D01*
X7099Y44899D01*
X6953Y45011D01*
X6783Y45082D01*
X6600Y45106D01*
D02*
G37*
G36*
X13900Y47706D02*
X13717Y47682D01*
X13547Y47611D01*
X13401Y47499D01*
X13288Y47353D01*
X13218Y47183D01*
X13194Y47000D01*
X8600D01*
Y45968D01*
X8589Y45953D01*
X8518Y45783D01*
X8494Y45600D01*
X8518Y45417D01*
X8589Y45247D01*
X8600Y45232D01*
Y30006D01*
X8417Y29982D01*
X8247Y29911D01*
X8101Y29799D01*
X7989Y29653D01*
X7918Y29483D01*
X7894Y29300D01*
X7918Y29117D01*
X7989Y28947D01*
X8101Y28801D01*
X8247Y28689D01*
X8417Y28618D01*
X8600Y28594D01*
Y16400D01*
X6700Y16400D01*
Y15598D01*
X6588Y15453D01*
X6518Y15283D01*
X6494Y15100D01*
X6518Y14917D01*
X6588Y14747D01*
X6700Y14602D01*
Y11100D01*
X9000D01*
X15100Y11100D01*
Y20100D01*
X17029Y20100D01*
X19600Y17968D01*
X19600Y14713D01*
X19482Y14683D01*
X19411Y14853D01*
X19299Y14999D01*
X19153Y15111D01*
X18983Y15182D01*
X18800Y15206D01*
X18617Y15182D01*
X18447Y15111D01*
X18301Y14999D01*
X18189Y14853D01*
X18118Y14683D01*
X18094Y14500D01*
X18118Y14317D01*
X18189Y14147D01*
X18301Y14001D01*
X18447Y13889D01*
X18617Y13818D01*
X18800Y13794D01*
X18983Y13818D01*
X19153Y13889D01*
X19299Y14001D01*
X19411Y14147D01*
X19482Y14317D01*
X19600Y14287D01*
Y12100D01*
X39700Y12100D01*
Y43171D01*
X39827Y43255D01*
X39917Y43218D01*
X40100Y43194D01*
X40283Y43218D01*
X40453Y43289D01*
X40599Y43401D01*
X40711Y43547D01*
X40782Y43717D01*
X40806Y43900D01*
X40782Y44083D01*
X40711Y44253D01*
X40599Y44399D01*
X40453Y44511D01*
X40283Y44582D01*
X40100Y44606D01*
X39917Y44582D01*
X39827Y44545D01*
X39700Y44629D01*
Y47000D01*
X16646D01*
X16600Y47006D01*
X16554Y47000D01*
X14606D01*
X14582Y47183D01*
X14511Y47353D01*
X14399Y47499D01*
X14253Y47611D01*
X14083Y47682D01*
X13900Y47706D01*
D02*
G37*
G36*
X42100Y30006D02*
X41917Y29982D01*
X41747Y29911D01*
X41601Y29799D01*
X41489Y29653D01*
X41418Y29483D01*
X41394Y29300D01*
X41418Y29117D01*
X41489Y28947D01*
X41601Y28801D01*
X41747Y28689D01*
X41917Y28618D01*
X42100Y28594D01*
X42283Y28618D01*
X42453Y28689D01*
X42599Y28801D01*
X42711Y28947D01*
X42782Y29117D01*
X42806Y29300D01*
X42782Y29483D01*
X42711Y29653D01*
X42599Y29799D01*
X42453Y29911D01*
X42283Y29982D01*
X42100Y30006D01*
D02*
G37*
G36*
X7700Y28206D02*
X7517Y28182D01*
X7347Y28111D01*
X7201Y27999D01*
X7089Y27853D01*
X7018Y27683D01*
X6994Y27500D01*
X7018Y27317D01*
X7089Y27147D01*
X7201Y27001D01*
X7347Y26889D01*
X7517Y26818D01*
X7700Y26794D01*
X7883Y26818D01*
X8053Y26889D01*
X8199Y27001D01*
X8311Y27147D01*
X8382Y27317D01*
X8406Y27500D01*
X8382Y27683D01*
X8311Y27853D01*
X8199Y27999D01*
X8053Y28111D01*
X7883Y28182D01*
X7700Y28206D01*
D02*
G37*
G36*
X6200Y25906D02*
X6017Y25882D01*
X5847Y25811D01*
X5701Y25699D01*
X5589Y25553D01*
X5518Y25383D01*
X5494Y25200D01*
X5518Y25017D01*
X5589Y24847D01*
X5701Y24701D01*
X5847Y24589D01*
X6017Y24518D01*
X6200Y24494D01*
X6383Y24518D01*
X6553Y24589D01*
X6699Y24701D01*
X6811Y24847D01*
X6882Y25017D01*
X6906Y25200D01*
X6882Y25383D01*
X6811Y25553D01*
X6699Y25699D01*
X6553Y25811D01*
X6383Y25882D01*
X6200Y25906D01*
D02*
G37*
G36*
X17100Y19306D02*
X16917Y19282D01*
X16747Y19211D01*
X16601Y19099D01*
X16489Y18953D01*
X16418Y18783D01*
X16394Y18600D01*
X16418Y18417D01*
X16489Y18247D01*
X16601Y18101D01*
X16747Y17989D01*
X16917Y17918D01*
X17100Y17894D01*
X17283Y17918D01*
X17453Y17989D01*
X17599Y18101D01*
X17711Y18247D01*
X17782Y18417D01*
X17806Y18600D01*
X17782Y18783D01*
X17711Y18953D01*
X17599Y19099D01*
X17453Y19211D01*
X17283Y19282D01*
X17100Y19306D01*
D02*
G37*
G36*
X20017Y11755D02*
Y11037D01*
X20735D01*
X20722Y11133D01*
X20636Y11341D01*
X20499Y11519D01*
X20321Y11656D01*
X20113Y11742D01*
X20017Y11755D01*
D02*
G37*
G36*
X19763D02*
X19667Y11742D01*
X19459Y11656D01*
X19281Y11519D01*
X19144Y11341D01*
X19058Y11133D01*
X19045Y11037D01*
X19763D01*
Y11755D01*
D02*
G37*
G36*
X20735Y10783D02*
X20017D01*
Y10065D01*
X20113Y10078D01*
X20321Y10164D01*
X20499Y10301D01*
X20636Y10479D01*
X20722Y10687D01*
X20735Y10783D01*
D02*
G37*
G36*
X19763D02*
X19045D01*
X19058Y10687D01*
X19144Y10479D01*
X19281Y10301D01*
X19459Y10164D01*
X19667Y10078D01*
X19763Y10065D01*
Y10783D01*
D02*
G37*
G36*
X27510Y11868D02*
X27262Y11836D01*
X27031Y11740D01*
X26832Y11588D01*
X26680Y11389D01*
X26584Y11158D01*
X26552Y10910D01*
X26584Y10662D01*
X26680Y10431D01*
X26832Y10232D01*
X27031Y10080D01*
X27262Y9984D01*
X27510Y9952D01*
X27758Y9984D01*
X27989Y10080D01*
X28188Y10232D01*
X28340Y10431D01*
X28436Y10662D01*
X28468Y10910D01*
X28436Y11158D01*
X28340Y11389D01*
X28188Y11588D01*
X27989Y11740D01*
X27758Y11836D01*
X27510Y11868D01*
D02*
G37*
G36*
X23000Y7506D02*
X22817Y7482D01*
X22647Y7411D01*
X22600Y7375D01*
X22553Y7411D01*
X22383Y7482D01*
X22200Y7506D01*
X22017Y7482D01*
X21847Y7411D01*
X21800Y7375D01*
X21753Y7411D01*
X21583Y7482D01*
X21400Y7506D01*
X21217Y7482D01*
X21047Y7411D01*
X20901Y7299D01*
X20789Y7153D01*
X20718Y6983D01*
X20694Y6800D01*
X20718Y6617D01*
X20789Y6447D01*
X20825Y6400D01*
X20789Y6353D01*
X20718Y6183D01*
X20694Y6000D01*
X20718Y5817D01*
X20789Y5647D01*
X20825Y5600D01*
X20789Y5553D01*
X20718Y5383D01*
X20694Y5200D01*
X20718Y5017D01*
X20789Y4847D01*
X20901Y4701D01*
X21047Y4589D01*
X21217Y4518D01*
X21400Y4494D01*
X21583Y4518D01*
X21753Y4589D01*
X21800Y4625D01*
X21847Y4589D01*
X22017Y4518D01*
X22200Y4494D01*
X22383Y4518D01*
X22553Y4589D01*
X22600Y4625D01*
X22647Y4589D01*
X22817Y4518D01*
X23000Y4494D01*
X23183Y4518D01*
X23353Y4589D01*
X23499Y4701D01*
X23611Y4847D01*
X23682Y5017D01*
X23706Y5200D01*
X23682Y5383D01*
X23611Y5553D01*
X23575Y5600D01*
X23611Y5647D01*
X23682Y5817D01*
X23706Y6000D01*
X23682Y6183D01*
X23611Y6353D01*
X23575Y6400D01*
X23611Y6447D01*
X23682Y6617D01*
X23706Y6800D01*
X23682Y6983D01*
X23611Y7153D01*
X23499Y7299D01*
X23353Y7411D01*
X23183Y7482D01*
X23000Y7506D01*
D02*
G37*
G36*
X28600Y8006D02*
X28417Y7982D01*
X28247Y7911D01*
X28101Y7799D01*
X27989Y7653D01*
X27918Y7483D01*
X27894Y7300D01*
X27918Y7117D01*
X27989Y6947D01*
X28101Y6801D01*
X28247Y6689D01*
X28417Y6618D01*
X28600Y6594D01*
X28783Y6618D01*
X28953Y6689D01*
X29099Y6801D01*
X29211Y6947D01*
X29282Y7117D01*
X29306Y7300D01*
X29282Y7483D01*
X29211Y7653D01*
X29099Y7799D01*
X28953Y7911D01*
X28783Y7982D01*
X28600Y8006D01*
D02*
G37*
G36*
X28630Y5906D02*
X28447Y5882D01*
X28277Y5811D01*
X28131Y5699D01*
X28019Y5553D01*
X27948Y5383D01*
X27924Y5200D01*
X27948Y5017D01*
X28019Y4847D01*
X28131Y4701D01*
X28277Y4589D01*
X28447Y4518D01*
X28630Y4494D01*
X28813Y4518D01*
X28983Y4589D01*
X29129Y4701D01*
X29241Y4847D01*
X29312Y5017D01*
X29336Y5200D01*
X29312Y5383D01*
X29241Y5553D01*
X29129Y5699D01*
X28983Y5811D01*
X28813Y5882D01*
X28630Y5906D01*
D02*
G37*
G36*
X42554Y3104D02*
X41827D01*
Y2377D01*
X42554D01*
Y3104D01*
D02*
G37*
G36*
X41573D02*
X40846D01*
Y2377D01*
X41573D01*
Y3104D01*
D02*
G37*
G36*
X27510Y4248D02*
X27262Y4216D01*
X27031Y4120D01*
X26832Y3968D01*
X26680Y3769D01*
X26584Y3538D01*
X26552Y3290D01*
X26584Y3042D01*
X26680Y2811D01*
X26832Y2612D01*
X27031Y2460D01*
X27262Y2364D01*
X27510Y2332D01*
X27758Y2364D01*
X27989Y2460D01*
X28188Y2612D01*
X28340Y2811D01*
X28436Y3042D01*
X28468Y3290D01*
X28436Y3538D01*
X28340Y3769D01*
X28188Y3968D01*
X27989Y4120D01*
X27758Y4216D01*
X27510Y4248D01*
D02*
G37*
G36*
X42554Y2123D02*
X41827D01*
Y1396D01*
X42554D01*
Y2123D01*
D02*
G37*
G36*
X41573D02*
X40846D01*
Y1396D01*
X41573D01*
Y2123D01*
D02*
G37*
G36*
X12200Y3208D02*
X11952Y3176D01*
X11721Y3080D01*
X11522Y2928D01*
X11370Y2729D01*
X11274Y2498D01*
X11242Y2250D01*
X11274Y2002D01*
X11370Y1771D01*
X11522Y1572D01*
X11721Y1420D01*
X11952Y1324D01*
X12200Y1292D01*
X12448Y1324D01*
X12679Y1420D01*
X12878Y1572D01*
X13030Y1771D01*
X13126Y2002D01*
X13250Y1983D01*
Y1300D01*
X15150D01*
Y3200D01*
X13250D01*
Y2517D01*
X13126Y2498D01*
X13030Y2729D01*
X12878Y2928D01*
X12679Y3080D01*
X12448Y3176D01*
X12200Y3208D01*
D02*
G37*
G36*
X33700D02*
X33452Y3176D01*
X33221Y3080D01*
X33022Y2928D01*
X32870Y2729D01*
X32774Y2498D01*
X32742Y2250D01*
X32774Y2002D01*
X32870Y1771D01*
X33022Y1572D01*
X33221Y1420D01*
X33452Y1324D01*
X33700Y1292D01*
X33948Y1324D01*
X34179Y1420D01*
X34378Y1572D01*
X34530Y1771D01*
X34626Y2002D01*
X34636Y2081D01*
X34764D01*
X34774Y2002D01*
X34870Y1771D01*
X35022Y1572D01*
X35221Y1420D01*
X35452Y1324D01*
X35700Y1292D01*
X35948Y1324D01*
X36179Y1420D01*
X36378Y1572D01*
X36530Y1771D01*
X36626Y2002D01*
X36636Y2081D01*
X36764D01*
X36774Y2002D01*
X36870Y1771D01*
X37022Y1572D01*
X37221Y1420D01*
X37452Y1324D01*
X37700Y1292D01*
X37948Y1324D01*
X38179Y1420D01*
X38378Y1572D01*
X38530Y1771D01*
X38626Y2002D01*
X38636Y2081D01*
X38764D01*
X38774Y2002D01*
X38870Y1771D01*
X39022Y1572D01*
X39221Y1420D01*
X39452Y1324D01*
X39700Y1292D01*
X39948Y1324D01*
X40179Y1420D01*
X40378Y1572D01*
X40530Y1771D01*
X40626Y2002D01*
X40658Y2250D01*
X40626Y2498D01*
X40530Y2729D01*
X40378Y2928D01*
X40179Y3080D01*
X39948Y3176D01*
X39700Y3208D01*
X39452Y3176D01*
X39221Y3080D01*
X39022Y2928D01*
X38870Y2729D01*
X38774Y2498D01*
X38764Y2419D01*
X38636D01*
X38626Y2498D01*
X38530Y2729D01*
X38378Y2928D01*
X38179Y3080D01*
X37948Y3176D01*
X37700Y3208D01*
X37452Y3176D01*
X37221Y3080D01*
X37022Y2928D01*
X36870Y2729D01*
X36774Y2498D01*
X36764Y2419D01*
X36636D01*
X36626Y2498D01*
X36530Y2729D01*
X36378Y2928D01*
X36179Y3080D01*
X35948Y3176D01*
X35700Y3208D01*
X35452Y3176D01*
X35221Y3080D01*
X35022Y2928D01*
X34870Y2729D01*
X34774Y2498D01*
X34764Y2419D01*
X34636D01*
X34626Y2498D01*
X34530Y2729D01*
X34378Y2928D01*
X34179Y3080D01*
X33948Y3176D01*
X33700Y3208D01*
D02*
G37*
%LPD*%
G36*
X13288Y46647D02*
X13401Y46501D01*
X13547Y46388D01*
X13717Y46318D01*
X13900Y46294D01*
X14083Y46318D01*
X14253Y46388D01*
X14399Y46501D01*
X14511Y46647D01*
X14515Y46655D01*
X14560Y46652D01*
X14606Y46643D01*
X15870D01*
X15941Y46538D01*
X15918Y46483D01*
X15894Y46300D01*
X15918Y46117D01*
X15989Y45947D01*
X16101Y45801D01*
X16247Y45689D01*
X16417Y45618D01*
X16600Y45594D01*
X16783Y45618D01*
X16953Y45689D01*
X17099Y45801D01*
X17211Y45947D01*
X17282Y46117D01*
X17306Y46300D01*
X17282Y46483D01*
X17259Y46538D01*
X17330Y46643D01*
X18113D01*
X18173Y46516D01*
X18118Y46383D01*
X18094Y46200D01*
X18118Y46017D01*
X18189Y45847D01*
X18301Y45701D01*
X18447Y45589D01*
X18617Y45518D01*
X18800Y45494D01*
X18983Y45518D01*
X19153Y45589D01*
X19299Y45701D01*
X19411Y45847D01*
X19482Y46017D01*
X19506Y46200D01*
X19482Y46383D01*
X19427Y46516D01*
X19487Y46643D01*
X39343D01*
Y44629D01*
X39350Y44595D01*
Y44560D01*
X39363Y44527D01*
X39370Y44493D01*
X39390Y44464D01*
X39403Y44431D01*
X39428Y44406D01*
X39448Y44377D01*
X39489Y44253D01*
X39418Y44083D01*
X39394Y43900D01*
X39418Y43717D01*
X39489Y43547D01*
X39448Y43423D01*
X39428Y43394D01*
X39403Y43369D01*
X39390Y43336D01*
X39370Y43307D01*
X39363Y43273D01*
X39350Y43240D01*
Y43205D01*
X39343Y43171D01*
Y12457D01*
X19957Y12457D01*
Y14287D01*
X19952Y14312D01*
X19953Y14337D01*
X19938Y14380D01*
X19930Y14424D01*
X19916Y14445D01*
X19907Y14469D01*
X19890Y14488D01*
Y14512D01*
X19907Y14531D01*
X19916Y14555D01*
X19930Y14576D01*
X19938Y14620D01*
X19953Y14663D01*
X19952Y14688D01*
X19957Y14713D01*
X19957Y17968D01*
X19954Y17985D01*
X19955Y18002D01*
X19940Y18053D01*
X19930Y18105D01*
X19920Y18119D01*
X19916Y18135D01*
X19882Y18176D01*
X19852Y18221D01*
X19838Y18230D01*
X19828Y18243D01*
X17256Y20375D01*
X17209Y20400D01*
X17165Y20430D01*
X17149Y20433D01*
X17134Y20441D01*
X17081Y20446D01*
X17029Y20457D01*
X15100Y20457D01*
X14963Y20430D01*
X14848Y20352D01*
X14813Y20300D01*
X14800D01*
Y20281D01*
X14770Y20237D01*
X14743Y20100D01*
Y11457D01*
X9000Y11457D01*
X7057D01*
Y14316D01*
X7152Y14400D01*
X7200Y14394D01*
X7383Y14418D01*
X7553Y14488D01*
X7699Y14601D01*
X7811Y14747D01*
X7882Y14917D01*
X7906Y15100D01*
X7882Y15283D01*
X7811Y15453D01*
X7699Y15599D01*
X7553Y15711D01*
X7383Y15782D01*
X7200Y15806D01*
X7152Y15800D01*
X7057Y15883D01*
Y16043D01*
X8600Y16043D01*
X8737Y16070D01*
X8852Y16148D01*
X8930Y16263D01*
X8957Y16400D01*
Y28594D01*
X8948Y28640D01*
X8945Y28685D01*
X8953Y28689D01*
X9099Y28801D01*
X9211Y28947D01*
X9282Y29117D01*
X9306Y29300D01*
X9282Y29483D01*
X9211Y29653D01*
X9099Y29799D01*
X8953Y29911D01*
X8945Y29915D01*
X8948Y29960D01*
X8957Y30006D01*
Y45232D01*
X8948Y45278D01*
X8945Y45324D01*
X8934Y45346D01*
X8930Y45369D01*
X8916Y45389D01*
X8866Y45510D01*
X8854Y45600D01*
X8866Y45690D01*
X8916Y45811D01*
X8930Y45831D01*
X8934Y45854D01*
X8945Y45876D01*
X8948Y45922D01*
X8957Y45968D01*
Y46643D01*
X13194D01*
X13240Y46652D01*
X13285Y46655D01*
X13288Y46647D01*
D02*
G37*
%LPC*%
G36*
X15000Y46206D02*
X14817Y46182D01*
X14647Y46111D01*
X14501Y45999D01*
X14389Y45853D01*
X14318Y45683D01*
X14294Y45500D01*
X14318Y45317D01*
X14389Y45147D01*
X14501Y45001D01*
X14647Y44889D01*
X14817Y44818D01*
X14847Y44814D01*
Y44686D01*
X14817Y44682D01*
X14647Y44611D01*
X14501Y44499D01*
X14389Y44353D01*
X14318Y44183D01*
X14294Y44000D01*
X14318Y43817D01*
X14389Y43647D01*
X14501Y43501D01*
X14647Y43389D01*
X14817Y43318D01*
X15000Y43294D01*
X15183Y43318D01*
X15353Y43389D01*
X15499Y43501D01*
X15611Y43647D01*
X15682Y43817D01*
X15706Y44000D01*
X15682Y44183D01*
X15611Y44353D01*
X15499Y44499D01*
X15353Y44611D01*
X15183Y44682D01*
X15153Y44686D01*
Y44814D01*
X15183Y44818D01*
X15353Y44889D01*
X15499Y45001D01*
X15611Y45147D01*
X15682Y45317D01*
X15706Y45500D01*
X15682Y45683D01*
X15611Y45853D01*
X15499Y45999D01*
X15353Y46111D01*
X15183Y46182D01*
X15000Y46206D01*
D02*
G37*
G36*
X28800Y43106D02*
X28617Y43082D01*
X28447Y43011D01*
X28301Y42899D01*
X28189Y42753D01*
X28118Y42583D01*
X28094Y42400D01*
X28118Y42217D01*
X28189Y42047D01*
X28301Y41901D01*
X28447Y41789D01*
X28617Y41718D01*
X28800Y41694D01*
X28983Y41718D01*
X29153Y41789D01*
X29299Y41901D01*
X29411Y42047D01*
X29482Y42217D01*
X29506Y42400D01*
X29482Y42583D01*
X29411Y42753D01*
X29299Y42899D01*
X29153Y43011D01*
X28983Y43082D01*
X28800Y43106D01*
D02*
G37*
G36*
X15000D02*
X14817Y43082D01*
X14647Y43011D01*
X14501Y42899D01*
X14389Y42753D01*
X14318Y42583D01*
X14294Y42400D01*
X14318Y42217D01*
X14389Y42047D01*
X14501Y41901D01*
X14647Y41789D01*
X14817Y41718D01*
X15000Y41694D01*
X15183Y41718D01*
X15353Y41789D01*
X15499Y41901D01*
X15611Y42047D01*
X15682Y42217D01*
X15706Y42400D01*
X15682Y42583D01*
X15611Y42753D01*
X15499Y42899D01*
X15353Y43011D01*
X15183Y43082D01*
X15000Y43106D01*
D02*
G37*
G36*
X32900Y43806D02*
X32717Y43782D01*
X32547Y43711D01*
X32401Y43599D01*
X32289Y43453D01*
X32218Y43283D01*
X32194Y43100D01*
X32218Y42917D01*
X32245Y42852D01*
X32147Y42811D01*
X32001Y42699D01*
X31889Y42553D01*
X31818Y42383D01*
X31794Y42200D01*
X31818Y42017D01*
X31889Y41847D01*
X32001Y41701D01*
X32147Y41589D01*
X32317Y41518D01*
X32500Y41494D01*
X32683Y41518D01*
X32853Y41589D01*
X32999Y41701D01*
X33111Y41847D01*
X33182Y42017D01*
X33206Y42200D01*
X33182Y42383D01*
X33155Y42448D01*
X33253Y42489D01*
X33399Y42601D01*
X33511Y42747D01*
X33582Y42917D01*
X33606Y43100D01*
X33582Y43283D01*
X33511Y43453D01*
X33399Y43599D01*
X33253Y43711D01*
X33083Y43782D01*
X32900Y43806D01*
D02*
G37*
G36*
X12400Y42806D02*
X12217Y42782D01*
X12047Y42711D01*
X11901Y42599D01*
X11789Y42453D01*
X11718Y42283D01*
X11694Y42100D01*
X11718Y41917D01*
X11789Y41747D01*
X11901Y41601D01*
X12047Y41489D01*
X12217Y41418D01*
X12400Y41394D01*
X12583Y41418D01*
X12753Y41489D01*
X12899Y41601D01*
X13011Y41747D01*
X13082Y41917D01*
X13106Y42100D01*
X13082Y42283D01*
X13011Y42453D01*
X12899Y42599D01*
X12753Y42711D01*
X12583Y42782D01*
X12400Y42806D01*
D02*
G37*
G36*
X38500Y39906D02*
X38317Y39882D01*
X38147Y39811D01*
X38001Y39699D01*
X37899D01*
X37753Y39811D01*
X37583Y39882D01*
X37400Y39906D01*
X37217Y39882D01*
X37047Y39811D01*
X36901Y39699D01*
X36789Y39553D01*
X36718Y39383D01*
X36694Y39200D01*
X36718Y39017D01*
X36789Y38847D01*
X36901Y38701D01*
X37047Y38589D01*
X37217Y38518D01*
X37400Y38494D01*
X37583Y38518D01*
X37753Y38589D01*
X37899Y38701D01*
X38001D01*
X38147Y38589D01*
X38317Y38518D01*
X38500Y38494D01*
X38683Y38518D01*
X38853Y38589D01*
X38999Y38701D01*
X39111Y38847D01*
X39182Y39017D01*
X39206Y39200D01*
X39182Y39383D01*
X39111Y39553D01*
X38999Y39699D01*
X38853Y39811D01*
X38683Y39882D01*
X38500Y39906D01*
D02*
G37*
G36*
X18000Y42506D02*
X17817Y42482D01*
X17647Y42411D01*
X17501Y42299D01*
X17389Y42153D01*
X17318Y41983D01*
X17294Y41800D01*
X17318Y41617D01*
X17389Y41447D01*
X17501Y41301D01*
X17647Y41189D01*
X17817Y41118D01*
X17862Y41112D01*
X17926Y41002D01*
X17918Y40983D01*
X17894Y40800D01*
X17905Y40716D01*
X17758Y40442D01*
X17632Y40026D01*
X17589Y39593D01*
X17590D01*
Y34900D01*
X17593Y34884D01*
X17568Y34694D01*
X17527Y34655D01*
X17393Y34703D01*
X17382Y34783D01*
X17311Y34953D01*
X17199Y35099D01*
X17053Y35211D01*
X16883Y35282D01*
X16700Y35306D01*
X16517Y35282D01*
X16347Y35211D01*
X16201Y35099D01*
X16089Y34953D01*
X16018Y34783D01*
X15994Y34600D01*
X16018Y34417D01*
X16089Y34247D01*
X16201Y34101D01*
X16347Y33989D01*
X16517Y33918D01*
X16700Y33894D01*
X16808Y33908D01*
X16867Y33788D01*
X14929Y31850D01*
X14929Y31851D01*
X14657Y31520D01*
X14456Y31143D01*
X14331Y30733D01*
X14290Y30308D01*
X14290D01*
Y29800D01*
X14289D01*
X14332Y29371D01*
X14457Y28958D01*
X14660Y28577D01*
X14934Y28244D01*
X14934Y28245D01*
X14934Y28245D01*
X15696Y27483D01*
X15718Y27317D01*
X15789Y27147D01*
X15901Y27001D01*
X16047Y26889D01*
X16217Y26818D01*
X16400Y26794D01*
X16583Y26818D01*
X16753Y26889D01*
X16899Y27001D01*
X17011Y27147D01*
X17082Y27317D01*
X17106Y27500D01*
X17082Y27683D01*
X17011Y27853D01*
X16899Y27999D01*
X16753Y28111D01*
X16583Y28182D01*
X16417Y28204D01*
X15655Y28965D01*
X15637Y28978D01*
X15462Y29206D01*
X15343Y29493D01*
X15305Y29778D01*
X15310Y29800D01*
Y29950D01*
X15424Y30006D01*
X15447Y29989D01*
X15617Y29918D01*
X15783Y29896D01*
X18914Y26765D01*
X18842Y26657D01*
X18783Y26682D01*
X18600Y26706D01*
X18417Y26682D01*
X18247Y26611D01*
X18101Y26499D01*
X17989Y26353D01*
X17918Y26183D01*
X17894Y26000D01*
X17918Y25817D01*
X17989Y25647D01*
X18101Y25501D01*
X18247Y25389D01*
X18417Y25318D01*
X18600Y25294D01*
X18709Y25182D01*
X18718Y25117D01*
X18789Y24947D01*
X18901Y24801D01*
X19047Y24689D01*
X19217Y24618D01*
X19400Y24594D01*
X19583Y24618D01*
X19753Y24689D01*
X19861Y24771D01*
X20006Y24752D01*
X20085Y24561D01*
X20320Y24255D01*
X20322Y24257D01*
X21314Y23265D01*
X21242Y23157D01*
X21183Y23182D01*
X21000Y23206D01*
X20817Y23182D01*
X20647Y23111D01*
X20501Y22999D01*
X20499Y22997D01*
X20363Y23028D01*
X20311Y23153D01*
X20199Y23299D01*
X20053Y23411D01*
X19883Y23482D01*
X19700Y23506D01*
X19517Y23482D01*
X19347Y23411D01*
X19201Y23299D01*
X19089Y23153D01*
X19018Y22983D01*
X18994Y22800D01*
X19018Y22617D01*
X19089Y22447D01*
X19201Y22301D01*
X19347Y22189D01*
X19517Y22118D01*
X19700Y22094D01*
X19883Y22118D01*
X20053Y22189D01*
X20199Y22301D01*
X20201Y22303D01*
X20337Y22272D01*
X20389Y22147D01*
X20501Y22001D01*
X20647Y21889D01*
X20817Y21818D01*
X21000Y21794D01*
X21183Y21818D01*
X21353Y21889D01*
X21499Y22001D01*
X21611Y22147D01*
X21682Y22317D01*
X21706Y22500D01*
X21682Y22683D01*
X21657Y22742D01*
X21765Y22814D01*
X23396Y21183D01*
X23415Y21170D01*
X23654Y20880D01*
X23842Y20527D01*
X23958Y20145D01*
X23995Y19771D01*
X23990Y19748D01*
Y18585D01*
X23889Y18453D01*
X23818Y18283D01*
X23794Y18100D01*
X23818Y17917D01*
X23889Y17747D01*
X24001Y17601D01*
X24147Y17489D01*
X24317Y17418D01*
X24444Y17401D01*
X24500Y17390D01*
X24556Y17401D01*
X24683Y17418D01*
X24853Y17489D01*
X24999Y17601D01*
X25111Y17747D01*
X25182Y17917D01*
X25206Y18100D01*
X25182Y18283D01*
X25111Y18453D01*
X25010Y18585D01*
Y19748D01*
X25009Y19751D01*
X24972Y20225D01*
X24860Y20690D01*
X24677Y21132D01*
X24427Y21540D01*
X24118Y21902D01*
X24117Y21904D01*
X21043Y24978D01*
X21031Y24986D01*
X20939Y25123D01*
X20928Y25180D01*
X20911Y25300D01*
X20911D01*
X20868Y25729D01*
X20743Y26142D01*
X20540Y26523D01*
X20266Y26856D01*
X20266Y26855D01*
X20265Y26855D01*
X19267Y27854D01*
X19315Y27985D01*
X19371Y27990D01*
X19389Y27947D01*
X19501Y27801D01*
X19647Y27689D01*
X19817Y27618D01*
X20000Y27594D01*
X20183Y27618D01*
X20353Y27689D01*
X20499Y27801D01*
X20611Y27947D01*
X20682Y28117D01*
X20706Y28300D01*
X20682Y28483D01*
X20611Y28653D01*
X20499Y28799D01*
X20353Y28911D01*
X20183Y28982D01*
X20000Y29006D01*
X19817Y28982D01*
X19667Y28920D01*
X19611Y29053D01*
X19499Y29199D01*
X19353Y29311D01*
X19183Y29382D01*
X19017Y29404D01*
X17173Y31248D01*
X17170Y31250D01*
X17125Y31317D01*
X17109Y31397D01*
X17110Y31400D01*
X17109Y31403D01*
X17125Y31483D01*
X17170Y31550D01*
X17173Y31552D01*
X18001Y32380D01*
X18147Y32347D01*
X18189Y32247D01*
X18301Y32101D01*
X18447Y31989D01*
X18617Y31918D01*
X18800Y31894D01*
X18983Y31918D01*
X19153Y31989D01*
X19299Y32101D01*
X19411Y32247D01*
X19482Y32417D01*
X19506Y32600D01*
X19482Y32783D01*
X19411Y32953D01*
X19299Y33099D01*
X19153Y33211D01*
X19053Y33253D01*
X19020Y33399D01*
X19021Y33400D01*
X19031Y33415D01*
X19227Y33653D01*
X19381Y33941D01*
X19475Y34253D01*
X19505Y34560D01*
X19509Y34578D01*
Y35085D01*
X19510Y35089D01*
X19510Y35089D01*
X19510Y35090D01*
Y35200D01*
X19508Y35209D01*
X19530Y35379D01*
X19600Y35547D01*
X19677Y35648D01*
X19705Y35653D01*
X19758Y35589D01*
X19782Y35538D01*
X19718Y35383D01*
X19694Y35200D01*
X19718Y35017D01*
X19789Y34847D01*
X19901Y34701D01*
X20047Y34589D01*
X20217Y34518D01*
X20400Y34494D01*
X20583Y34518D01*
X20753Y34589D01*
X20899Y34701D01*
X21011Y34847D01*
X21082Y35017D01*
X21106Y35200D01*
X21082Y35383D01*
X21011Y35553D01*
X20899Y35699D01*
X20753Y35811D01*
X20675Y35844D01*
X20681Y35979D01*
X20777Y36007D01*
X21037Y36147D01*
X21266Y36334D01*
X21453Y36563D01*
X21593Y36823D01*
X21678Y37106D01*
X21705Y37375D01*
X21710Y37400D01*
Y39250D01*
X21824Y39306D01*
X21847Y39289D01*
X22017Y39218D01*
X22200Y39194D01*
X22383Y39218D01*
X22553Y39289D01*
X22699Y39401D01*
X22811Y39547D01*
X22882Y39717D01*
X22906Y39900D01*
X22882Y40083D01*
X22811Y40253D01*
X22699Y40399D01*
X22553Y40511D01*
X22383Y40582D01*
X22200Y40606D01*
X22017Y40582D01*
X21847Y40511D01*
X21807Y40481D01*
X21674Y40539D01*
X21663Y40651D01*
X21517Y41131D01*
X21281Y41574D01*
X20962Y41962D01*
X20961Y41961D01*
X20714Y42150D01*
X20426Y42270D01*
X20117Y42310D01*
Y42310D01*
X18486D01*
X18353Y42411D01*
X18183Y42482D01*
X18000Y42506D01*
D02*
G37*
G36*
X23800Y38206D02*
X23617Y38182D01*
X23447Y38111D01*
X23301Y37999D01*
X23189Y37853D01*
X23118Y37683D01*
X23094Y37500D01*
X23118Y37317D01*
X23189Y37147D01*
X23301Y37001D01*
X23447Y36889D01*
X23617Y36818D01*
X23800Y36794D01*
X23983Y36818D01*
X24153Y36889D01*
X24299Y37001D01*
X24411Y37147D01*
X24482Y37317D01*
X24506Y37500D01*
X24482Y37683D01*
X24411Y37853D01*
X24299Y37999D01*
X24153Y38111D01*
X23983Y38182D01*
X23800Y38206D01*
D02*
G37*
G36*
X30300Y37906D02*
X30117Y37882D01*
X29947Y37811D01*
X29801Y37699D01*
X29689Y37553D01*
X29618Y37383D01*
X29594Y37200D01*
X29618Y37017D01*
X29689Y36847D01*
X29801Y36701D01*
X29947Y36589D01*
X30117Y36518D01*
X30300Y36494D01*
X30483Y36518D01*
X30653Y36589D01*
X30799Y36701D01*
X30911Y36847D01*
X30982Y37017D01*
X31006Y37200D01*
X30982Y37383D01*
X30911Y37553D01*
X30799Y37699D01*
X30653Y37811D01*
X30483Y37882D01*
X30300Y37906D01*
D02*
G37*
G36*
X32000Y37806D02*
X31817Y37782D01*
X31647Y37711D01*
X31501Y37599D01*
X31389Y37453D01*
X31318Y37283D01*
X31294Y37100D01*
X31318Y36917D01*
X31389Y36747D01*
X31501Y36601D01*
X31647Y36489D01*
X31817Y36418D01*
X32000Y36394D01*
X32183Y36418D01*
X32353Y36489D01*
X32499Y36601D01*
X32611Y36747D01*
X32682Y36917D01*
X32706Y37100D01*
X32682Y37283D01*
X32611Y37453D01*
X32499Y37599D01*
X32353Y37711D01*
X32183Y37782D01*
X32000Y37806D01*
D02*
G37*
G36*
X10100D02*
X9917Y37782D01*
X9747Y37711D01*
X9601Y37599D01*
X9489Y37453D01*
X9418Y37283D01*
X9394Y37100D01*
X9418Y36917D01*
X9489Y36747D01*
X9601Y36601D01*
X9747Y36489D01*
X9917Y36418D01*
X10100Y36394D01*
X10283Y36418D01*
X10453Y36489D01*
X10599Y36601D01*
X10711Y36747D01*
X10782Y36917D01*
X10806Y37100D01*
X10782Y37283D01*
X10711Y37453D01*
X10599Y37599D01*
X10453Y37711D01*
X10283Y37782D01*
X10100Y37806D01*
D02*
G37*
G36*
X14400Y37706D02*
X14217Y37682D01*
X14047Y37611D01*
X13901Y37499D01*
X13789Y37353D01*
X13718Y37183D01*
X13694Y37000D01*
X13718Y36817D01*
X13789Y36647D01*
X13901Y36501D01*
X14047Y36389D01*
X14217Y36318D01*
X14400Y36294D01*
X14583Y36318D01*
X14753Y36389D01*
X14899Y36501D01*
X15011Y36647D01*
X15082Y36817D01*
X15106Y37000D01*
X15082Y37183D01*
X15011Y37353D01*
X14899Y37499D01*
X14753Y37611D01*
X14583Y37682D01*
X14400Y37706D01*
D02*
G37*
G36*
X34900Y35706D02*
X34717Y35682D01*
X34547Y35611D01*
X34401Y35499D01*
X34289Y35353D01*
X34218Y35183D01*
X34194Y35000D01*
X34218Y34817D01*
X34289Y34647D01*
X34401Y34501D01*
X34547Y34389D01*
X34717Y34318D01*
X34900Y34294D01*
X35083Y34318D01*
X35253Y34389D01*
X35399Y34501D01*
X35511Y34647D01*
X35582Y34817D01*
X35606Y35000D01*
X35582Y35183D01*
X35511Y35353D01*
X35399Y35499D01*
X35253Y35611D01*
X35083Y35682D01*
X34900Y35706D01*
D02*
G37*
G36*
X33200Y35606D02*
X33017Y35582D01*
X32847Y35511D01*
X32701Y35399D01*
X32589Y35253D01*
X32518Y35083D01*
X32494Y34900D01*
X32518Y34717D01*
X32589Y34547D01*
X32701Y34401D01*
X32847Y34289D01*
X33017Y34218D01*
X33200Y34194D01*
X33383Y34218D01*
X33553Y34289D01*
X33699Y34401D01*
X33811Y34547D01*
X33882Y34717D01*
X33906Y34900D01*
X33882Y35083D01*
X33811Y35253D01*
X33699Y35399D01*
X33553Y35511D01*
X33383Y35582D01*
X33200Y35606D01*
D02*
G37*
G36*
X25335Y35491D02*
X25153Y35467D01*
X24982Y35397D01*
X24836Y35285D01*
X24724Y35138D01*
X24653Y34968D01*
X24629Y34785D01*
X24653Y34603D01*
X24724Y34432D01*
X24836Y34286D01*
X24982Y34174D01*
X25153Y34103D01*
X25335Y34079D01*
X25518Y34103D01*
X25688Y34174D01*
X25835Y34286D01*
X25947Y34432D01*
X26017Y34603D01*
X26041Y34785D01*
X26017Y34968D01*
X25947Y35138D01*
X25835Y35285D01*
X25688Y35397D01*
X25518Y35467D01*
X25335Y35491D01*
D02*
G37*
G36*
X27100Y34906D02*
X26917Y34882D01*
X26747Y34811D01*
X26601Y34699D01*
X26488Y34553D01*
X26418Y34383D01*
X26394Y34200D01*
X26418Y34017D01*
X26488Y33847D01*
X26601Y33701D01*
X26747Y33588D01*
X26917Y33518D01*
X27100Y33494D01*
X27283Y33518D01*
X27453Y33588D01*
X27599Y33701D01*
X27711Y33847D01*
X27782Y34017D01*
X27806Y34200D01*
X27782Y34383D01*
X27711Y34553D01*
X27599Y34699D01*
X27453Y34811D01*
X27283Y34882D01*
X27100Y34906D01*
D02*
G37*
G36*
X12100Y33406D02*
X11917Y33382D01*
X11747Y33311D01*
X11650Y33237D01*
X11553Y33311D01*
X11383Y33382D01*
X11200Y33406D01*
X11017Y33382D01*
X10847Y33311D01*
X10701Y33199D01*
X10589Y33053D01*
X10518Y32883D01*
X10494Y32700D01*
X10518Y32517D01*
X10589Y32347D01*
X10701Y32201D01*
X10847Y32089D01*
X10988Y32030D01*
X11022Y32004D01*
X11060Y31884D01*
X11018Y31783D01*
X10994Y31600D01*
X11018Y31417D01*
X11089Y31247D01*
X11201Y31101D01*
X11347Y30989D01*
X11517Y30918D01*
X11700Y30894D01*
X11883Y30918D01*
X12053Y30989D01*
X12157Y30908D01*
X12201Y30851D01*
X12347Y30739D01*
X12517Y30668D01*
X12700Y30644D01*
X12883Y30668D01*
X13053Y30739D01*
X13199Y30851D01*
X13311Y30997D01*
X13382Y31167D01*
X13406Y31350D01*
X13382Y31533D01*
X13311Y31703D01*
X13199Y31849D01*
X13053Y31961D01*
X12883Y32032D01*
X12700Y32056D01*
X12603Y32043D01*
X12552Y32165D01*
X12599Y32201D01*
X12711Y32347D01*
X12782Y32517D01*
X12806Y32700D01*
X12782Y32883D01*
X12711Y33053D01*
X12599Y33199D01*
X12453Y33311D01*
X12283Y33382D01*
X12100Y33406D01*
D02*
G37*
G36*
X32500Y32606D02*
X32500Y32606D01*
X29576Y32606D01*
X27406Y30436D01*
X27347Y30411D01*
X27201Y30299D01*
X27089Y30153D01*
X27064Y30094D01*
X27000Y30030D01*
Y29846D01*
X26994Y29800D01*
X27000Y29754D01*
Y29300D01*
X27700Y28600D01*
X29200Y28600D01*
X30870Y30270D01*
X31004Y30224D01*
X31018Y30117D01*
X31089Y29947D01*
X31201Y29801D01*
X31347Y29689D01*
X31517Y29618D01*
X31700Y29594D01*
X31883Y29618D01*
X32053Y29689D01*
X32199Y29801D01*
X32311Y29947D01*
X32382Y30117D01*
X32406Y30300D01*
X32382Y30483D01*
X32311Y30653D01*
X32199Y30799D01*
X32053Y30911D01*
X31883Y30982D01*
X31813Y30991D01*
X31767Y31115D01*
X31830Y31194D01*
X32794Y31194D01*
X33182Y31582D01*
Y31717D01*
X33206Y31900D01*
X33182Y32083D01*
Y32217D01*
X32999Y32399D01*
X32999Y32399D01*
X32999Y32399D01*
X32792Y32606D01*
X32500D01*
X32500Y32606D01*
D02*
G37*
G36*
X27000Y32906D02*
X26817Y32882D01*
X26647Y32811D01*
X26501Y32699D01*
X26389Y32553D01*
X26318Y32383D01*
X26294Y32200D01*
X26318Y32017D01*
X26389Y31847D01*
X26501Y31701D01*
X26647Y31589D01*
X26817Y31518D01*
X27000Y31494D01*
X27183Y31518D01*
X27353Y31589D01*
X27499Y31701D01*
X27611Y31847D01*
X27682Y32017D01*
X27706Y32200D01*
X27682Y32383D01*
X27611Y32553D01*
X27499Y32699D01*
X27353Y32811D01*
X27183Y32882D01*
X27000Y32906D01*
D02*
G37*
G36*
X22700Y32106D02*
X22517Y32082D01*
X22347Y32011D01*
X22201Y31899D01*
X22089Y31753D01*
X22018Y31583D01*
X21994Y31400D01*
X22018Y31217D01*
X22089Y31047D01*
X22201Y30901D01*
X22347Y30789D01*
X22517Y30718D01*
X22700Y30694D01*
X22883Y30718D01*
X23053Y30789D01*
X23199Y30901D01*
X23311Y31047D01*
X23382Y31217D01*
X23406Y31400D01*
X23382Y31583D01*
X23311Y31753D01*
X23199Y31899D01*
X23053Y32011D01*
X22883Y32082D01*
X22700Y32106D01*
D02*
G37*
G36*
X34200Y30306D02*
X34017Y30282D01*
X33847Y30211D01*
X33701Y30099D01*
X33589Y29953D01*
X33518Y29783D01*
X33494Y29600D01*
X33518Y29417D01*
X33589Y29247D01*
X33701Y29101D01*
X33847Y28989D01*
X34017Y28918D01*
X34200Y28894D01*
X34383Y28918D01*
X34553Y28989D01*
X34699Y29101D01*
X34811Y29247D01*
X34882Y29417D01*
X34906Y29600D01*
X34882Y29783D01*
X34811Y29953D01*
X34699Y30099D01*
X34553Y30211D01*
X34383Y30282D01*
X34200Y30306D01*
D02*
G37*
G36*
X23000Y30206D02*
X22817Y30182D01*
X22647Y30111D01*
X22501Y29999D01*
X22389Y29853D01*
X22318Y29683D01*
X22294Y29500D01*
X22318Y29317D01*
X22389Y29147D01*
X22501Y29001D01*
X22647Y28889D01*
X22817Y28818D01*
X23000Y28794D01*
X23183Y28818D01*
X23353Y28889D01*
X23499Y29001D01*
X23611Y29147D01*
X23682Y29317D01*
X23706Y29500D01*
X23682Y29683D01*
X23611Y29853D01*
X23499Y29999D01*
X23353Y30111D01*
X23183Y30182D01*
X23000Y30206D01*
D02*
G37*
G36*
X24600Y30206D02*
X24417Y30182D01*
X24247Y30111D01*
X24101Y29999D01*
X23989Y29853D01*
X23918Y29683D01*
X23894Y29500D01*
X23918Y29317D01*
X23989Y29147D01*
X24101Y29001D01*
X24247Y28889D01*
X24417Y28818D01*
X24600Y28794D01*
X24783Y28818D01*
X24953Y28889D01*
X25099Y29001D01*
X25211Y29147D01*
X25282Y29317D01*
X25306Y29500D01*
X25282Y29683D01*
X25211Y29853D01*
X25099Y29999D01*
X24953Y30111D01*
X24783Y30182D01*
X24600Y30206D01*
D02*
G37*
G36*
X31400Y28706D02*
X31217Y28682D01*
X31047Y28611D01*
X30901Y28499D01*
X30789Y28353D01*
X30718Y28183D01*
X30694Y28000D01*
X30718Y27817D01*
X30789Y27647D01*
X30901Y27501D01*
X31047Y27389D01*
X31217Y27318D01*
X31400Y27294D01*
X31583Y27318D01*
X31753Y27389D01*
X31899Y27501D01*
X32011Y27647D01*
X32082Y27817D01*
X32106Y28000D01*
X32082Y28183D01*
X32011Y28353D01*
X31899Y28499D01*
X31753Y28611D01*
X31583Y28682D01*
X31400Y28706D01*
D02*
G37*
G36*
X23949Y27872D02*
X23766Y27848D01*
X23596Y27777D01*
X23449Y27665D01*
X23337Y27519D01*
X23267Y27348D01*
X23243Y27166D01*
X23267Y26983D01*
X23337Y26813D01*
X23449Y26666D01*
X23596Y26554D01*
X23766Y26484D01*
X23949Y26460D01*
X24131Y26484D01*
X24302Y26554D01*
X24448Y26666D01*
X24560Y26813D01*
X24631Y26983D01*
X24655Y27166D01*
X24631Y27348D01*
X24560Y27519D01*
X24448Y27665D01*
X24302Y27777D01*
X24131Y27848D01*
X23949Y27872D01*
D02*
G37*
G36*
X30076Y27216D02*
X29893Y27192D01*
X29723Y27122D01*
X29576Y27009D01*
X29464Y26863D01*
X29394Y26693D01*
X29370Y26510D01*
X29393Y26332D01*
X29381Y26316D01*
X29294Y26236D01*
X29183Y26282D01*
X29000Y26306D01*
X28817Y26282D01*
X28647Y26211D01*
X28501Y26099D01*
X28389Y25953D01*
X28318Y25783D01*
X28294Y25600D01*
X28318Y25417D01*
X28389Y25247D01*
X28501Y25101D01*
X28647Y24989D01*
X28817Y24918D01*
X29000Y24894D01*
X29183Y24918D01*
X29353Y24989D01*
X29499Y25101D01*
X29611Y25247D01*
X29682Y25417D01*
X29706Y25600D01*
X29683Y25778D01*
X29695Y25795D01*
X29782Y25874D01*
X29893Y25828D01*
X30076Y25804D01*
X30258Y25828D01*
X30429Y25899D01*
X30575Y26011D01*
X30687Y26157D01*
X30758Y26327D01*
X30782Y26510D01*
X30758Y26693D01*
X30687Y26863D01*
X30575Y27009D01*
X30429Y27122D01*
X30258Y27192D01*
X30076Y27216D01*
D02*
G37*
G36*
X21700Y27106D02*
X21517Y27082D01*
X21347Y27011D01*
X21201Y26899D01*
X21089Y26753D01*
X21018Y26583D01*
X20994Y26400D01*
X21018Y26217D01*
X21089Y26047D01*
X21201Y25901D01*
X21347Y25789D01*
X21470Y25738D01*
X21517Y25621D01*
X21517Y25590D01*
X21489Y25553D01*
X21418Y25383D01*
X21394Y25200D01*
X21418Y25017D01*
X21489Y24847D01*
X21601Y24701D01*
X21747Y24589D01*
X21917Y24518D01*
X22100Y24494D01*
X22283Y24518D01*
X22453Y24589D01*
X22599Y24701D01*
X22711Y24847D01*
X22782Y25017D01*
X22806Y25200D01*
X22782Y25383D01*
X22711Y25553D01*
X22599Y25699D01*
X22453Y25811D01*
X22330Y25862D01*
X22283Y25979D01*
X22283Y26010D01*
X22311Y26047D01*
X22382Y26217D01*
X22406Y26400D01*
X22382Y26583D01*
X22311Y26753D01*
X22199Y26899D01*
X22053Y27011D01*
X21883Y27082D01*
X21700Y27106D01*
D02*
G37*
G36*
X38500Y24706D02*
X38317Y24682D01*
X38147Y24611D01*
X38001Y24499D01*
X37964Y24451D01*
X37836D01*
X37799Y24499D01*
X37653Y24611D01*
X37483Y24682D01*
X37300Y24706D01*
X37117Y24682D01*
X36947Y24611D01*
X36801Y24499D01*
X36689Y24353D01*
X36618Y24183D01*
X36594Y24000D01*
X36618Y23817D01*
X36689Y23647D01*
X36801Y23501D01*
X36947Y23389D01*
X37117Y23318D01*
X37300Y23294D01*
X37483Y23318D01*
X37653Y23389D01*
X37799Y23501D01*
X37836Y23549D01*
X37964D01*
X38001Y23501D01*
X38147Y23389D01*
X38317Y23318D01*
X38500Y23294D01*
X38683Y23318D01*
X38853Y23389D01*
X38999Y23501D01*
X39111Y23647D01*
X39182Y23817D01*
X39206Y24000D01*
X39182Y24183D01*
X39111Y24353D01*
X38999Y24499D01*
X38853Y24611D01*
X38683Y24682D01*
X38500Y24706D01*
D02*
G37*
G36*
X10000Y25306D02*
X9817Y25282D01*
X9647Y25211D01*
X9501Y25099D01*
X9389Y24953D01*
X9318Y24783D01*
X9294Y24600D01*
X9318Y24417D01*
X9389Y24247D01*
X9501Y24101D01*
X9647Y23989D01*
X9817Y23918D01*
X10000Y23894D01*
X10183Y23918D01*
X10353Y23989D01*
X10499Y24101D01*
X10611Y24247D01*
X10682Y24417D01*
X10706Y24600D01*
X10682Y24783D01*
X10611Y24953D01*
X10499Y25099D01*
X10353Y25211D01*
X10183Y25282D01*
X10000Y25306D01*
D02*
G37*
G36*
X25700Y24806D02*
X25517Y24782D01*
X25347Y24711D01*
X25201Y24599D01*
X25089Y24453D01*
X25018Y24283D01*
X24994Y24100D01*
X25018Y23917D01*
X25089Y23747D01*
X25201Y23601D01*
X25347Y23489D01*
X25517Y23418D01*
X25700Y23394D01*
X25883Y23418D01*
X26053Y23489D01*
X26199Y23601D01*
X26311Y23747D01*
X26382Y23917D01*
X26406Y24100D01*
X26382Y24283D01*
X26311Y24453D01*
X26199Y24599D01*
X26053Y24711D01*
X25883Y24782D01*
X25700Y24806D01*
D02*
G37*
G36*
X15972Y24256D02*
X15789Y24232D01*
X15619Y24161D01*
X15473Y24049D01*
X15361Y23903D01*
X15290Y23733D01*
X15266Y23550D01*
X15290Y23367D01*
X15361Y23197D01*
X15473Y23051D01*
X15619Y22939D01*
X15789Y22868D01*
X15972Y22844D01*
X16155Y22868D01*
X16325Y22939D01*
X16471Y23051D01*
X16584Y23197D01*
X16654Y23367D01*
X16678Y23550D01*
X16654Y23733D01*
X16584Y23903D01*
X16471Y24049D01*
X16325Y24161D01*
X16155Y24232D01*
X15972Y24256D01*
D02*
G37*
G36*
X27000Y23706D02*
X26817Y23682D01*
X26647Y23611D01*
X26501Y23499D01*
X26389Y23353D01*
X26318Y23183D01*
X26294Y23000D01*
X26318Y22817D01*
X26389Y22647D01*
X26501Y22501D01*
X26647Y22389D01*
X26817Y22318D01*
X27000Y22294D01*
X27183Y22318D01*
X27353Y22389D01*
X27499Y22501D01*
X27611Y22647D01*
X27682Y22817D01*
X27706Y23000D01*
X27682Y23183D01*
X27611Y23353D01*
X27499Y23499D01*
X27353Y23611D01*
X27183Y23682D01*
X27000Y23706D01*
D02*
G37*
G36*
X33200Y21506D02*
X33017Y21482D01*
X32847Y21411D01*
X32701Y21299D01*
X32589Y21153D01*
X32518Y20983D01*
X32494Y20800D01*
X32518Y20617D01*
X32589Y20447D01*
X32701Y20301D01*
X32847Y20189D01*
X33017Y20118D01*
X33200Y20094D01*
X33383Y20118D01*
X33553Y20189D01*
X33699Y20301D01*
X33811Y20447D01*
X33882Y20617D01*
X33906Y20800D01*
X33882Y20983D01*
X33811Y21153D01*
X33699Y21299D01*
X33553Y21411D01*
X33383Y21482D01*
X33200Y21506D01*
D02*
G37*
G36*
X9900Y20106D02*
X9717Y20082D01*
X9547Y20011D01*
X9401Y19899D01*
X9289Y19753D01*
X9218Y19583D01*
X9194Y19400D01*
X9218Y19217D01*
X9289Y19047D01*
X9401Y18901D01*
X9547Y18789D01*
X9717Y18718D01*
X9900Y18694D01*
X10083Y18718D01*
X10253Y18789D01*
X10399Y18901D01*
X10511Y19047D01*
X10582Y19217D01*
X10606Y19400D01*
X10582Y19583D01*
X10511Y19753D01*
X10399Y19899D01*
X10253Y20011D01*
X10083Y20082D01*
X9900Y20106D01*
D02*
G37*
G36*
X17800Y24306D02*
X17617Y24282D01*
X17447Y24211D01*
X17301Y24099D01*
X17189Y23953D01*
X17118Y23783D01*
X17094Y23600D01*
X17118Y23417D01*
X17189Y23247D01*
X17297Y23106D01*
X17327Y22800D01*
X17434Y22448D01*
X17607Y22124D01*
X17835Y21846D01*
X17840Y21840D01*
X21898Y17781D01*
X21915Y17770D01*
X21948Y17744D01*
X21989Y17647D01*
X22101Y17501D01*
X22247Y17389D01*
X22417Y17318D01*
X22600Y17294D01*
X22783Y17318D01*
X22953Y17389D01*
X23099Y17501D01*
X23211Y17647D01*
X23282Y17817D01*
X23306Y18000D01*
X23282Y18183D01*
X23211Y18353D01*
X23099Y18499D01*
X22953Y18611D01*
X22783Y18682D01*
X22600Y18706D01*
X22436Y18685D01*
X18560Y22560D01*
X18549Y22568D01*
X18421Y22736D01*
X18335Y22943D01*
X18312Y23117D01*
X18411Y23247D01*
X18482Y23417D01*
X18506Y23600D01*
X18482Y23783D01*
X18411Y23953D01*
X18299Y24099D01*
X18153Y24211D01*
X17983Y24282D01*
X17800Y24306D01*
D02*
G37*
G36*
X26900Y17306D02*
X26717Y17282D01*
X26547Y17211D01*
X26401Y17099D01*
X26288Y16953D01*
X26218Y16783D01*
X26194Y16600D01*
X26218Y16417D01*
X26288Y16247D01*
X26401Y16101D01*
X26547Y15988D01*
X26717Y15918D01*
X26900Y15894D01*
X27083Y15918D01*
X27253Y15988D01*
X27399Y16101D01*
X27511Y16247D01*
X27582Y16417D01*
X27606Y16600D01*
X27582Y16783D01*
X27511Y16953D01*
X27399Y17099D01*
X27253Y17211D01*
X27083Y17282D01*
X26900Y17306D01*
D02*
G37*
G36*
X12600Y15906D02*
X12417Y15882D01*
X12247Y15811D01*
X12101Y15699D01*
X12063Y15651D01*
X11936D01*
X11899Y15699D01*
X11753Y15811D01*
X11583Y15882D01*
X11400Y15906D01*
X11217Y15882D01*
X11047Y15811D01*
X10901Y15699D01*
X10788Y15553D01*
X10718Y15383D01*
X10694Y15200D01*
X10718Y15017D01*
X10770Y14892D01*
X10655Y14841D01*
X10610Y14900D01*
X10542Y14988D01*
X10396Y15100D01*
X10226Y15170D01*
X10043Y15194D01*
X9860Y15170D01*
X9690Y15100D01*
X9544Y14988D01*
X9432Y14841D01*
X9361Y14671D01*
X9337Y14488D01*
X9361Y14306D01*
X9432Y14135D01*
X9544Y13989D01*
X9690Y13877D01*
X9860Y13806D01*
X10043Y13782D01*
X10226Y13806D01*
X10396Y13877D01*
X10542Y13989D01*
X10655Y14135D01*
X10725Y14306D01*
X10749Y14488D01*
X10725Y14671D01*
X10673Y14796D01*
X10788Y14847D01*
X10833Y14789D01*
X10901Y14701D01*
X11047Y14588D01*
X11217Y14518D01*
X11400Y14494D01*
X11583Y14518D01*
X11753Y14588D01*
X11899Y14701D01*
X11936Y14749D01*
X12063D01*
X12101Y14701D01*
X12247Y14588D01*
X12417Y14518D01*
X12600Y14494D01*
X12783Y14518D01*
X12953Y14588D01*
X13099Y14701D01*
X13211Y14847D01*
X13282Y15017D01*
X13306Y15200D01*
X13282Y15383D01*
X13211Y15553D01*
X13099Y15699D01*
X12953Y15811D01*
X12783Y15882D01*
X12600Y15906D01*
D02*
G37*
G36*
X31200Y16506D02*
X31017Y16482D01*
X30847Y16411D01*
X30701Y16299D01*
X30589Y16153D01*
X30518Y15983D01*
X30494Y15800D01*
X30518Y15617D01*
X30589Y15447D01*
X30701Y15301D01*
X30847Y15189D01*
X31017Y15118D01*
X31200Y15094D01*
X31383Y15118D01*
X31553Y15189D01*
X31699Y15301D01*
X31811Y15447D01*
X31882Y15617D01*
X31906Y15800D01*
X31882Y15983D01*
X31811Y16153D01*
X31699Y16299D01*
X31553Y16411D01*
X31383Y16482D01*
X31200Y16506D01*
D02*
G37*
G36*
X28600Y16406D02*
X28417Y16382D01*
X28247Y16311D01*
X28101Y16199D01*
X27989Y16053D01*
X27918Y15883D01*
X27894Y15700D01*
X27918Y15517D01*
X27989Y15347D01*
X28101Y15201D01*
X28247Y15089D01*
X28417Y15018D01*
X28600Y14994D01*
X28783Y15018D01*
X28953Y15089D01*
X29099Y15201D01*
X29211Y15347D01*
X29282Y15517D01*
X29306Y15700D01*
X29282Y15883D01*
X29211Y16053D01*
X29099Y16199D01*
X28953Y16311D01*
X28783Y16382D01*
X28600Y16406D01*
D02*
G37*
G36*
X35100Y15306D02*
X34917Y15282D01*
X34747Y15211D01*
X34601Y15099D01*
X34489Y14953D01*
X34418Y14783D01*
X34394Y14600D01*
X34418Y14417D01*
X34489Y14247D01*
X34601Y14101D01*
X34747Y13989D01*
X34917Y13918D01*
X35100Y13894D01*
X35283Y13918D01*
X35453Y13989D01*
X35599Y14101D01*
X35711Y14247D01*
X35782Y14417D01*
X35806Y14600D01*
X35782Y14783D01*
X35711Y14953D01*
X35599Y15099D01*
X35453Y15211D01*
X35283Y15282D01*
X35100Y15306D01*
D02*
G37*
G36*
X23700Y14406D02*
X23517Y14382D01*
X23347Y14311D01*
X23201Y14199D01*
X23089Y14053D01*
X23018Y13883D01*
X22994Y13700D01*
X23018Y13517D01*
X23089Y13347D01*
X23201Y13201D01*
X23347Y13089D01*
X23517Y13018D01*
X23700Y12994D01*
X23883Y13018D01*
X24053Y13089D01*
X24199Y13201D01*
X24311Y13347D01*
X24382Y13517D01*
X24406Y13700D01*
X24382Y13883D01*
X24311Y14053D01*
X24199Y14199D01*
X24053Y14311D01*
X23883Y14382D01*
X23700Y14406D01*
D02*
G37*
G36*
X26525Y14309D02*
X26342Y14285D01*
X26172Y14214D01*
X26026Y14102D01*
X25914Y13956D01*
X25843Y13786D01*
X25819Y13603D01*
X25843Y13420D01*
X25914Y13250D01*
X26026Y13104D01*
X26172Y12991D01*
X26342Y12921D01*
X26525Y12897D01*
X26708Y12921D01*
X26878Y12991D01*
X27024Y13104D01*
X27136Y13250D01*
X27207Y13420D01*
X27231Y13603D01*
X27207Y13786D01*
X27136Y13956D01*
X27024Y14102D01*
X26878Y14214D01*
X26708Y14285D01*
X26525Y14309D01*
D02*
G37*
%LPD*%
D11*
X17800Y23166D02*
G03*
X18200Y22200I1366J0D01*
G01*
X22259Y18141D02*
G03*
X22600Y18000I341J341D01*
G01*
X24500Y19748D02*
G03*
X23756Y21544I-2540J0D01*
G01*
X20200Y36400D02*
G03*
X21200Y37400I0J1000D01*
G01*
X20400Y25300D02*
G03*
X20683Y24617I966J0D01*
G01*
X20400Y25300D02*
G03*
X19905Y26495I-1690J0D01*
G01*
X46000Y37700D02*
G03*
X45517Y37900I-483J-483D01*
G01*
X46400Y36734D02*
G03*
X46000Y37700I-1366J0D01*
G01*
X46800Y35300D02*
G03*
X47283Y35100I483J483D01*
G01*
X46400Y36266D02*
G03*
X46800Y35300I1366J0D01*
G01*
X46200Y33100D02*
G03*
X46400Y33583I-483J483D01*
G01*
X46800Y34900D02*
G03*
X46400Y33934I966J-966D01*
G01*
X47283Y35100D02*
G03*
X46800Y34900I0J-683D01*
G01*
X3134Y36400D02*
G03*
X2169Y36800I-966J-966D01*
G01*
X3800Y34900D02*
G03*
X3314Y36212I-2014J0D01*
G01*
X4100Y33600D02*
G03*
X4521Y33426I421J421D01*
G01*
X3800Y34324D02*
G03*
X4100Y33600I1024J0D01*
G01*
X4900Y39900D02*
G03*
X4217Y39617I0J-966D01*
G01*
X4200Y39600D02*
G03*
X3900Y38876I724J-724D01*
G01*
X3405Y37505D02*
G03*
X3900Y38700I-1195J1195D01*
G01*
X2134Y36800D02*
G03*
X3100Y37200I0J1366D01*
G01*
X3800Y17200D02*
G03*
X3210Y18624I-2014J0D01*
G01*
X5266Y22200D02*
G03*
X4300Y21800I0J-1366D01*
G01*
X4183Y21683D02*
G03*
X3900Y21000I683J-683D01*
G01*
X3405Y19805D02*
G03*
X3900Y21000I-1195J1195D01*
G01*
X3134Y18700D02*
G03*
X2169Y19100I-966J-966D01*
G01*
X2134D02*
G03*
X3100Y19500I0J1366D01*
G01*
X3800Y17200D02*
G03*
X4224Y16176I1449J0D01*
G01*
X4559Y15841D02*
G03*
X4900Y15700I341J341D01*
G01*
X45958Y33000D02*
G03*
X46200Y33100I0J342D01*
G01*
X14800Y29800D02*
G03*
X15295Y28605I1690J0D01*
G01*
X15290Y31490D02*
G03*
X14800Y30308I1182J-1182D01*
G01*
X16600Y31400D02*
G03*
X16812Y30888I724J0D01*
G01*
Y31912D02*
G03*
X16600Y31400I512J-512D01*
G01*
X18660Y33760D02*
G03*
X18999Y34578I-818J818D01*
G01*
X20200Y36400D02*
G03*
X19000Y35200I0J-1200D01*
G01*
Y35089D02*
G03*
X19000Y35090I-2390J1D01*
G01*
X20600Y41600D02*
G03*
X20117Y41800I-483J-483D01*
G01*
X21200Y40151D02*
G03*
X20600Y41600I-2049J0D01*
G01*
X18000Y41900D02*
G03*
X18241Y41800I241J241D01*
G01*
X17676Y33876D02*
G03*
X18100Y34900I-1024J1024D01*
G01*
X18600Y40800D02*
G03*
X18100Y39593I1207J-1207D01*
G01*
X32500Y31900D02*
G03*
X31134Y31334I0J-1931D01*
G01*
X28159Y29341D02*
G03*
X28500Y29200I341J341D01*
G01*
D02*
G03*
X29353Y29553I0J1207D01*
G01*
D02*
G03*
X29354Y29554I-853J854D01*
G01*
X18200Y22200D02*
X22259Y18141D01*
X24500Y18100D02*
Y19748D01*
Y17900D02*
Y18100D01*
X21200Y37400D02*
Y40151D01*
X20683Y24617D02*
X23756Y21544D01*
X15800Y30600D02*
X19905Y26495D01*
X45400Y37900D02*
X45517D01*
X46400Y36617D02*
X46400Y36266D01*
Y36266D02*
Y36266D01*
X46400Y36617D02*
Y36734D01*
X46400Y33583D02*
Y33934D01*
X47283Y35100D02*
X49200D01*
X3314Y36212D02*
X3314Y36212D01*
X3134Y36392D02*
X3314Y36212D01*
X3134Y36400D02*
Y36400D01*
Y36392D02*
Y36400D01*
X4521Y33426D02*
X4824D01*
X3800Y34324D02*
Y34900D01*
X4200Y39600D02*
X4217Y39617D01*
X3900Y38700D02*
Y38876D01*
X900Y36800D02*
X2169D01*
X3100Y37200D02*
X3405Y37505D01*
X5266Y22200D02*
X6000D01*
X3134Y18700D02*
X3210Y18624D01*
X4183Y21683D02*
X4300Y21800D01*
X3100Y19500D02*
X3405Y19805D01*
X900Y19100D02*
X2134D01*
X15295Y28605D02*
X16400Y27500D01*
X4224Y16176D02*
X4559Y15841D01*
X45200Y32800D02*
Y33000D01*
X45958D01*
X14800Y29800D02*
Y30308D01*
X16812Y30888D02*
X19000Y28700D01*
X18999Y34578D02*
Y35088D01*
X19000Y35090D02*
Y35200D01*
X18999Y35088D02*
X19000Y35089D01*
X18241Y41800D02*
X20117D01*
X18000Y41900D02*
X18059Y41959D01*
X15290Y31490D02*
X17676Y33876D01*
X18100Y34900D02*
Y39593D01*
X16812Y31912D02*
X18660Y33760D01*
X29354Y29554D02*
X31134Y31334D01*
X27700Y29800D02*
X28159Y29341D01*
X29353Y29553D02*
X29354Y29554D01*
X17800Y23166D02*
Y23600D01*
D46*
X19890Y10910D02*
D03*
D48*
X41700Y2250D02*
D03*
D49*
X27700Y29800D02*
D03*
X15700Y19500D02*
D03*
X22600Y18000D02*
D03*
X23496Y16623D02*
D03*
X7500Y24810D02*
D03*
X18000Y9500D02*
D03*
X17200D02*
D03*
X24500Y18100D02*
D03*
X15800Y30600D02*
D03*
X17800Y23600D02*
D03*
X45400Y37900D02*
D03*
X49200Y35100D02*
D03*
X4824Y33426D02*
D03*
X4900Y39900D02*
D03*
X900Y36800D02*
D03*
X6000Y22200D02*
D03*
X900Y19100D02*
D03*
X23800Y44100D02*
D03*
X8500Y13500D02*
D03*
X9300D02*
D03*
X8500Y12700D02*
D03*
X9300D02*
D03*
X12300Y13500D02*
D03*
X13200D02*
D03*
X12300Y12700D02*
D03*
X13196D02*
D03*
X18000Y13000D02*
D03*
X17200D02*
D03*
X18000Y12096D02*
D03*
Y11200D02*
D03*
X17200Y12100D02*
D03*
Y11200D02*
D03*
X16404Y13004D02*
D03*
X15504D02*
D03*
X17200Y10300D02*
D03*
X18000D02*
D03*
X16400Y27500D02*
D03*
X19000Y28700D02*
D03*
X18000Y41800D02*
D03*
X7700Y12700D02*
D03*
Y13500D02*
D03*
X29900Y15600D02*
D03*
X33100Y17100D02*
D03*
X32500Y15800D02*
D03*
X37100Y25100D02*
D03*
X38800D02*
D03*
X13500Y29000D02*
D03*
Y30100D02*
D03*
X12700Y45700D02*
D03*
X9200Y45600D02*
D03*
X4900Y15700D02*
D03*
X45200Y33000D02*
D03*
X43600Y32300D02*
D03*
X42600Y42500D02*
D03*
X30800Y41900D02*
D03*
X7000Y42600D02*
D03*
X6400Y27200D02*
D03*
X42900Y12300D02*
D03*
X36300Y11100D02*
D03*
X33300Y4900D02*
D03*
X18600Y40800D02*
D03*
X32500Y31900D02*
D03*
M02*
