M48
;Layer_Color=9474304
;FILE_FORMAT=4:3
METRIC,LZ
;TYPE=PLATED
T1F00S00C0.300
T2F00S00C0.600
T3F00S00C0.700
T4F00S00C2.700
%
T01
X00429Y00123
X00425Y00262
X00438Y0026875
X00421Y00293
X00453Y00303
X00445Y00318
X00436Y00323
X00452Y0033
X00455Y0034
Y0036
X00454Y00379
X00447Y00389
X00492Y00351
X00475Y003
X00475Y0025741
X00388Y00251
X00385Y0024
X00373
X00371Y00251
X00342Y00296
X00317Y00303
X00325Y00319
X00297Y00317
X00286Y00302
X00277Y00298
X0027Y00322
X00271Y00342
X0025335Y0034785
X00238Y00375
X00203Y00377
X0019Y00381
X00204Y00352
X00188Y00326
X00167Y00346
X00144Y0037
X00101Y00371
X00112Y00327
X00121
X00117Y00316
X00127Y003135
X00135Y00301
Y0029
X00158Y00306
X00164Y00275
X00186Y0026
X00194Y00253
X00197Y00228
X0021Y00225
X00221Y00252
X00217Y00264
X0023949Y0027166
X00246Y00295
X0023Y00295
X00227Y00314
X002Y00283
X0019Y00287
X00178Y00236
X0015972Y002355
X00157Y00195
X00171Y00186
X00172Y0013
X0016404Y0013004
X0015504
X0018Y0013
Y0012096
X00172Y00121
Y00112
X0018
Y00103
Y00095
X00172
Y00103
X00188Y00145
X00237Y00137
X0026525Y0013603
X00269Y00166
X00286Y00157
X00299Y00156
X00312Y00158
X00325
X00331Y00171
X00332Y00208
X00351Y00146
X00363Y00111
X00333Y00049
X002863Y00052
X00286Y00073
X0023Y00068
X00222
X00214
Y0006
Y00052
X00222
Y0006
X0023
Y00052
X00229Y00028
X00221
X00213
Y00019
X00221
X00229
Y0001
X00221
X00213
X00183Y00029
Y00038
Y00047
X00174
Y00038
Y00029
X0013196Y00127
X00132Y00135
X00123
Y00127
X00126Y00152
X00114
X0010043Y0014488
X00093Y00135
X00085
X00077
Y00127
X00085
X00093
X00072Y00151
X00049Y00157
X0005248Y0016651
X00052Y00213
X0006Y00222
X00055Y00232
X00062Y00252
X00075Y002481
X001Y00246
X00077Y00275
X00064Y00272
X00052Y0029159
X0003Y00294
Y0025
X00009Y00191
X00099Y00194
X00086Y00293
X00058Y0033
X0004824Y0033426
X00049Y0034326
X00049Y0039
X00009Y00368
X00303Y00372
X0032Y00371
X00332Y00349
X00349Y0035
X00374Y00392
X00385
X00314Y0028
X0030076Y002651
X0029Y00256
X0027Y0023
X00257Y00241
X00245Y00181
X00226Y0018
X0023496Y0016623
X00222Y00399
X00186Y00408
X0018Y00418
X0015Y00424
Y0044
Y00455
X00166Y00463
X00188Y00462
X00139Y0047
X00127Y00457
X00092Y00456
X00066Y00444
X0007Y00426
X00057Y00427
X00052Y00408
X00049Y00399
X00124Y00421
X00238Y00441
X00288Y00424
X00308Y00419
X00325Y00422
X00329Y00431
X00401Y00439
X00426Y00425
T02
X001989Y000329
X002751
Y001091
X001989
T03
X00397Y000225
X00417
X00477Y00318
Y00338
Y00384
X00023
Y00338
Y00318
Y00227
Y00207
Y00161
Y00141
X00122Y000225
X00142
X00337
X00357Y000225
X00377
X00023Y00404
X00477
T04
X0047Y0003
X0003Y0003
X0003075Y004695
X0047Y0047
M30
